{
.appVersion = "911";
DisplayStrings = (
"H H\U00A0H",
Hzlp
);
copyright = "Copyright (c) 2010, Brian M Zick (http://21326.info/)";
customParameters = (
{
name = license;
value = "This Font Software is licensed under the SIL Open Font License, Version 1.1.\012This license is available with a FAQ at: http://scripts.sil.org/OFL";
},
{
name = licenseURL;
value = "http://scripts.sil.org/OFL";
},
{
name = vendorID;
value = PfEd;
},
{
name = unicodeRanges;
value = (
0,
1,
2,
3,
5,
6,
7,
29,
31,
33,
35,
38,
45,
60
);
},
{
name = codePageRanges;
value = (
1252,
1250,
1254,
1257
);
},
{
name = glyphOrder;
value = (
.notdef,
uni0000,
uni000D,
space,
exclam,
quotedbl,
numbersign,
dollar,
percent,
ampersand,
quotesingle,
parenleft,
parenright,
asterisk,
plus,
comma,
hyphen,
period,
slash,
zero,
one,
two,
three,
four,
five,
six,
seven,
eight,
nine,
colon,
semicolon,
less,
equal,
greater,
question,
at,
A,
B,
C,
D,
E,
F,
G,
H,
I,
J,
K,
L,
M,
N,
O,
P,
Q,
R,
S,
T,
U,
V,
W,
X,
Y,
Z,
bracketleft,
backslash,
bracketright,
asciicircum,
underscore,
grave,
a,
b,
c,
d,
e,
f,
g,
h,
i,
j,
k,
l,
m,
n,
o,
p,
q,
r,
s,
t,
u,
v,
w,
x,
y,
z,
braceleft,
bar,
braceright,
asciitilde,
uni00A0,
exclamdown,
cent,
sterling,
currency,
yen,
brokenbar,
section,
dieresis,
copyright,
ordfeminine,
guillemotleft,
logicalnot,
uni00AD,
registered,
macron,
degree,
plusminus,
uni00B2,
uni00B3,
acute,
paragraph,
periodcentered,
cedilla,
uni00B9,
ordmasculine,
guillemotright,
onequarter,
onehalf,
threequarters,
questiondown,
Agrave,
Aacute,
Acircumflex,
Atilde,
Adieresis,
Aring,
AE,
Ccedilla,
Egrave,
Eacute,
Ecircumflex,
Edieresis,
Igrave,
Iacute,
Icircumflex,
Idieresis,
Eth,
Ntilde,
Ograve,
Oacute,
Ocircumflex,
Otilde,
Odieresis,
multiply,
Oslash,
Ugrave,
Uacute,
Ucircumflex,
Udieresis,
Yacute,
Thorn,
germandbls,
agrave,
aacute,
acircumflex,
atilde,
adieresis,
aring,
ae,
ccedilla,
egrave,
eacute,
ecircumflex,
edieresis,
igrave,
iacute,
icircumflex,
idieresis,
eth,
ntilde,
ograve,
oacute,
ocircumflex,
otilde,

glyphs = (
{
glyphname = .notdef;
lastChange = "2016-08-10 08:02:47 +0000";
layers = (
{
layerId = "DEC179DC-8547-47B6-92D4-65C3F1BBEDD1";
paths = (
{
closed = 1;
nodes = (
"612 1365 LINE",
"68 1365 LINE",
"68 0 LINE",
"612 0 LINE"
);
},
{
closed = 1;
nodes = (
"544 1297 LINE",
"544 68 LINE",
"136 68 LINE",
"136 1297 LINE"
);
}
);
width = 748;
},
{
layerId = "CE2484D1-EC55-40DA-BA6C-521C673DBDD6";
paths = (
{
closed = 1;
nodes = (
"612 1365 LINE",
"68 1365 LINE",
"68 0 LINE",
"612 0 LINE"
);
},
{
closed = 1;
nodes = (
"544 1297 LINE",
"544 68 LINE",
"136 68 LINE",
"136 1297 LINE"
);
}
);
width = 748;
},
{
layerId = "A76B26BC-A350-47F3-8273-F323BC23B531";
paths = (
{
closed = 1;
nodes = (
"503 1123 LINE",
"56 1123 LINE",
"56 0 LINE",
"503 0 LINE"
);
},
{
closed = 1;
nodes = (
"447 1067 LINE",
"447 56 LINE",
"112 56 LINE",
"112 1067 LINE"
);
}
);
width = 615;
},
{
layerId = "52F1D99C-0FFA-4FAD-B979-579B617E1314";
paths = (
{
closed = 1;
nodes = (
"427 1051 LINE",
"427 55 LINE",
"96 55 LINE",
"96 1051 LINE"
);
},
{
closed = 1;
nodes = (
"482 1107 LINE",
"41 1107 LINE",
"41 0 LINE",
"482 0 LINE"
);
}
);
width = 564;
},
{
layerId = "B64F7E56-5CD3-4760-9166-7FC8A47137FC";
paths = (
{
closed = 1;
nodes = (
"612 1365 LINE",
"68 1365 LINE",
"68 0 LINE",
"612 0 LINE"
);
},
{
closed = 1;
nodes = (
"544 1297 LINE",
"544 68 LINE",
"136 68 LINE",
"136 1297 LINE"
);
}
);
width = 748;
}
);
note = .notdef;
},
{
glyphname = exclam;
lastChange = "2016-08-10 08:02:47 +0000";
layers = (
{
layerId = "DEC179DC-8547-47B6-92D4-65C3F1BBEDD1";
paths = (
{
closed = 1;
nodes = (
"19 1098 OFFCURVE",
"85 642 OFFCURVE",
"133 391 CURVE",
"300 362 LINE",
"353 714 OFFCURVE",
"379 998 OFFCURVE",
"379 1215 CURVE SMOOTH",
"379 1284 OFFCURVE",
"334 1306 OFFCURVE",
"225 1306 CURVE SMOOTH",
"88 1306 OFFCURVE",
"19 1269 OFFCURVE",
"19 1194 CURVE SMOOTH"
);
},
{
closed = 1;
nodes = (
"0 25 OFFCURVE",
"71 -26 OFFCURVE",
"214 -26 CURVE SMOOTH",
"356 -26 OFFCURVE",
"427 26 OFFCURVE",
"427 130 CURVE SMOOTH",
"427 209 OFFCURVE",
"364 280 OFFCURVE",
"213 280 CURVE SMOOTH",
"61 280 OFFCURVE",
"0 207 OFFCURVE",
"0 127 CURVE SMOOTH"
);
}
);
width = 427;
},
{
layerId = "CE2484D1-EC55-40DA-BA6C-521C673DBDD6";
paths = (
{
closed = 1;
nodes = (
"64 1152 OFFCURVE",
"78 998 OFFCURVE",
"105 758 CURVE SMOOTH",
"120 623 OFFCURVE",
"128 555 OFFCURVE",
"128 555 CURVE",
"138 472 OFFCURVE",
"145 415 OFFCURVE",
"148 384 CURVE",
"274 360 LINE",
"319 777 OFFCURVE",
"342 1069 OFFCURVE",
"342 1234 CURVE SMOOTH",
"342 1283 OFFCURVE",
"308 1299 OFFCURVE",
"221 1299 CURVE SMOOTH",
"134 1299 OFFCURVE",
"64 1271 OFFCURVE",
"64 1220 CURVE SMOOTH"
);
},
{
closed = 1;
nodes = (
"320 -31 OFFCURVE",
"379 29 OFFCURVE",
"379 107 CURVE SMOOTH",
"379 185 OFFCURVE",
"319 245 OFFCURVE",
"210 245 CURVE SMOOTH",
"101 245 OFFCURVE",
"42 184 OFFCURVE",
"42 108 CURVE SMOOTH",
"42 31 OFFCURVE",
"94 -31 OFFCURVE",
"207 -31 CURVE SMOOTH"
);
}
);
width = 419;
},
{
layerId = "A76B26BC-A350-47F3-8273-F323BC23B531";
paths = (
{
closed = 1;
nodes = (
"324 814 OFFCURVE",
"342 1110 OFFCURVE",
"342 1253 CURVE SMOOTH",
"342 1282 OFFCURVE",
"310 1293 OFFCURVE",
"277 1293 CURVE SMOOTH",
"229 1293 OFFCURVE",
"154 1278 OFFCURVE",
"146 1253 CURVE",
"146 1250 LINE SMOOTH",
"145 1129 OFFCURVE",
"163 839 OFFCURVE",
"198 380 CURVE",
"198 377 LINE",
"287 357 LINE",
"287 364 LINE"
);
},
{
closed = 1;
nodes = (
"368 157 OFFCURVE",
"311 210 OFFCURVE",
"243 210 CURVE SMOOTH",
"175 210 OFFCURVE",
"119 159 OFFCURVE",
"119 92 CURVE SMOOTH",
"119 21 OFFCURVE",
"174 -36 OFFCURVE",
"243 -36 CURVE SMOOTH",
"311 -36 OFFCURVE",
"368 19 OFFCURVE",
"368 90 CURVE SMOOTH"
);
}
);
width = 485;
},
{
layerId = "52F1D99C-0FFA-4FAD-B979-579B617E1314";
paths = (
{
closed = 1;
nodes = (
"162 1097 OFFCURVE",
"175 804 OFFCURVE",
"202 376 CURVE",
"269 361 LINE",
"304 776 OFFCURVE",
"321 1073 OFFCURVE",
"321 1254 CURVE SMOOTH",
"321 1280 OFFCURVE",
"301 1293 OFFCURVE",
"262 1293 CURVE SMOOTH",
"218 1293 OFFCURVE",
"162 1278 OFFCURVE",
"162 1254 CURVE SMOOTH"
);
},
{
closed = 1;
nodes = (
"293 -35 OFFCURVE",
"329 13 OFFCURVE",
"329 76 CURVE SMOOTH",
"329 139 OFFCURVE",
"288 184 OFFCURVE",
"237 184 CURVE SMOOTH",
"185 184 OFFCURVE",
"146 140 OFFCURVE",
"146 78 CURVE SMOOTH",
"146 16 OFFCURVE",
"181 -35 OFFCURVE",
"237 -35 CURVE SMOOTH"
);
}
);
width = 447;
},
{
layerId = "B64F7E56-5CD3-4760-9166-7FC8A47137FC";
paths = (
{
closed = 1;
nodes = (
"215 1075 OFFCURVE",
"225 780 OFFCURVE",
"244 369 CURVE",
"288 360 LINE",
"321 751 OFFCURVE",
"337 1048 OFFCURVE",
"337 1253 CURVE SMOOTH",
"337 1280 OFFCURVE",
"319 1294 OFFCURVE",
"284 1294 CURVE SMOOTH",
"245 1294 OFFCURVE",
"215 1278 OFFCURVE",
"215 1253 CURVE SMOOTH"
);
},
{
closed = 1;
nodes = (
"209 0 OFFCURVE",
"229 -33 OFFCURVE",
"268 -33 CURVE SMOOTH",
"307 -33 OFFCURVE",
"326 0 OFFCURVE",
"326 66 CURVE SMOOTH",
"326 121 OFFCURVE",
"302 159 OFFCURVE",
"267 159 CURVE SMOOTH",
"232 159 OFFCURVE",
"209 121 OFFCURVE",
"209 66 CURVE SMOOTH"
);
}
);
width = 481;
}
);
note = exclam;
unicode = 0021;
},
{
glyphname = quotedbl;
lastChange = "2016-08-10 08:02:47 +0000";
layers = (
{
layerId = "DEC179DC-8547-47B6-92D4-65C3F1BBEDD1";
paths = (
{
closed = 1;
nodes = (
"233 920 LINE",
"294 1278 LINE",
"-17 1302 LINE",
"58 894 LINE"
);
},
{
closed = 1;
nodes = (
"563 920 LINE",
"624 1278 LINE",
"313 1302 LINE",
"388 894 LINE"
);
}
);
width = 658;
},
{
layerId = "CE2484D1-EC55-40DA-BA6C-521C673DBDD6";
paths = (
{
closed = 1;
nodes = (
"499 892 LINE",
"547 1262 LINE",
"300 1282 LINE",
"365 873 LINE"
);
},
{
closed = 1;
nodes = (
"224 892 LINE",
"272 1262 LINE",
"25 1282 LINE",
"90 873 LINE"
);
}
);
width = 579;
},
{
layerId = "A76B26BC-A350-47F3-8273-F323BC23B531";
paths = (
{
closed = 1;
nodes = (
"438 903 LINE",
"474 1286 LINE",
"290 1303 LINE",
"344 892 LINE"
);
},
{
closed = 1;
nodes = (
"229 903 LINE",
"266 1286 LINE",
"82 1303 LINE",
"136 892 LINE"
);
}
);
width = 556;
},
{
layerId = "52F1D99C-0FFA-4FAD-B979-579B617E1314";
paths = (
{
closed = 1;
nodes = (
"400 899 LINE",
"436 1291 LINE",
"289 1303 LINE",
"326 891 LINE"
);
},
{
closed = 1;
nodes = (
"212 899 LINE",
"248 1291 LINE",
"103 1303 LINE",
"139 891 LINE"
);
}
);
width = 437;
},
{
layerId = "B64F7E56-5CD3-4760-9166-7FC8A47137FC";
paths = (
{
closed = 1;
nodes = (
"393 895 LINE",
"429 1296 LINE",
"319 1302 LINE",
"340 891 LINE"
);
},
{
closed = 1;
nodes = (
"227 895 LINE",
"263 1296 LINE",
"154 1302 LINE",
"175 891 LINE"
);
}
);
width = 377;
}
);
note = quotedbl;
unicode = 0022;
},
{
glyphname = numbersign;
lastChange = "2016-08-10 08:02:47 +0000";
layers = (
{
layerId = "DEC179DC-8547-47B6-92D4-65C3F1BBEDD1";
paths = (
{
closed = 1;
nodes = (
"192 -26 LINE",
"405 -19 LINE",
"448 266 LINE",
"591 266 LINE",
"547 -26 LINE",
"761 -19 LINE",
"804 266 LINE",
"1026 266 LINE",
"1080 488 LINE",
"837 488 LINE",
"861 650 LINE",
"1101 650 LINE",
"1154 872 LINE",
"895 872 LINE",
"937 1155 LINE",
"723 1146 LINE",
"682 872 LINE",
"538 872 LINE",
"581 1156 LINE",
"368 1146 LINE",
"327 872 LINE",
"127 872 LINE",
"72 650 LINE",
"294 650 LINE",
"269 488 LINE",
"55 488 LINE",
"0 266 LINE",
"236 266 LINE"
);
},
{
closed = 1;
nodes = (
"505 650 LINE",
"649 650 LINE",
"624 488 LINE",
"481 488 LINE"
);
}
);
width = 1154;
},
{
layerId = "CE2484D1-EC55-40DA-BA6C-521C673DBDD6";
paths = (
{
closed = 1;
nodes = (
"187 -26 LINE",
"352 -19 LINE",
"399 296 LINE",
"565 296 LINE",
"517 -26 LINE",
"682 -19 LINE",
"729 296 LINE",
"956 296 LINE",
"998 470 LINE",
"756 470 LINE",
"787 680 LINE",
"1031 680 LINE",
"1073 854 LINE",
"814 854 LINE",
"859 1156 LINE",
"693 1148 LINE",
"649 854 LINE",
"483 854 LINE",
"528 1158 LINE",
"364 1148 LINE",
"320 854 LINE",
"105 854 LINE",
"60 680 LINE",
"293 680 LINE",
"262 470 LINE",
"33 470 LINE",
"-11 296 LINE",
"236 296 LINE"
);
},
{
closed = 1;
nodes = (
"457 680 LINE",
"623 680 LINE",
"591 470 LINE",
"425 470 LINE"
);
}
);
width = 1033;
},
{
layerId = "A76B26BC-A350-47F3-8273-F323BC23B531";
paths = (
{
closed = 1;
nodes = (
"512 170 LINE",
"618 178 LINE",
"641 364 LINE",
"796 364 LINE",
"819 464 LINE",
"659 464 LINE",
"690 675 LINE",
"852 675 LINE",
"875 776 LINE",
"707 776 LINE",
"734 960 LINE",
"632 952 LINE",
"605 776 LINE",
"400 776 LINE",
"429 961 LINE",
"327 952 LINE",
"297 776 LINE",
"142 776 LINE",
"119 675 LINE",
"280 675 LINE",
"249 464 LINE",
"87 464 LINE",
"63 364 LINE",
"231 364 LINE",
"205 170 LINE",
"310 178 LINE",
"336 364 LINE",
"539 364 LINE"
);
},
{
closed = 1;
nodes = (
"588 675 LINE",
"555 464 LINE",
"352 464 LINE",
"383 675 LINE"
);
}
);
width = 939;
},
{
layerId = "52F1D99C-0FFA-4FAD-B979-579B617E1314";
paths = (
{
closed = 1;
nodes = (
"879 326 LINE",
"905 427 LINE",
"660 427 LINE",
"702 712 LINE",
"954 712 LINE",
"979 813 LINE",
"717 813 LINE",
"769 1159 LINE",
"676 1150 LINE",
"625 813 LINE",
"400 813 LINE",
"452 1160 LINE",
"359 1150 LINE",
"308 813 LINE",
"69 813 LINE",
"41 712 LINE",
"293 712 LINE",
"250 427 LINE",
"-3 427 LINE",
"-30 326 LINE",
"235 326 LINE",
"182 -26 LINE",
"275 -19 LINE",
"327 326 LINE",
"552 326 LINE",
"499 -26 LINE",
"593 -19 LINE",
"645 326 LINE"
);
},
{
closed = 1;
nodes = (
"385 712 LINE",
"610 712 LINE",
"567 427 LINE",
"342 427 LINE"
);
}
);
width = 914;
},
{
layerId = "B64F7E56-5CD3-4760-9166-7FC8A47137FC";
paths = (
{
closed = 1;
nodes = (
"871 326 LINE",
"892 403 LINE",
"644 403 LINE",
"690 712 LINE",
"947 712 LINE",
"966 789 LINE",
"702 789 LINE",
"757 1160 LINE",
"689 1151 LINE",
"635 789 LINE",
"371 789 LINE",
"427 1161 LINE",
"359 1151 LINE",
"305 789 LINE",
"55 789 LINE",
"33 712 LINE",
"293 712 LINE",
"247 403 LINE",
"-17 403 LINE",
"-38 326 LINE",
"236 326 LINE",
"183 -26 LINE",
"250 -19 LINE",
"302 326 LINE",
"565 326 LINE",
"512 -26 LINE",
"581 -19 LINE",
"633 326 LINE"
);
},
{
closed = 1;
nodes = (
"360 712 LINE",
"623 712 LINE",
"577 403 LINE",
"313 403 LINE"
);
}
);
width = 914;
}
);
note = numbersign;
unicode = 0023;
},
{
glyphname = dollar;
lastChange = "2016-08-10 08:02:47 +0000";
layers = (
{
layerId = "DEC179DC-8547-47B6-92D4-65C3F1BBEDD1";
paths = (
{
closed = 1;
nodes = (
"47 77 OFFCURVE",
"169 18 OFFCURVE",
"292 -9 CURVE",
"259 -183 LINE",
"545 -158 LINE",
"543 -9 LINE",
"644 12 OFFCURVE",
"733 53 OFFCURVE",
"808 114 CURVE SMOOTH",
"888 178 OFFCURVE",
"939 280 OFFCURVE",
"939 391 CURVE SMOOTH",
"939 446 OFFCURVE",
"925 499 OFFCURVE",
"897 549 CURVE SMOOTH",
"861 613 OFFCURVE",
"768 681 OFFCURVE",
"768 681 CURVE",
"728 710 OFFCURVE",
"535 811 OFFCURVE",
"535 811 CURVE",
"557 1090 LINE",
"584 1083 OFFCURVE",
"603 1075 OFFCURVE",
"612 1068 CURVE",
"651 865 LINE",
"824 835 LINE",
"852 1187 LINE",
"782 1219 OFFCURVE",
"717 1241 OFFCURVE",
"656 1253 CURVE",
"697 1425 LINE",
"409 1390 LINE",
"419 1259 LINE",
"184 1228 OFFCURVE",
"26 1094 OFFCURVE",
"26 862 CURVE SMOOTH",
"26 809 OFFCURVE",
"41 756 OFFCURVE",
"71 704 CURVE SMOOTH",
"83 683 OFFCURVE",
"101 661 OFFCURVE",
"124 639 CURVE SMOOTH",
"171 594 OFFCURVE",
"208 558 OFFCURVE",
"331 494 CURVE SMOOTH",
"381 468 OFFCURVE",
"406 455 OFFCURVE",
"406 455 CURVE",
"382 145 LINE",
"334 157 OFFCURVE",
"298 179 OFFCURVE",
"273 212 CURVE",
"211 439 LINE",
"34 468 LINE",
"0 136 LINE"
);
},
{
closed = 1;
nodes = (
"384 905 OFFCURVE",
"349 954 OFFCURVE",
"349 1007 CURVE SMOOTH",
"349 1074 OFFCURVE",
"397 1105 OFFCURVE",
"436 1105 CURVE SMOOTH",
"455 1105 OFFCURVE",
"468 1105 OFFCURVE",
"473 1104 CURVE",
"453 859 LINE"
);
},
{
closed = 1;
nodes = (
"569 368 OFFCURVE",
"609 325 OFFCURVE",
"609 284 CURVE SMOOTH",
"609 201 OFFCURVE",
"550 148 OFFCURVE",
"467 139 CURVE",
"488 412 LINE"
);
}
);
width = 939;
},
{
layerId = "CE2484D1-EC55-40DA-BA6C-521C673DBDD6";
paths = (
{
closed = 1;
nodes = (
"86 62 OFFCURVE",
"211 1 OFFCURVE",
"334 -18 CURVE",
"313 -181 LINE",
"542 -161 LINE",
"536 -9 LINE",
"630 12 OFFCURVE",
"711 54 OFFCURVE",
"780 116 CURVE SMOOTH",
"849 179 OFFCURVE",
"893 274 OFFCURVE",
"893 368 CURVE SMOOTH",
"893 415 OFFCURVE",
"885 457 OFFCURVE",
"870 495 CURVE SMOOTH",
"857 528 OFFCURVE",
"833 559 OFFCURVE",
"794 603 CURVE SMOOTH",
"774 625 OFFCURVE",
"731 655 OFFCURVE",
"666 694 CURVE SMOOTH",
"597 734 OFFCURVE",
"607 728 OFFCURVE",
"560 752 CURVE SMOOTH",
"536 764 OFFCURVE",
"519 773 OFFCURVE",
"508 779 CURVE",
"521 1132 LINE",
"568 1117 OFFCURVE",
"599 1100 OFFCURVE",
"614 1079 CURVE",
"646 882 LINE",
"782 861 LINE",
"806 1178 LINE",
"736 1222 OFFCURVE",
"664 1250 OFFCURVE",
"590 1261 CURVE",
"616 1417 LINE",
"390 1392 LINE",
"401 1260 LINE",
"200 1225 OFFCURVE",
"58 1095 OFFCURVE",
"58 890 CURVE SMOOTH",
"58 685 OFFCURVE",
"212 601 OFFCURVE",
"412 496 CURVE",
"398 110 LINE",
"331 121 OFFCURVE",
"280 151 OFFCURVE",
"246 200 CURVE",
"196 407 LINE",
"56 428 LINE",
"33 129 LINE"
);
},
{
closed = 1;
nodes = (
"352 874 OFFCURVE",
"306 925 OFFCURVE",
"306 1010 CURVE SMOOTH",
"306 1094 OFFCURVE",
"365 1145 OFFCURVE",
"448 1145 CURVE",
"435 821 LINE"
);
},
{
closed = 1;
nodes = (
"585 399 OFFCURVE",
"636 357 OFFCURVE",
"636 275 CURVE SMOOTH",
"636 193 OFFCURVE",
"567 127 OFFCURVE",
"476 111 CURVE",
"489 454 LINE"
);
}
);
width = 899;
},
{
layerId = "A76B26BC-A350-47F3-8273-F323BC23B531";
paths = (
{
closed = 1;
nodes = (
"582 438 OFFCURVE",
"642 376 OFFCURVE",
"642 287 CURVE SMOOTH",
"642 176 OFFCURVE",
"569 108 OFFCURVE",
"470 85 CURVE",
"470 503 LINE"
);
},
{
closed = 1;
nodes = (
"293 844 OFFCURVE",
"241 907 OFFCURVE",
"241 996 CURVE SMOOTH",
"241 1104 OFFCURVE",
"298 1165 OFFCURVE",
"385 1181 CURVE",
"385 785 LINE"
);
},
{
closed = 1;
nodes = (
"669 1229 OFFCURVE",
"585 1262 OFFCURVE",
"490 1269 CURVE",
"490 1411 LINE",
"365 1395 LINE",
"365 1261 LINE",
"196 1225 OFFCURVE",
"69 1099 OFFCURVE",
"69 916 CURVE SMOOTH",
"69 889 OFFCURVE",
"73 864 OFFCURVE",
"80 840 CURVE SMOOTH",
"94 791 OFFCURVE",
"109 756 OFFCURVE",
"145 717 CURVE SMOOTH",
"181 678 OFFCURVE",
"203 658 OFFCURVE",
"254 626 CURVE SMOOTH",
"305 593 OFFCURVE",
"327 581 OFFCURVE",
"382 552 CURVE",
"382 78 LINE",
"302 85 OFFCURVE",
"233 131 OFFCURVE",
"198 187 CURVE",
"160 375 LINE",
"58 390 LINE",
"44 123 LINE",
"108 43 OFFCURVE",
"230 -17 OFFCURVE",
"359 -24 CURVE",
"359 -180 LINE",
"491 -164 LINE",
"491 -13 LINE",
"683 27 OFFCURVE",
"826 169 OFFCURVE",
"826 354 CURVE SMOOTH",
"826 395 OFFCURVE",
"816 436 OFFCURVE",
"805 468 CURVE",
"793 499 OFFCURVE",
"766 535 OFFCURVE",
"748 557 CURVE SMOOTH",
"730 579 OFFCURVE",
"685 611 OFFCURVE",
"665 627 CURVE",
"644 642 OFFCURVE",
"588 674 OFFCURVE",
"568 685 CURVE SMOOTH",
"547 696 OFFCURVE",
"483 730 OFFCURVE",
"466 739 CURVE",
"466 1179 LINE",
"523 1166 OFFCURVE",
"577 1123 OFFCURVE",
"593 1090 CURVE",
"619 898 LINE",
"718 887 LINE",
"740 1170 LINE"
);
}
);
width = 863;
},
{
layerId = "52F1D99C-0FFA-4FAD-B979-579B617E1314";
paths = (
{
closed = 1;
nodes = (
"144 40 OFFCURVE",
"263 -20 OFFCURVE",
"392 -25 CURVE",
"382 -179 LINE",
"527 -164 LINE",
"516 -15 LINE",
"705 22 OFFCURVE",
"837 156 OFFCURVE",
"837 331 CURVE SMOOTH",
"837 402 OFFCURVE",
"819 454 OFFCURVE",
"756 531 CURVE SMOOTH",
"724 570 OFFCURVE",
"649 623 OFFCURVE",
"531 692 CURVE SMOOTH",
"508 705 OFFCURVE",
"491 715 OFFCURVE",
"482 721 CURVE",
"482 1197 LINE",
"549 1185 OFFCURVE",
"614 1141 OFFCURVE",
"638 1096 CURVE",
"664 878 LINE",
"737 869 LINE",
"764 1165 LINE",
"701 1227 OFFCURVE",
"616 1262 OFFCURVE",
"511 1269 CURVE",
"524 1411 LINE",
"387 1395 LINE",
"398 1262 LINE",
"238 1231 OFFCURVE",
"116 1105 OFFCURVE",
"116 956 CURVE SMOOTH",
"116 881 OFFCURVE",
"132 821 OFFCURVE",
"163 776 CURVE SMOOTH",
"179 753 OFFCURVE",
"198 730 OFFCURVE",
"220 706 CURVE SMOOTH",
"242 681 OFFCURVE",
"284 649 OFFCURVE",
"346 610 CURVE SMOOTH",
"397 579 OFFCURVE",
"422 564 OFFCURVE",
"422 564 CURVE",
"422 58 LINE",
"330 67 OFFCURVE",
"247 116 OFFCURVE",
"210 181 CURVE",
"177 384 LINE",
"102 395 LINE",
"80 119 LINE"
);
},
{
closed = 1;
nodes = (
"315 828 OFFCURVE",
"252 898 OFFCURVE",
"252 1007 CURVE SMOOTH",
"252 1116 OFFCURVE",
"325 1191 OFFCURVE",
"426 1199 CURVE",
"426 756 LINE"
);
},
{
closed = 1;
nodes = (
"516 507 OFFCURVE",
"543 489 OFFCURVE",
"564 473 CURVE SMOOTH",
"648 411 OFFCURVE",
"690 347 OFFCURVE",
"690 280 CURVE SMOOTH",
"690 147 OFFCURVE",
"599 72 OFFCURVE",
"484 59 CURVE",
"484 527 LINE"
);
}
);
width = 860;
},
{
layerId = "B64F7E56-5CD3-4760-9166-7FC8A47137FC";
paths = (
{
closed = 1;
nodes = (
"404 1396 LINE",
"413 1265 LINE",
"264 1238 OFFCURVE",
"143 1118 OFFCURVE",
"143 973 CURVE SMOOTH",
"143 828 OFFCURVE",
"216 739 OFFCURVE",
"341 651 CURVE SMOOTH",
"426 594 LINE",
"426 54 LINE",
"421 41 LINE",
"324 54 OFFCURVE",
"237 103 OFFCURVE",
"200 174 CURVE",
"172 393 LINE",
"124 401 LINE",
"94 116 LINE",
"158 36 OFFCURVE",
"275 -21 OFFCURVE",
"406 -26 CURVE",
"396 -179 LINE",
"514 -164 LINE",
"503 -21 LINE",
"702 7 OFFCURVE",
"826 142 OFFCURVE",
"826 293 CURVE SMOOTH",
"826 368 OFFCURVE",
"799 436 OFFCURVE",
"746 495 CURVE SMOOTH",
"721 524 OFFCURVE",
"692 550 OFFCURVE",
"660 573 CURVE SMOOTH",
"604 613 LINE",
"480 694 LINE",
"480 1205 LINE",
"483 1211 LINE",
"558 1200 OFFCURVE",
"630 1157 OFFCURVE",
"661 1101 CURVE",
"688 858 LINE",
"734 851 LINE",
"767 1161 LINE",
"707 1228 OFFCURVE",
"618 1264 OFFCURVE",
"500 1270 CURVE",
"513 1411 LINE"
);
},
{
closed = 1;
nodes = (
"310 815 OFFCURVE",
"241 894 OFFCURVE",
"241 1009 CURVE SMOOTH",
"241 1124 OFFCURVE",
"321 1204 OFFCURVE",
"429 1213 CURVE",
"431 1208 LINE",
"431 728 LINE"
);
},
{
closed = 1;
nodes = (
"623 465 OFFCURVE",
"716 389 OFFCURVE",
"716 258 CURVE SMOOTH",
"716 127 OFFCURVE",
"618 44 OFFCURVE",
"491 37 CURVE",
"482 54 LINE",
"482 557 LINE"
);
}
);
width = 860;
}
);
note = dollar;
unicode = 0024;
},
{
glyphname = percent;
lastChange = "2016-08-10 08:02:47 +0000";
layers = (
{
layerId = "DEC179DC-8547-47B6-92D4-65C3F1BBEDD1";
paths = (
{
closed = 1;
nodes = (
"1299 204 OFFCURVE",
"1295 158 OFFCURVE",
"1288 130 CURVE SMOOTH",
"1280 101 OFFCURVE",
"1263 87 OFFCURVE",
"1238 87 CURVE SMOOTH",
"1187 87 OFFCURVE",
"1183 150 OFFCURVE",
"1180 188 CURVE SMOOTH",
"1179 207 OFFCURVE",
"1178 241 OFFCURVE",
"1178 291 CURVE SMOOTH",
"1178 341 OFFCURVE",
"1183 384 OFFCURVE",
"1192 420 CURVE SMOOTH",
"1201 456 OFFCURVE",
"1218 474 OFFCURVE",
"1243 474 CURVE SMOOTH",
"1280 474 OFFCURVE",
"1299 406 OFFCURVE",
"1299 269 CURVE SMOOTH"
);
},
{
closed = 1;
nodes = (
"868 89 OFFCURVE",
"1028 -36 OFFCURVE",
"1245 -36 CURVE SMOOTH",
"1299 -36 OFFCURVE",
"1353 -22 OFFCURVE",
"1407 5 CURVE SMOOTH",
"1514 60 OFFCURVE",
"1595 165 OFFCURVE",
"1595 273 CURVE SMOOTH",
"1595 448 OFFCURVE",
"1430 589 OFFCURVE",
"1243 589 CURVE SMOOTH",
"1186 589 OFFCURVE",
"1129 575 OFFCURVE",
"1072 547 CURVE SMOOTH",
"956 491 OFFCURVE",
"868 384 OFFCURVE",
"868 276 CURVE SMOOTH"
);
},
{
closed = 1;
nodes = (
"368 1207 OFFCURVE",
"361 1208 OFFCURVE",
"355 1208 CURVE SMOOTH",
"298 1208 OFFCURVE",
"242 1192 OFFCURVE",
"186 1159 CURVE SMOOTH",
"74 1093 OFFCURVE",
"0 985 OFFCURVE",
"0 896 CURVE SMOOTH",
"0 797 OFFCURVE",
"34 720 OFFCURVE",
"101 663 CURVE SMOOTH",
"236 549 OFFCURVE",
"426 565 OFFCURVE",
"534 621 CURVE SMOOTH",
"642 676 OFFCURVE",
"722 783 OFFCURVE",
"722 896 CURVE SMOOTH",
"722 981 OFFCURVE",
"687 1051 OFFCURVE",
"617 1105 CURVE",
"1107 1124 LINE",
"637 588 LINE",
"80 35 LINE",
"448 -19 LINE",
"941 591 LINE",
"1482 1130 LINE",
"1482 1205 LINE",
"1180 1207 LINE",
"421 1208 LINE",
"427 1139 OFFCURVE",
"430 1053 OFFCURVE",
"430 951 CURVE SMOOTH",
"430 848 OFFCURVE",
"426 780 OFFCURVE",
"417 746 CURVE SMOOTH",
"408 712 OFFCURVE",
"392 695 OFFCURVE",
"369 695 CURVE SMOOTH",
"354 695 OFFCURVE",
"341 699 OFFCURVE",
"332 708 CURVE",
"315 723 OFFCURVE",
"306 784 OFFCURVE",
"306 891 CURVE SMOOTH",
"306 896 LINE SMOOTH",
"306 1025 OFFCURVE",
"326 1090 OFFCURVE",
"367 1090 CURVE",
"387 1087 LINE",
"377 1206 LINE"
);
}
);
width = 1595;
},
{
layerId = "CE2484D1-EC55-40DA-BA6C-521C673DBDD6";
paths = (
{
closed = 1;
nodes = (
"1107 504 OFFCURVE",
"1127 482 OFFCURVE",
"1140 438 CURVE SMOOTH",
"1153 394 OFFCURVE",
"1160 339 OFFCURVE",
"1160 274 CURVE SMOOTH",
"1160 131 OFFCURVE",
"1134 60 OFFCURVE",
"1082 60 CURVE SMOOTH",
"1024 60 OFFCURVE",
"995 134 OFFCURVE",
"995 282 CURVE SMOOTH",
"995 430 OFFCURVE",
"1023 504 OFFCURVE",
"1080 504 CURVE SMOOTH"
);
},
{
closed = 1;
nodes = (
"1231 -36 OFFCURVE",
"1388 110 OFFCURVE",
"1388 279 CURVE SMOOTH",
"1388 448 OFFCURVE",
"1244 590 OFFCURVE",
"1085 590 CURVE SMOOTH",
"926 590 OFFCURVE",
"758 441 OFFCURVE",
"758 268 CURVE SMOOTH",
"758 95 OFFCURVE",
"910 -36 OFFCURVE",
"1071 -36 CURVE SMOOTH"
);
},
{
closed = 1;
nodes = (
"812 591 LINE",
"1284 1154 LINE",
"1284 1206 LINE",
"1050 1208 LINE",
"392 1203 LINE",
"408 1123 OFFCURVE",
"416 1015 OFFCURVE",
"416 878 CURVE SMOOTH",
"416 741 OFFCURVE",
"388 672 OFFCURVE",
"333 672 CURVE SMOOTH",
"278 672 OFFCURVE",
"250 747 OFFCURVE",
"250 897 CURVE SMOOTH",
"250 1047 OFFCURVE",
"277 1122 OFFCURVE",
"331 1122 CURVE SMOOTH",
"337 1122 OFFCURVE",
"348 1119 OFFCURVE",
"364 1114 CURVE",
"354 1207 LINE",
"344 1209 OFFCURVE",
"335 1210 OFFCURVE",
"328 1210 CURVE SMOOTH",
"279 1210 OFFCURVE",
"231 1195 OFFCURVE",
"182 1164 CURVE SMOOTH",
"84 1103 OFFCURVE",
"14 996 OFFCURVE",
"14 897 CURVE SMOOTH",
"14 706 OFFCURVE",
"153 580 OFFCURVE",
"333 580 CURVE SMOOTH",
"380 580 OFFCURVE",
"428 594 OFFCURVE",
"476 622 CURVE SMOOTH",
"572 678 OFFCURVE",
"644 792 OFFCURVE",
"644 881 CURVE SMOOTH",
"644 970 OFFCURVE",
"617 1066 OFFCURVE",
"554 1121 CURVE",
"987 1124 LINE",
"584 588 LINE",
"102 12 LINE",
"380 -26 LINE"
);
}
);
width = 1665;
},
{
layerId = "A76B26BC-A350-47F3-8273-F323BC23B531";
paths = (
{
closed = 1;
nodes = (
"748 324 OFFCURVE",
"785 381 OFFCURVE",
"859 382 CURVE SMOOTH",
"931 382 OFFCURVE",
"968 313 OFFCURVE",
"968 213 CURVE SMOOTH",
"968 102 OFFCURVE",
"932 46 OFFCURVE",
"860 46 CURVE SMOOTH",
"789 46 OFFCURVE",
"748 115 OFFCURVE",
"748 211 CURVE SMOOTH"
);
},
{
closed = 1;
nodes = (
"1093 355 OFFCURVE",
"998 462 OFFCURVE",
"859 462 CURVE SMOOTH",
"736 462 OFFCURVE",
"623 345 OFFCURVE",
"623 213 CURVE SMOOTH",
"623 68 OFFCURVE",
"728 -35 OFFCURVE",
"860 -35 CURVE SMOOTH",
"980 -35 OFFCURVE",
"1093 80 OFFCURVE",
"1093 211 CURVE SMOOTH"
);
},
{
closed = 1;
nodes = (
"174 834 OFFCURVE",
"211 891 OFFCURVE",
"284 892 CURVE SMOOTH",
"356 892 OFFCURVE",
"393 823 OFFCURVE",
"393 723 CURVE SMOOTH",
"393 613 OFFCURVE",
"357 558 OFFCURVE",
"285 558 CURVE SMOOTH",
"214 558 OFFCURVE",
"174 625 OFFCURVE",
"174 721 CURVE SMOOTH"
);
},
{
closed = 1;
nodes = (
"518 867 OFFCURVE",
"424 973 OFFCURVE",
"284 973 CURVE SMOOTH",
"161 973 OFFCURVE",
"49 857 OFFCURVE",
"49 725 CURVE SMOOTH",
"49 577 OFFCURVE",
"153 475 OFFCURVE",
"285 475 CURVE SMOOTH",
"405 475 OFFCURVE",
"518 591 OFFCURVE",
"518 723 CURVE SMOOTH"
);
},
{
closed = 1;
nodes = (
"299 -38 LINE",
"955 968 LINE",
"842 976 LINE",
"178 -28 LINE"
);
}
);
width = 1142;
},
{
layerId = "52F1D99C-0FFA-4FAD-B979-579B617E1314";
paths = (
{
closed = 1;
nodes = (
"803 487 OFFCURVE",
"839 546 OFFCURVE",
"894 546 CURVE SMOOTH",
"929 546 OFFCURVE",
"958 518 OFFCURVE",
"980 463 CURVE SMOOTH",
"1001 407 OFFCURVE",
"1012 338 OFFCURVE",
"1012 257 CURVE SMOOTH",
"1012 175 OFFCURVE",
"996 109 OFFCURVE",
"963 58 CURVE SMOOTH",
"945 30 OFFCURVE",
"923 16 OFFCURVE",
"898 16 CURVE SMOOTH",
"873 16 OFFCURVE",
"851 30 OFFCURVE",
"833 58 CURVE SMOOTH",
"797 113 OFFCURVE",
"781 197 OFFCURVE",
"781 269 CURVE SMOOTH",
"781 305 OFFCURVE",
"783 338 OFFCURVE",
"787 368 CURVE SMOOTH"
);
},
{
closed = 1;
nodes = (
"1019 -36 OFFCURVE",
"1138 107 OFFCURVE",
"1138 280 CURVE SMOOTH",
"1138 452 OFFCURVE",
"1033 591 OFFCURVE",
"901 591 CURVE SMOOTH",
"768 591 OFFCURVE",
"652 446 OFFCURVE",
"652 271 CURVE SMOOTH",
"652 95 OFFCURVE",
"765 -36 OFFCURVE",
"892 -36 CURVE SMOOTH"
);
},
{
closed = 1;
nodes = (
"657 591 LINE",
"1023 1191 LINE",
"1025 1207 LINE",
"895 1211 LINE",
"368 1196 LINE",
"399 1121 OFFCURVE",
"414 1028 OFFCURVE",
"414 918 CURVE SMOOTH",
"414 808 OFFCURVE",
"397 728 OFFCURVE",
"364 678 CURVE SMOOTH",
"346 651 OFFCURVE",
"324 637 OFFCURVE",
"297 637 CURVE SMOOTH",
"228 637 OFFCURVE",
"184 768 OFFCURVE",
"184 896 CURVE SMOOTH",
"184 1024 OFFCURVE",
"213 1109 OFFCURVE",
"243 1143 CURVE SMOOTH",
"258 1160 OFFCURVE",
"273 1168 OFFCURVE",
"290 1168 CURVE SMOOTH",
"306 1168 OFFCURVE",
"321 1163 OFFCURVE",
"334 1153 CURVE",
"334 1209 LINE",
"326 1212 OFFCURVE",
"314 1213 OFFCURVE",
"298 1213 CURVE SMOOTH",
"174 1213 OFFCURVE",
"56 1068 OFFCURVE",
"56 892 CURVE SMOOTH",
"56 715 OFFCURVE",
"166 584 OFFCURVE",
"293 584 CURVE SMOOTH",
"420 584 OFFCURVE",
"542 731 OFFCURVE",
"542 899 CURVE SMOOTH",
"542 964 OFFCURVE",
"515 1109 OFFCURVE",
"479 1150 CURVE",
"856 1143 LINE",
"540 588 LINE",
"164 -26 LINE",
"310 -40 LINE"
);
}
);
width = 1738;
},
{
layerId = "B64F7E56-5CD3-4760-9166-7FC8A47137FC";
paths = (
{
closed = 1;
nodes = (
"820 543 OFFCURVE",
"842 559 OFFCURVE",
"867 559 CURVE SMOOTH",
"892 559 OFFCURVE",
"915 544 OFFCURVE",
"936 514 CURVE SMOOTH",
"980 451 OFFCURVE",
"1002 372 OFFCURVE",
"1002 277 CURVE SMOOTH",
"1002 182 OFFCURVE",
"982 105 OFFCURVE",
"942 46 CURVE SMOOTH",
"922 15 OFFCURVE",
"900 0 OFFCURVE",
"875 0 CURVE SMOOTH",
"850 0 OFFCURVE",
"827 15 OFFCURVE",
"808 46 CURVE",
"768 106 OFFCURVE",
"749 196 OFFCURVE",
"749 279 CURVE SMOOTH",
"749 362 OFFCURVE",
"763 448 OFFCURVE",
"801 512 CURVE SMOOTH"
);
},
{
closed = 1;
nodes = (
"992 -36 OFFCURVE",
"1094 103 OFFCURVE",
"1094 280 CURVE SMOOTH",
"1094 456 OFFCURVE",
"1006 591 OFFCURVE",
"876 591 CURVE SMOOTH",
"746 591 OFFCURVE",
"656 452 OFFCURVE",
"656 272 CURVE SMOOTH",
"656 91 OFFCURVE",
"745 -36 OFFCURVE",
"869 -36 CURVE SMOOTH"
);
},
{
closed = 1;
nodes = (
"333 1212 OFFCURVE",
"319 1213 OFFCURVE",
"294 1213 CURVE SMOOTH",
"173 1213 OFFCURVE",
"82 1075 OFFCURVE",
"82 893 CURVE SMOOTH",
"82 711 OFFCURVE",
"169 586 OFFCURVE",
"293 586 CURVE SMOOTH",
"416 586 OFFCURVE",
"517 728 OFFCURVE",
"517 899 CURVE SMOOTH",
"517 963 OFFCURVE",
"492 1124 OFFCURVE",
"467 1163 CURVE",
"842 1163 LINE",
"551 588 LINE",
"205 -43 LINE",
"306 -47 LINE",
"630 591 LINE",
"964 1207 LINE",
"867 1212 LINE",
"371 1194 LINE",
"408 1117 OFFCURVE",
"426 1024 OFFCURVE",
"426 917 CURVE SMOOTH",
"426 809 OFFCURVE",
"406 726 OFFCURVE",
"366 669 CURVE SMOOTH",
"346 640 OFFCURVE",
"323 625 OFFCURVE",
"298 625 CURVE SMOOTH",
"273 625 OFFCURVE",
"250 640 OFFCURVE",
"231 670 CURVE SMOOTH",
"192 730 OFFCURVE",
"172 808 OFFCURVE",
"172 903 CURVE SMOOTH",
"172 998 OFFCURVE",
"190 1075 OFFCURVE",
"225 1134 CURVE SMOOTH",
"244 1166 OFFCURVE",
"267 1182 OFFCURVE",
"294 1182 CURVE SMOOTH",
"304 1182 LINE SMOOTH",
"308 1182 OFFCURVE",
"316 1176 OFFCURVE",
"329 1163 CURVE",
"337 1210 LINE"
);
}
);
width = 1739;
}
);
note = percent;
unicode = 0025;
},
{
glyphname = ampersand;
lastChange = "2016-08-10 08:02:47 +0000";
layers = (
{
layerId = "DEC179DC-8547-47B6-92D4-65C3F1BBEDD1";
paths = (
{
closed = 1;
nodes = (
"460 1073 OFFCURVE",
"489 1102 OFFCURVE",
"530 1102 CURVE SMOOTH",
"570 1102 OFFCURVE",
"611 1058 OFFCURVE",
"611 969 CURVE SMOOTH",
"611 924 OFFCURVE",
"599 883 OFFCURVE",
"574 846 CURVE",
"498 925 OFFCURVE",
"460 986 OFFCURVE",
"460 1029 CURVE SMOOTH"
);
},
{
closed = 1;
nodes = (
"651 293 LINE",
"602 234 OFFCURVE",
"553 204 OFFCURVE",
"504 204 CURVE SMOOTH",
"404 204 OFFCURVE",
"332 286 OFFCURVE",
"332 399 CURVE SMOOTH",
"332 456 OFFCURVE",
"359 506 OFFCURVE",
"413 550 CURVE",
"422 546 LINE"
);
},
{
closed = 1;
nodes = (
"99 38 OFFCURVE",
"127 20 OFFCURVE",
"161 7 CURVE SMOOTH",
"228 -21 OFFCURVE",
"286 -29 OFFCURVE",
"403 -29 CURVE SMOOTH",
"519 -29 OFFCURVE",
"678 38 OFFCURVE",
"777 157 CURVE",
"811 120 LINE SMOOTH",
"896 28 OFFCURVE",
"1001 -18 OFFCURVE",
"1124 -18 CURVE SMOOTH",
"1175 -18 OFFCURVE",
"1276 -3 OFFCURVE",
"1305 6 CURVE",
"1335 141 LINE",
"1289 162 LINE SMOOTH",
"1222 193 OFFCURVE",
"1118 282 OFFCURVE",
"977 429 CURVE",
"1190 722 LINE",
"1364 780 LINE",
"1386 940 LINE",
"921 940 LINE",
"897 780 LINE",
"978 741 LINE",
"848 563 LINE",
"702 715 LINE",
"702 731 LINE",
"803 803 OFFCURVE",
"857 882 OFFCURVE",
"857 1032 CURVE SMOOTH",
"857 1182 OFFCURVE",
"739 1273 OFFCURVE",
"566 1273 CURVE SMOOTH",
"479 1273 OFFCURVE",
"396 1244 OFFCURVE",
"316 1186 CURVE SMOOTH",
"241 1130 OFFCURVE",
"191 1037 OFFCURVE",
"191 941 CURVE SMOOTH",
"191 844 OFFCURVE",
"233 733 OFFCURVE",
"309 664 CURVE",
"254 636 OFFCURVE",
"204 608 OFFCURVE",
"161 580 CURVE SMOOTH",
"108 544 OFFCURVE",
"79 509 OFFCURVE",
"47 461 CURVE SMOOTH",
"15 412 OFFCURVE",
"0 354 OFFCURVE",
"0 270 CURVE SMOOTH",
"0 185 OFFCURVE",
"31 105 OFFCURVE",
"76 61 CURVE SMOOTH"
);
}
);
width = 1386;
},
{
layerId = "CE2484D1-EC55-40DA-BA6C-521C673DBDD6";
paths = (
{
closed = 1;
nodes = (
"570 1145 OFFCURVE",
"614 1078 OFFCURVE",
"614 989 CURVE SMOOTH",
"614 900 OFFCURVE",
"587 859 OFFCURVE",
"531 810 CURVE",
"463 871 OFFCURVE",
"399 957 OFFCURVE",
"399 1025 CURVE SMOOTH",
"399 1092 OFFCURVE",
"440 1145 OFFCURVE",
"505 1145 CURVE SMOOTH"
);
},
{
closed = 1;
nodes = (
"668 288 LINE",
"609 199 OFFCURVE",
"538 154 OFFCURVE",
"454 154 CURVE SMOOTH",
"357 154 OFFCURVE",
"276 257 OFFCURVE",
"276 401 CURVE SMOOTH",
"276 473 OFFCURVE",
"312 536 OFFCURVE",
"384 591 CURVE",
"397 588 LINE"
);
},
{
closed = 1;
nodes = (
"822 1186 OFFCURVE",
"709 1272 OFFCURVE",
"533 1272 CURVE SMOOTH",
"357 1272 OFFCURVE",
"184 1133 OFFCURVE",
"184 954 CURVE SMOOTH",
"184 858 OFFCURVE",
"236 748 OFFCURVE",
"309 683 CURVE",
"120 582 OFFCURVE",
"16 471 OFFCURVE",
"16 296 CURVE SMOOTH",
"16 73 OFFCURVE",
"168 -24 OFFCURVE",
"380 -24 CURVE SMOOTH",
"532 -24 OFFCURVE",
"661 46 OFFCURVE",
"767 187 CURVE",
"828 124 LINE SMOOTH",
"917 29 OFFCURVE",
"1012 -18 OFFCURVE",
"1112 -18 CURVE SMOOTH",
"1167 -18 OFFCURVE",
"1217 -11 OFFCURVE",
"1262 3 CURVE",
"1285 106 LINE",
"1246 120 LINE",
"1182 146 OFFCURVE",
"1073 241 OFFCURVE",
"918 405 CURVE",
"1132 722 LINE",
"1304 770 LINE",
"1320 888 LINE",
"872 888 LINE",
"855 770 LINE",
"971 730 LINE",
"818 506 LINE",
"629 710 LINE",
"629 724 LINE",
"758 807 OFFCURVE",
"822 905 OFFCURVE",
"822 1018 CURVE SMOOTH"
);
}
);
width = 1333;
},
{
layerId = "A76B26BC-A350-47F3-8273-F323BC23B531";
paths = (
{
closed = 1;
nodes = (
"402 830 OFFCURVE",
"324 935 OFFCURVE",
"324 1024 CURVE SMOOTH",
"324 1107 OFFCURVE",
"375 1188 OFFCURVE",
"459 1188 CURVE SMOOTH",
"556 1188 OFFCURVE",
"601 1109 OFFCURVE",
"601 988 CURVE SMOOTH",
"601 891 OFFCURVE",
"570 838 OFFCURVE",
"474 773 CURVE"
);
},
{
closed = 1;
nodes = (
"658 257 OFFCURVE",
"638 231 OFFCURVE",
"591 182 CURVE SMOOTH",
"548 135 OFFCURVE",
"481 106 OFFCURVE",
"424 106 CURVE SMOOTH",
"373 106 OFFCURVE",
"332 120 OFFCURVE",
"300 149 CURVE SMOOTH",
"232 210 OFFCURVE",
"206 292 OFFCURVE",
"206 393 CURVE SMOOTH",
"206 498 OFFCURVE",
"264 578 OFFCURVE",
"341 631 CURVE",
"357 629 LINE",
"670 282 LINE"
);
},
{
closed = 1;
nodes = (
"1240 837 LINE",
"808 837 LINE",
"798 762 LINE",
"950 720 LINE",
"773 449 LINE",
"542 705 LINE",
"542 716 LINE",
"695 809 OFFCURVE",
"771 908 OFFCURVE",
"771 1011 CURVE SMOOTH",
"771 1104 OFFCURVE",
"742 1172 OFFCURVE",
"683 1216 CURVE SMOOTH",
"638 1251 OFFCURVE",
"574 1272 OFFCURVE",
"479 1272 CURVE SMOOTH",
"310 1271 OFFCURVE",
"164 1127 OFFCURVE",
"164 975 CURVE SMOOTH",
"164 866 OFFCURVE",
"223 763 OFFCURVE",
"295 702 CURVE",
"110 595 OFFCURVE",
"18 466 OFFCURVE",
"18 313 CURVE SMOOTH",
"18 253 OFFCURVE",
"31 198 OFFCURVE",
"58 149 CURVE SMOOTH",
"110 50 OFFCURVE",
"220 -20 OFFCURVE",
"365 -20 CURVE SMOOTH",
"392 -20 LINE",
"499 -13 OFFCURVE",
"590 32 OFFCURVE",
"664 116 CURVE",
"702 164 OFFCURVE",
"728 198 OFFCURVE",
"742 218 CURVE",
"813 138 OFFCURVE",
"870 88 OFFCURVE",
"915 53 CURVE SMOOTH",
"975 5 OFFCURVE",
"1029 -20 OFFCURVE",
"1085 -20 CURVE SMOOTH",
"1128 -20 OFFCURVE",
"1168 -13 OFFCURVE",
"1206 0 CURVE",
"1221 69 LINE",
"1188 79 LINE SMOOTH",
"1127 97 OFFCURVE",
"1013 197 OFFCURVE",
"844 380 CURVE",
"1060 723 LINE",
"1230 762 LINE"
);
}
);
width = 1231;
},
{
layerId = "52F1D99C-0FFA-4FAD-B979-579B617E1314";
paths = (
{
closed = 1;
nodes = (
"331 1120 OFFCURVE",
"391 1200 OFFCURVE",
"487 1200 CURVE SMOOTH",
"582 1200 OFFCURVE",
"645 1108 OFFCURVE",
"645 1000 CURVE SMOOTH",
"645 891 OFFCURVE",
"591 829 OFFCURVE",
"483 752 CURVE",
"382 856 OFFCURVE",
"331 947 OFFCURVE",
"331 1025 CURVE SMOOTH"
);
},
{
closed = 1;
nodes = (
"703 286 LINE",
"624 153 OFFCURVE",
"531 86 OFFCURVE",
"424 86 CURVE SMOOTH",
"291 86 OFFCURVE",
"206 199 OFFCURVE",
"206 328 CURVE SMOOTH",
"206 457 OFFCURVE",
"279 543 OFFCURVE",
"395 627 CURVE",
"405 626 LINE"
);
},
{
closed = 1;
nodes = (
"165 566 OFFCURVE",
"56 441 OFFCURVE",
"56 273 CURVE SMOOTH",
"56 105 OFFCURVE",
"183 -20 OFFCURVE",
"372 -20 CURVE SMOOTH",
"418 -20 OFFCURVE",
"461 -14 OFFCURVE",
"500 -1 CURVE SMOOTH",
"589 28 OFFCURVE",
"677 104 OFFCURVE",
"762 227 CURVE",
"857 122 LINE SMOOTH",
"942 27 OFFCURVE",
"1026 -20 OFFCURVE",
"1109 -20 CURVE SMOOTH",
"1146 -20 OFFCURVE",
"1181 -14 OFFCURVE",
"1215 -2 CURVE",
"1225 52 LINE",
"1186 64 LINE SMOOTH",
"1097 93 OFFCURVE",
"983 190 OFFCURVE",
"842 356 CURVE",
"1061 723 LINE",
"1230 757 LINE",
"1238 812 LINE",
"813 812 LINE",
"807 757 LINE",
"964 720 LINE",
"781 417 LINE",
"538 693 LINE",
"538 700 LINE",
"694 804 OFFCURVE",
"780 901 OFFCURVE",
"780 1016 CURVE SMOOTH",
"780 1181 OFFCURVE",
"676 1272 OFFCURVE",
"512 1272 CURVE SMOOTH",
"347 1272 OFFCURVE",
"211 1136 OFFCURVE",
"211 964 CURVE SMOOTH",
"211 877 OFFCURVE",
"258 785 OFFCURVE",
"353 687 CURVE"
);
}
);
width = 1282;
},
{
layerId = "B64F7E56-5CD3-4760-9166-7FC8A47137FC";
paths = (
{
closed = 1;
nodes = (
"323 1126 OFFCURVE",
"393 1212 OFFCURVE",
"493 1212 CURVE SMOOTH",
"592 1212 OFFCURVE",
"674 1114 OFFCURVE",
"674 1008 CURVE SMOOTH",
"674 902 OFFCURVE",
"604 827 OFFCURVE",
"477 731 CURVE",
"374 858 OFFCURVE",
"323 957 OFFCURVE",
"323 1026 CURVE SMOOTH"
);
},
{
closed = 1;
nodes = (
"190 316 OFFCURVE",
"196 349 OFFCURVE",
"208 380 CURVE SMOOTH",
"234 447 OFFCURVE",
"310 528 OFFCURVE",
"435 622 CURVE",
"438 622 LINE",
"721 290 LINE",
"626 140 OFFCURVE",
"521 65 OFFCURVE",
"408 65 CURVE SMOOTH",
"285 65 OFFCURVE",
"190 161 OFFCURVE",
"190 281 CURVE SMOOTH"
);
},
{
closed = 1;
nodes = (
"934 43 OFFCURVE",
"1032 -20 OFFCURVE",
"1105 -20 CURVE SMOOTH",
"1141 -20 OFFCURVE",
"1175 -14 OFFCURVE",
"1208 -3 CURVE",
"1215 34 LINE",
"1169 47 LINE SMOOTH",
"1057 82 OFFCURVE",
"942 177 OFFCURVE",
"824 332 CURVE",
"1047 723 LINE",
"1215 752 LINE",
"1220 786 LINE",
"804 786 LINE",
"802 752 LINE",
"963 721 LINE",
"775 385 LINE",
"520 680 LINE",
"520 683 LINE",
"633 766 OFFCURVE",
"773 868 OFFCURVE",
"773 1021 CURVE SMOOTH",
"773 1174 OFFCURVE",
"675 1272 OFFCURVE",
"520 1272 CURVE SMOOTH",
"364 1272 OFFCURVE",
"245 1135 OFFCURVE",
"245 975 CURVE SMOOTH",
"245 895 OFFCURVE",
"295 794 OFFCURVE",
"396 672 CURVE",
"333 624 OFFCURVE",
"302 600 OFFCURVE",
"302 600 CURVE",
"153 483 OFFCURVE",
"78 364 OFFCURVE",
"78 243 CURVE SMOOTH",
"78 94 OFFCURVE",
"192 -20 OFFCURVE",
"365 -20 CURVE SMOOTH",
"519 -20 OFFCURVE",
"653 65 OFFCURVE",
"767 236 CURVE",
"870 116 LINE SMOOTH"
);
}
);
width = 1282;
}
);
note = ampersand;
unicode = 0026;
},
{
glyphname = quotesingle;
lastChange = "2016-08-10 08:02:47 +0000";
layers = (
{
layerId = "DEC179DC-8547-47B6-92D4-65C3F1BBEDD1";
paths = (
{
closed = 1;
nodes = (
"250 920 LINE",
"311 1278 LINE",
"0 1302 LINE",
"75 894 LINE"
);
}
);
width = 328;
},
{
layerId = "CE2484D1-EC55-40DA-BA6C-521C673DBDD6";
paths = (
{
closed = 1;
nodes = (
"224 912 LINE",
"272 1282 LINE",
"25 1302 LINE",
"90 893 LINE"
);
}
);
width = 308;
},
{
layerId = "A76B26BC-A350-47F3-8273-F323BC23B531";
paths = (
{
closed = 1;
nodes = (
"246 903 LINE",
"282 1286 LINE",
"99 1303 LINE",
"152 892 LINE"
);
}
);
width = 380;
},
{
layerId = "52F1D99C-0FFA-4FAD-B979-579B617E1314";
paths = (
{
closed = 1;
nodes = (
"221 899 LINE",
"257 1291 LINE",
"111 1303 LINE",
"148 891 LINE"
);
}
);
width = 333;
},
{
layerId = "B64F7E56-5CD3-4760-9166-7FC8A47137FC";
paths = (
{
closed = 1;
nodes = (
"245 895 LINE",
"281 1296 LINE",
"172 1302 LINE",
"193 891 LINE"
);
}
);
width = 377;
}
);
note = quotesingle;
unicode = 0027;
},
{
glyphname = parenleft;
lastChange = "2016-08-10 08:02:47 +0000";
layers = (
{
layerId = "DEC179DC-8547-47B6-92D4-65C3F1BBEDD1";
paths = (
{
closed = 1;
nodes = (
"319 1244 OFFCURVE",
"306 1233 OFFCURVE",
"293 1220 CURVE SMOOTH",
"94 1025 OFFCURVE",
"-6 761 OFFCURVE",
"-6 426 CURVE SMOOTH",
"-6 119 OFFCURVE",
"90 -130 OFFCURVE",
"283 -323 CURVE SMOOTH",
"337 -376 LINE",
"468 -278 LINE",
"434 -227 OFFCURVE",
"406 -175 OFFCURVE",
"384 -120 CURVE SMOOTH",
"340 -11 OFFCURVE",
"303 200 OFFCURVE",
"303 433 CURVE SMOOTH",
"303 665 OFFCURVE",
"302 922 OFFCURVE",
"462 1130 CURVE",
"332 1255 LINE"
);
}
);
width = 468;
},
{
layerId = "CE2484D1-EC55-40DA-BA6C-521C673DBDD6";
paths = (
{
closed = 1;
nodes = (
"322 1228 OFFCURVE",
"290 1197 OFFCURVE",
"258 1160 CURVE SMOOTH",
"96 973 OFFCURVE",
"15 732 OFFCURVE",
"15 436 CURVE SMOOTH",
"15 162 OFFCURVE",
"93 -72 OFFCURVE",
"248 -265 CURVE SMOOTH",
"271 -294 OFFCURVE",
"306 -331 OFFCURVE",
"352 -376 CURVE",
"452 -298 LINE",
"323 -97 OFFCURVE",
"258 153 OFFCURVE",
"258 454 CURVE SMOOTH",
"258 655 OFFCURVE",
"262 923 OFFCURVE",
"442 1160 CURVE",
"353 1255 LINE"
);
}
);
width = 472;
},
{
layerId = "A76B26BC-A350-47F3-8273-F323BC23B531";
paths = (
{
closed = 1;
nodes = (
"302 -74 OFFCURVE",
"228 183 OFFCURVE",
"228 456 CURVE SMOOTH",
"228 537 OFFCURVE",
"233 613 OFFCURVE",
"242 684 CURVE SMOOTH",
"261 827 OFFCURVE",
"286 916 OFFCURVE",
"327 1005 CURVE SMOOTH",
"367 1094 OFFCURVE",
"395 1134 OFFCURVE",
"436 1189 CURVE",
"387 1255 LINE",
"371 1242 OFFCURVE",
"358 1230 OFFCURVE",
"347 1220 CURVE SMOOTH",
"325 1200 OFFCURVE",
"262 1134 OFFCURVE",
"225 1078 CURVE SMOOTH",
"188 1022 OFFCURVE",
"135 922 OFFCURVE",
"104 826 CURVE SMOOTH",
"73 729 OFFCURVE",
"49 590 OFFCURVE",
"49 446 CURVE SMOOTH",
"49 376 OFFCURVE",
"55 308 OFFCURVE",
"66 241 CURVE SMOOTH",
"88 108 OFFCURVE",
"117 17 OFFCURVE",
"165 -79 CURVE SMOOTH",
"213 -175 OFFCURVE",
"245 -222 OFFCURVE",
"294 -282 CURVE SMOOTH",
"343 -342 OFFCURVE",
"354 -350 OFFCURVE",
"382 -375 CURVE",
"451 -317 LINE"
);
}
);
width = 475;
},
{
layerId = "52F1D99C-0FFA-4FAD-B979-579B617E1314";
paths = (
{
closed = 1;
nodes = (
"161 1065 OFFCURVE",
"49 797 OFFCURVE",
"49 450 CURVE SMOOTH",
"49 316 OFFCURVE",
"66 196 OFFCURVE",
"99 89 CURVE SMOOTH",
"166 -124 OFFCURVE",
"269 -275 OFFCURVE",
"381 -375 CURVE",
"429 -330 LINE",
"272 -76 OFFCURVE",
"194 186 OFFCURVE",
"194 456 CURVE SMOOTH",
"194 556 OFFCURVE",
"201 648 OFFCURVE",
"216 732 CURVE SMOOTH",
"246 904 OFFCURVE",
"315 1060 OFFCURVE",
"423 1201 CURVE",
"386 1256 LINE"
);
}
);
width = 474;
},
{
layerId = "B64F7E56-5CD3-4760-9166-7FC8A47137FC";
paths = (
{
closed = 1;
nodes = (
"348 1220 LINE",
"332 1207 OFFCURVE",
"259 1133 OFFCURVE",
"226 1082 CURVE SMOOTH",
"193 1031 OFFCURVE",
"133 928 OFFCURVE",
"105 833 CURVE SMOOTH",
"76 738 OFFCURVE",
"50 605 OFFCURVE",
"50 437 CURVE SMOOTH",
"50 268 OFFCURVE",
"99 69 OFFCURVE",
"151 -46 CURVE SMOOTH",
"203 -162 OFFCURVE",
"295 -297 OFFCURVE",
"382 -374 CURVE",
"410 -342 LINE",
"409 -340 OFFCURVE",
"407 -337 OFFCURVE",
"404 -333 CURVE",
"243 -74 OFFCURVE",
"163 189 OFFCURVE",
"163 456 CURVE SMOOTH",
"163 759 OFFCURVE",
"235 978 OFFCURVE",
"412 1213 CURVE",
"388 1256 LINE"
);
}
);
width = 471;
}
);
note = parenleft;
unicode = 0028;
},
{
glyphname = parenright;
lastChange = "2016-08-10 08:02:47 +0000";
layers = (
{
layerId = "DEC179DC-8547-47B6-92D4-65C3F1BBEDD1";
paths = (
{
closed = 1;
nodes = (
"53 1069 OFFCURVE",
"90 995 OFFCURVE",
"117 910 CURVE SMOOTH",
"149 809 OFFCURVE",
"165 657 OFFCURVE",
"165 454 CURVE SMOOTH",
"165 205 OFFCURVE",
"138 14 OFFCURVE",
"84 -120 CURVE SMOOTH",
"62 -175 OFFCURVE",
"34 -227 OFFCURVE",
"0 -278 CURVE",
"131 -376 LINE",
"185 -323 LINE SMOOTH",
"378 -130 OFFCURVE",
"474 119 OFFCURVE",
"474 426 CURVE SMOOTH",
"474 821 OFFCURVE",
"315 1104 OFFCURVE",
"136 1255 CURVE",
"6 1130 LINE"
);
}
);
width = 468;
},
{
layerId = "CE2484D1-EC55-40DA-BA6C-521C673DBDD6";
paths = (
{
closed = 1;
nodes = (
"76 1094 OFFCURVE",
"117 1016 OFFCURVE",
"148 926 CURVE SMOOTH",
"189 813 OFFCURVE",
"209 656 OFFCURVE",
"209 454 CURVE SMOOTH",
"209 153 OFFCURVE",
"144 -97 OFFCURVE",
"15 -298 CURVE",
"115 -376 LINE",
"123 -368 LINE SMOOTH",
"342 -159 OFFCURVE",
"452 109 OFFCURVE",
"452 436 CURVE SMOOTH",
"452 573 OFFCURVE",
"434 700 OFFCURVE",
"397 818 CURVE SMOOTH",
"382 867 OFFCURVE",
"362 915 OFFCURVE",
"339 961 CURVE SMOOTH",
"292 1053 OFFCURVE",
"237 1150 OFFCURVE",
"114 1255 CURVE",
"25 1160 LINE"
);
}
);
width = 472;
},
{
layerId = "A76B26BC-A350-47F3-8273-F323BC23B531";
paths = (
{
closed = 1;
nodes = (
"107 -362 OFFCURVE",
"119 -351 OFFCURVE",
"129 -341 CURVE SMOOTH",
"149 -322 OFFCURVE",
"210 -251 OFFCURVE",
"247 -194 CURVE SMOOTH",
"284 -137 OFFCURVE",
"338 -32 OFFCURVE",
"370 67 CURVE SMOOTH",
"401 166 OFFCURVE",
"426 306 OFFCURVE",
"426 446 CURVE SMOOTH",
"426 518 OFFCURVE",
"421 587 OFFCURVE",
"410 654 CURVE SMOOTH",
"389 786 OFFCURVE",
"361 875 OFFCURVE",
"314 967 CURVE SMOOTH",
"266 1059 OFFCURVE",
"235 1106 OFFCURVE",
"184 1163 CURVE SMOOTH",
"133 1219 OFFCURVE",
"121 1228 OFFCURVE",
"89 1255 CURVE",
"39 1189 LINE",
"60 1162 OFFCURVE",
"79 1135 OFFCURVE",
"95 1110 CURVE SMOOTH",
"126 1059 OFFCURVE",
"172 963 OFFCURVE",
"200 865 CURVE SMOOTH",
"227 767 OFFCURVE",
"248 619 OFFCURVE",
"248 456 CURVE SMOOTH",
"248 183 OFFCURVE",
"174 -74 OFFCURVE",
"25 -317 CURVE",
"94 -375 LINE"
);
}
);
width = 475;
},
{
layerId = "52F1D99C-0FFA-4FAD-B979-579B617E1314";
paths = (
{
closed = 1;
nodes = (
"162 1060 OFFCURVE",
"283 857 OFFCURVE",
"283 456 CURVE SMOOTH",
"283 186 OFFCURVE",
"205 -76 OFFCURVE",
"48 -330 CURVE",
"96 -375 LINE",
"152 -325 OFFCURVE",
"203 -264 OFFCURVE",
"249 -193 CURVE SMOOTH",
"368 -8 OFFCURVE",
"428 207 OFFCURVE",
"428 450 CURVE SMOOTH",
"428 797 OFFCURVE",
"316 1065 OFFCURVE",
"91 1256 CURVE",
"54 1201 LINE"
);
}
);
width = 474;
},
{
layerId = "B64F7E56-5CD3-4760-9166-7FC8A47137FC";
paths = (
{
closed = 1;
nodes = (
"137 -335 OFFCURVE",
"183 -281 OFFCURVE",
"232 -211 CURVE SMOOTH",
"361 -24 OFFCURVE",
"426 207 OFFCURVE",
"426 482 CURVE SMOOTH",
"426 703 OFFCURVE",
"367 903 OFFCURVE",
"250 1082 CURVE SMOOTH",
"217 1133 OFFCURVE",
"144 1207 OFFCURVE",
"128 1220 CURVE",
"88 1256 LINE",
"64 1213 LINE",
"112 1149 OFFCURVE",
"153 1085 OFFCURVE",
"187 1021 CURVE SMOOTH",
"271 862 OFFCURVE",
"313 673 OFFCURVE",
"313 456 CURVE SMOOTH",
"313 191 OFFCURVE",
"231 -75 OFFCURVE",
"66 -342 CURVE",
"94 -374 LINE"
);
}
);
width = 471;
}
);
note = parenright;
unicode = 0029;
},
{
glyphname = asterisk;
lastChange = "2016-08-10 08:02:47 +0000";
layers = (
{
layerId = "DEC179DC-8547-47B6-92D4-65C3F1BBEDD1";
paths = (
{
closed = 1;
nodes = (
"146 686 LINE",
"285 548 LINE",
"411 824 LINE",
"556 623 LINE",
"727 714 LINE",
"485 906 LINE",
"740 989 LINE",
"703 1175 LINE",
"423 1005 LINE",
"449 1275 LINE",
"260 1300 LINE",
"315 993 LINE",
"82 1088 LINE",
"0 913 LINE",
"317 876 LINE"
);
}
);
width = 740;
},
{
layerId = "CE2484D1-EC55-40DA-BA6C-521C673DBDD6";
paths = (
{
closed = 1;
nodes = (
"122 888 LINE",
"164 756 LINE",
"383 864 LINE",
"359 654 LINE",
"496 654 LINE",
"452 888 LINE",
"656 806 LINE",
"696 934 LINE",
"447 963 LINE",
"602 1132 LINE",
"494 1210 LINE",
"376 990 LINE",
"273 1184 LINE",
"164 1102 LINE",
"341 926 LINE"
);
}
);
width = 774;
},
{
layerId = "A76B26BC-A350-47F3-8273-F323BC23B531";
paths = (
{
closed = 1;
nodes = (
"442 870 LINE",
"591 623 LINE",
"710 692 LINE",
"493 921 LINE"
);
},
{
closed = 1;
nodes = (
"372 903 LINE",
"182 685 LINE",
"284 593 LINE",
"436 870 LINE"
);
},
{
closed = 1;
nodes = (
"383 978 LINE",
"118 1091 LINE",
"63 965 LINE",
"372 906 LINE"
);
},
{
closed = 1;
nodes = (
"457 993 LINE",
"484 1280 LINE",
"347 1293 LINE",
"387 981 LINE"
);
},
{
closed = 1;
nodes = (
"493 924 LINE",
"776 989 LINE",
"747 1123 LINE",
"461 989 LINE"
);
}
);
width = 838;
},
{
layerId = "52F1D99C-0FFA-4FAD-B979-579B617E1314";
paths = (
{
closed = 1;
nodes = (
"108 1092 LINE",
"60 978 LINE",
"370 912 LINE",
"172 685 LINE",
"265 604 LINE",
"426 882 LINE",
"582 623 LINE",
"687 686 LINE",
"475 923 LINE",
"766 990 LINE",
"739 1106 LINE",
"449 981 LINE",
"474 1280 LINE",
"351 1291 LINE",
"384 974 LINE"
);
}
);
width = 593;
},
{
layerId = "B64F7E56-5CD3-4760-9166-7FC8A47137FC";
paths = (
{
closed = 1;
nodes = (
"118 1093 LINE",
"76 990 LINE",
"386 919 LINE",
"182 684 LINE",
"265 616 LINE",
"434 893 LINE",
"591 623 LINE",
"683 680 LINE",
"476 923 LINE",
"776 990 LINE",
"751 1097 LINE",
"458 973 LINE",
"483 1280 LINE",
"374 1289 LINE",
"402 970 LINE"
);
}
);
width = 377;
}
);
note = asterisk;
unicode = 002A;
},
{
glyphname = plus;
lastChange = "2016-08-10 08:02:47 +0000";
layers = (
{
layerId = "DEC179DC-8547-47B6-92D4-65C3F1BBEDD1";
paths = (
{
closed = 1;
nodes = (
"227 146 LINE",
"415 142 LINE",
"415 376 LINE",
"628 376 LINE",
"641 541 LINE",
"415 541 LINE",
"415 774 LINE",
"227 786 LINE",
"227 541 LINE",
"8 541 LINE",
"0 376 LINE",
"227 376 LINE"
);
}
);
width = 631;
},
{
layerId = "CE2484D1-EC55-40DA-BA6C-521C673DBDD6";
paths = (
{
closed = 1;
nodes = (
"249 166 LINE",
"399 158 LINE",
"398 392 LINE",
"608 392 LINE",
"621 526 LINE",
"398 526 LINE",
"398 752 LINE",
"249 764 LINE",
"249 526 LINE",
"35 526 LINE",
"25 392 LINE",
"249 392 LINE"
);
}
);
width = 639;
},
{
layerId = "A76B26BC-A350-47F3-8273-F323BC23B531";
paths = (
{
closed = 1;
nodes = (
"632 510 LINE",
"413 510 LINE",
"411 730 LINE",
"303 742 LINE",
"303 510 LINE",
"94 510 LINE",
"82 410 LINE",
"303 410 LINE",
"303 185 LINE",
"415 174 LINE",
"413 410 LINE",
"621 410 LINE"
);
}
);
width = 714;
},
{
layerId = "52F1D99C-0FFA-4FAD-B979-579B617E1314";
paths = (
{
closed = 1;
nodes = (
"308 186 LINE",
"399 173 LINE",
"397 417 LINE",
"606 417 LINE",
"617 503 LINE",
"397 503 LINE",
"396 730 LINE",
"308 742 LINE",
"308 503 LINE",
"99 503 LINE",
"87 417 LINE",
"308 417 LINE"
);
}
);
width = 680;
},
{
layerId = "B64F7E56-5CD3-4760-9166-7FC8A47137FC";
paths = (
{
closed = 1;
nodes = (
"344 187 LINE",
"414 172 LINE",
"413 426 LINE",
"622 426 LINE",
"633 495 LINE",
"413 495 LINE",
"411 730 LINE",
"344 742 LINE",
"344 495 LINE",
"136 495 LINE",
"123 426 LINE",
"344 426 LINE"
);
}
);
width = 710;
}
);
note = plus;
unicode = 002B;
},
{
glyphname = comma;
lastChange = "2016-08-10 08:02:47 +0000";
layers = (
{
layerId = "DEC179DC-8547-47B6-92D4-65C3F1BBEDD1";
paths = (
{
closed = 1;
nodes = (
"316 -340 OFFCURVE",
"445 -161 OFFCURVE",
"445 12 CURVE SMOOTH",
"445 189 OFFCURVE",
"364 278 OFFCURVE",
"202 278 CURVE SMOOTH",
"82 278 OFFCURVE",
"0 212 OFFCURVE",
"0 96 CURVE SMOOTH",
"0 65 OFFCURVE",
"10 32 OFFCURVE",
"31 -3 CURVE",
"48 6 OFFCURVE",
"68 10 OFFCURVE",
"90 10 CURVE SMOOTH",
"133 10 OFFCURVE",
"172 -24 OFFCURVE",
"172 -85 CURVE SMOOTH",
"172 -146 OFFCURVE",
"115 -223 OFFCURVE",
"7 -259 CURVE",
"51 -377 LINE"
);
}
);
width = 445;
},
{
layerId = "CE2484D1-EC55-40DA-BA6C-521C673DBDD6";
paths = (
{
closed = 1;
nodes = (
"320 -294 OFFCURVE",
"409 -132 OFFCURVE",
"409 11 CURVE SMOOTH",
"409 160 OFFCURVE",
"322 248 OFFCURVE",
"214 248 CURVE SMOOTH",
"106 248 OFFCURVE",
"38 191 OFFCURVE",
"38 96 CURVE SMOOTH",
"38 73 OFFCURVE",
"46 47 OFFCURVE",
"61 16 CURVE",
"74 21 OFFCURVE",
"92 23 OFFCURVE",
"114 23 CURVE SMOOTH",
"158 23 OFFCURVE",
"204 -17 OFFCURVE",
"204 -80 CURVE SMOOTH",
"204 -144 OFFCURVE",
"147 -219 OFFCURVE",
"31 -252 CURVE",
"64 -345 LINE"
);
}
);
width = 439;
},
{
layerId = "A76B26BC-A350-47F3-8273-F323BC23B531";
paths = (
{
closed = 1;
nodes = (
"93 -300 OFFCURVE",
"137 -283 OFFCURVE",
"174 -262 CURVE SMOOTH",
"249 -219 OFFCURVE",
"285 -177 OFFCURVE",
"310 -124 CURVE SMOOTH",
"334 -71 OFFCURVE",
"339 -34 OFFCURVE",
"339 10 CURVE SMOOTH",
"339 81 OFFCURVE",
"313 139 OFFCURVE",
"277 171 CURVE SMOOTH",
"240 202 OFFCURVE",
"201 218 OFFCURVE",
"164 218 CURVE SMOOTH",
"105 218 OFFCURVE",
"41 172 OFFCURVE",
"41 97 CURVE SMOOTH",
"41 82 OFFCURVE",
"46 61 OFFCURVE",
"56 35 CURVE",
"63 36 OFFCURVE",
"73 36 OFFCURVE",
"86 36 CURVE SMOOTH",
"154 36 OFFCURVE",
"202 -12 OFFCURVE",
"202 -71 CURVE SMOOTH",
"202 -142 OFFCURVE",
"143 -212 OFFCURVE",
"20 -244 CURVE",
"43 -313 LINE"
);
}
);
width = 364;
},
{
layerId = "52F1D99C-0FFA-4FAD-B979-579B617E1314";
paths = (
{
closed = 1;
nodes = (
"183 -266 OFFCURVE",
"263 -212 OFFCURVE",
"312 -135 CURVE SMOOTH",
"339 -94 OFFCURVE",
"352 -42 OFFCURVE",
"352 19 CURVE SMOOTH",
"352 141 OFFCURVE",
"273 218 OFFCURVE",
"203 218 CURVE SMOOTH",
"133 218 OFFCURVE",
"85 171 OFFCURVE",
"85 128 CURVE SMOOTH",
"85 106 OFFCURVE",
"88 87 OFFCURVE",
"93 71 CURVE",
"102 73 OFFCURVE",
"111 74 OFFCURVE",
"122 74 CURVE SMOOTH",
"186 74 OFFCURVE",
"234 21 OFFCURVE",
"234 -50 CURVE SMOOTH",
"234 -137 OFFCURVE",
"174 -201 OFFCURVE",
"54 -240 CURVE",
"72 -298 LINE"
);
}
);
width = 397;
},
{
layerId = "B64F7E56-5CD3-4760-9166-7FC8A47137FC";
paths = (
{
closed = 1;
nodes = (
"269 -216 OFFCURVE",
"332 -96 OFFCURVE",
"332 21 CURVE SMOOTH",
"332 137 OFFCURVE",
"266 218 OFFCURVE",
"198 218 CURVE SMOOTH",
"129 218 OFFCURVE",
"93 177 OFFCURVE",
"93 143 CURVE SMOOTH",
"93 126 OFFCURVE",
"94 114 OFFCURVE",
"96 108 CURVE",
"102 111 OFFCURVE",
"111 112 OFFCURVE",
"123 112 CURVE SMOOTH",
"184 112 OFFCURVE",
"232 56 OFFCURVE",
"232 -31 CURVE SMOOTH",
"232 -119 OFFCURVE",
"189 -183 OFFCURVE",
"54 -236 CURVE",
"66 -281 LINE"
);
}
);
width = 360;
}
);
note = comma;
unicode = 002C;
},
{
glyphname = hyphen;
lastChange = "2016-08-10 08:02:47 +0000";
layers = (
{
layerId = "DEC179DC-8547-47B6-92D4-65C3F1BBEDD1";
paths = (
{
closed = 1;
nodes = (
"595 557 LINE",
"15 535 LINE",
"0 357 LINE",
"580 372 LINE"
);
}
);
width = 595;
},
{
layerId = "CE2484D1-EC55-40DA-BA6C-521C673DBDD6";
paths = (
{
closed = 1;
nodes = (
"548 537 LINE",
"54 516 LINE",
"40 378 LINE",
"534 394 LINE"
);
}
);
width = 588;
},
{
layerId = "A76B26BC-A350-47F3-8273-F323BC23B531";
paths = (
{
closed = 1;
nodes = (
"487 416 LINE",
"498 517 LINE",
"90 498 LINE",
"79 398 LINE"
);
}
);
width = 569;
},
{
layerId = "52F1D99C-0FFA-4FAD-B979-579B617E1314";
paths = (
{
closed = 1;
nodes = (
"500 507 LINE",
"92 489 LINE",
"81 409 LINE",
"489 426 LINE"
);
}
);
width = 573;
},
{
layerId = "B64F7E56-5CD3-4760-9166-7FC8A47137FC";
paths = (
{
closed = 1;
nodes = (
"498 497 LINE",
"92 480 LINE",
"82 419 LINE",
"489 437 LINE"
);
}
);
width = 564;
}
);
note = hyphen;
unicode = 002D;
},
{
glyphname = period;
lastChange = "2016-08-10 08:02:47 +0000";
layers = (
{
layerId = "DEC179DC-8547-47B6-92D4-65C3F1BBEDD1";
paths = (
{
closed = 1;
nodes = (
"0 25 OFFCURVE",
"71 -26 OFFCURVE",
"214 -26 CURVE SMOOTH",
"356 -26 OFFCURVE",
"427 26 OFFCURVE",
"427 130 CURVE SMOOTH",
"427 209 OFFCURVE",
"364 280 OFFCURVE",
"213 280 CURVE SMOOTH",
"61 280 OFFCURVE",
"0 207 OFFCURVE",
"0 127 CURVE SMOOTH"
);
}
);
width = 427;
},
{
layerId = "CE2484D1-EC55-40DA-BA6C-521C673DBDD6";
paths = (
{
closed = 1;
nodes = (
"312 -28 OFFCURVE",
"370 30 OFFCURVE",
"370 107 CURVE SMOOTH",
"370 183 OFFCURVE",
"311 242 OFFCURVE",
"202 242 CURVE SMOOTH",
"93 242 OFFCURVE",
"36 182 OFFCURVE",
"36 107 CURVE SMOOTH",
"36 32 OFFCURVE",
"88 -28 OFFCURVE",
"200 -28 CURVE SMOOTH"
);
}
);
width = 405;
},
{
layerId = "A76B26BC-A350-47F3-8273-F323BC23B531";
paths = (
{
closed = 1;
nodes = (
"94 151 OFFCURVE",
"82 124 OFFCURVE",
"82 92 CURVE SMOOTH",
"82 24 OFFCURVE",
"136 -31 OFFCURVE",
"202 -31 CURVE SMOOTH",
"268 -31 OFFCURVE",
"322 23 OFFCURVE",
"322 90 CURVE SMOOTH",
"322 154 OFFCURVE",
"267 205 OFFCURVE",
"202 205 CURVE SMOOTH",
"169 205 OFFCURVE",
"141 194 OFFCURVE",
"118 173 CURVE SMOOTH"
);
}
);
width = 403;
},
{
layerId = "52F1D99C-0FFA-4FAD-B979-579B617E1314";
paths = (
{
closed = 1;
nodes = (
"256 -32 OFFCURVE",
"292 14 OFFCURVE",
"292 79 CURVE SMOOTH",
"292 144 OFFCURVE",
"254 186 OFFCURVE",
"199 186 CURVE SMOOTH",
"144 186 OFFCURVE",
"109 145 OFFCURVE",
"109 80 CURVE SMOOTH",
"109 15 OFFCURVE",
"145 -32 OFFCURVE",
"201 -32 CURVE SMOOTH"
);
}
);
width = 391;
},
{
layerId = "B64F7E56-5CD3-4760-9166-7FC8A47137FC";
paths = (
{
closed = 1;
nodes = (
"271 134 OFFCURVE",
"250 167 OFFCURVE",
"208 167 CURVE SMOOTH",
"166 167 OFFCURVE",
"145 134 OFFCURVE",
"145 67 CURVE SMOOTH",
"145 0 OFFCURVE",
"166 -33 OFFCURVE",
"208 -33 CURVE SMOOTH",
"250 -33 OFFCURVE",
"271 0 OFFCURVE",
"271 67 CURVE SMOOTH"
);
}
);
width = 398;
}
);
note = period;
unicode = 002E;
},
{
glyphname = slash;
lastChange = "2016-08-10 08:02:47 +0000";
layers = (
{
layerId = "DEC179DC-8547-47B6-92D4-65C3F1BBEDD1";
paths = (
{
closed = 1;
nodes = (
"692 1244 LINE",
"462 1224 LINE",
"0 -372 LINE",
"226 -358 LINE"
);
}
);
width = 692;
},
{
layerId = "CE2484D1-EC55-40DA-BA6C-521C673DBDD6";
paths = (
{
closed = 1;
nodes = (
"665 1244 LINE",
"484 1230 LINE",
"22 -368 LINE",
"199 -356 LINE"
);
}
);
width = 684;
},
{
layerId = "A76B26BC-A350-47F3-8273-F323BC23B531";
paths = (
{
closed = 1;
nodes = (
"106 -355 LINE",
"572 1244 LINE",
"439 1235 LINE",
"-23 -364 LINE"
);
}
);
width = 547;
},
{
layerId = "52F1D99C-0FFA-4FAD-B979-579B617E1314";
paths = (
{
closed = 1;
nodes = (
"605 1244 LINE",
"498 1238 LINE",
"35 -361 LINE",
"139 -355 LINE"
);
}
);
width = 610;
},
{
layerId = "B64F7E56-5CD3-4760-9166-7FC8A47137FC";
paths = (
{
closed = 1;
nodes = (
"571 1244 LINE",
"489 1241 LINE",
"27 -358 LINE",
"106 -354 LINE"
);
}
);
width = 543;
}
);
note = slash;
unicode = 002F;
},
{
glyphname = zero;
lastChange = "2016-08-10 08:02:47 +0000";
layers = (
{
layerId = "DEC179DC-8547-47B6-92D4-65C3F1BBEDD1";
paths = (
{
closed = 1;
nodes = (
"433 1013 OFFCURVE",
"448 1026 OFFCURVE",
"469 1026 CURVE SMOOTH",
"489 1026 OFFCURVE",
"506 1013 OFFCURVE",
"519 987 CURVE SMOOTH",
"532 961 OFFCURVE",
"541 917 OFFCURVE",
"547 856 CURVE SMOOTH",
"552 794 OFFCURVE",
"555 694 OFFCURVE",
"555 557 CURVE SMOOTH",
"555 419 OFFCURVE",
"550 315 OFFCURVE",
"539 246 CURVE SMOOTH",
"528 176 OFFCURVE",
"508 141 OFFCURVE",
"480 141 CURVE SMOOTH",
"445 141 OFFCURVE",
"422 174 OFFCURVE",
"410 241 CURVE SMOOTH",
"398 308 OFFCURVE",
"392 411 OFFCURVE",
"392 550 CURVE SMOOTH",
"392 689 OFFCURVE",
"395 790 OFFCURVE",
"400 854 CURVE SMOOTH",
"405 917 OFFCURVE",
"413 962 OFFCURVE",
"423 988 CURVE SMOOTH"
);
},
{
closed = 1;
nodes = (
"0 310 OFFCURVE",
"65 -27 OFFCURVE",
"470 -27 CURVE SMOOTH",
"565 -27 OFFCURVE",
"652 1 OFFCURVE",
"730 56 CURVE SMOOTH",
"874 160 OFFCURVE",
"946 336 OFFCURVE",
"946 583 CURVE SMOOTH",
"946 767 OFFCURVE",
"915 910 OFFCURVE",
"854 1012 CURVE SMOOTH",
"827 1059 OFFCURVE",
"793 1097 OFFCURVE",
"753 1127 CURVE SMOOTH",
"673 1186 OFFCURVE",
"597 1207 OFFCURVE",
"470 1207 CURVE SMOOTH",
"407 1207 OFFCURVE",
"338 1189 OFFCURVE",
"265 1152 CURVE SMOOTH",
"190 1115 OFFCURVE",
"127 1047 OFFCURVE",
"78 958 CURVE SMOOTH",
"29 869 OFFCURVE",
"0 735 OFFCURVE",
"0 590 CURVE SMOOTH"
);
}
);
width = 946;
},
{
layerId = "CE2484D1-EC55-40DA-BA6C-521C673DBDD6";
paths = (
{
closed = 1;
nodes = (
"531 1062 OFFCURVE",
"568 1027 OFFCURVE",
"589 956 CURVE SMOOTH",
"609 885 OFFCURVE",
"619 764 OFFCURVE",
"619 591 CURVE SMOOTH",
"619 418 OFFCURVE",
"609 294 OFFCURVE",
"590 219 CURVE SMOOTH",
"571 144 OFFCURVE",
"536 106 OFFCURVE",
"486 106 CURVE SMOOTH",
"428 106 OFFCURVE",
"389 142 OFFCURVE",
"369 215 CURVE SMOOTH",
"348 288 OFFCURVE",
"338 411 OFFCURVE",
"338 586 CURVE SMOOTH",
"338 761 OFFCURVE",
"348 884 OFFCURVE",
"367 955 CURVE SMOOTH",
"386 1026 OFFCURVE",
"423 1062 OFFCURVE",
"477 1062 CURVE SMOOTH"
);
},
{
closed = 1;
nodes = (
"34 212 OFFCURVE",
"159 -27 OFFCURVE",
"478 -27 CURVE SMOOTH",
"569 -27 OFFCURVE",
"651 0 OFFCURVE",
"724 54 CURVE SMOOTH",
"857 154 OFFCURVE",
"923 331 OFFCURVE",
"923 584 CURVE SMOOTH",
"923 1029 OFFCURVE",
"742 1205 OFFCURVE",
"490 1205 CURVE SMOOTH",
"394 1205 OFFCURVE",
"309 1176 OFFCURVE",
"234 1117 CURVE SMOOTH",
"195 1086 OFFCURVE",
"160 1047 OFFCURVE",
"131 1000 CURVE SMOOTH",
"72 907 OFFCURVE",
"34 762 OFFCURVE",
"34 579 CURVE SMOOTH"
);
}
);
width = 957;
},
{
layerId = "A76B26BC-A350-47F3-8273-F323BC23B531";
paths = (
{
closed = 1;
nodes = (
"262 926 OFFCURVE",
"332 1101 OFFCURVE",
"508 1101 CURVE SMOOTH",
"668 1101 OFFCURVE",
"748 917 OFFCURVE",
"748 586 CURVE SMOOTH",
"748 401 OFFCURVE",
"730 270 OFFCURVE",
"694 192 CURVE SMOOTH",
"658 113 OFFCURVE",
"597 74 OFFCURVE",
"512 74 CURVE SMOOTH",
"345 74 OFFCURVE",
"262 244 OFFCURVE",
"262 583 CURVE SMOOTH"
);
},
{
closed = 1;
nodes = (
"920 962 OFFCURVE",
"751 1201 OFFCURVE",
"507 1201 CURVE SMOOTH",
"396 1201 OFFCURVE",
"290 1138 OFFCURVE",
"213 1034 CURVE SMOOTH",
"136 929 OFFCURVE",
"86 767 OFFCURVE",
"86 586 CURVE SMOOTH",
"86 386 OFFCURVE",
"135 222 OFFCURVE",
"214 124 CURVE SMOOTH",
"293 26 OFFCURVE",
"395 -26 OFFCURVE",
"510 -26 CURVE SMOOTH",
"611 -26 OFFCURVE",
"710 28 OFFCURVE",
"789 127 CURVE SMOOTH",
"868 226 OFFCURVE",
"920 391 OFFCURVE",
"920 586 CURVE SMOOTH"
);
}
);
width = 1005;
},
{
layerId = "52F1D99C-0FFA-4FAD-B979-579B617E1314";
paths = (
{
closed = 1;
nodes = (
"664 1125 OFFCURVE",
"741 946 OFFCURVE",
"741 587 CURVE SMOOTH",
"741 404 OFFCURVE",
"723 269 OFFCURVE",
"687 181 CURVE SMOOTH",
"651 92 OFFCURVE",
"594 48 OFFCURVE",
"515 48 CURVE SMOOTH",
"354 48 OFFCURVE",
"273 228 OFFCURVE",
"273 587 CURVE SMOOTH",
"273 946 OFFCURVE",
"352 1125 OFFCURVE",
"511 1125 CURVE SMOOTH"
);
},
{
closed = 1;
nodes = (
"105 151 OFFCURVE",
"277 -27 OFFCURVE",
"513 -27 CURVE SMOOTH",
"598 -27 OFFCURVE",
"673 3 OFFCURVE",
"738 62 CURVE SMOOTH",
"853 168 OFFCURVE",
"910 343 OFFCURVE",
"910 587 CURVE SMOOTH",
"910 987 OFFCURVE",
"758 1203 OFFCURVE",
"522 1203 CURVE SMOOTH",
"285 1203 OFFCURVE",
"105 989 OFFCURVE",
"105 570 CURVE SMOOTH"
);
}
);
width = 984;
},
{
layerId = "B64F7E56-5CD3-4760-9166-7FC8A47137FC";
paths = (
{
closed = 1;
nodes = (
"262 815 OFFCURVE",
"303 980 OFFCURVE",
"386 1077 CURVE SMOOTH",
"427 1126 OFFCURVE",
"478 1151 OFFCURVE",
"537 1151 CURVE SMOOTH",
"696 1151 OFFCURVE",
"797 919 OFFCURVE",
"797 588 CURVE SMOOTH",
"797 214 OFFCURVE",
"711 27 OFFCURVE",
"538 27 CURVE SMOOTH",
"378 27 OFFCURVE",
"262 232 OFFCURVE",
"262 584 CURVE SMOOTH"
);
},
{
closed = 1;
nodes = (
"747 -27 OFFCURVE",
"919 191 OFFCURVE",
"919 582 CURVE SMOOTH",
"919 973 OFFCURVE",
"773 1202 OFFCURVE",
"541 1202 CURVE SMOOTH",
"308 1202 OFFCURVE",
"142 959 OFFCURVE",
"142 576 CURVE SMOOTH",
"142 192 OFFCURVE",
"305 -27 OFFCURVE",
"526 -27 CURVE SMOOTH"
);
}
);
width = 1000;
}
);
note = zero;
unicode = 0030;
},
{
glyphname = one;
lastChange = "2016-08-10 08:02:47 +0000";
layers = (
{
layerId = "DEC179DC-8547-47B6-92D4-65C3F1BBEDD1";
paths = (
{
closed = 1;
nodes = (
"861 132 LINE",
"624 178 LINE",
"624 1186 LINE",
"533 1186 LINE",
"37 1082 LINE",
"25 915 LINE",
"241 915 LINE",
"241 191 LINE",
"17 124 LINE",
"0 -5 LINE",
"848 -5 LINE"
);
}
);
width = 861;
},
{
layerId = "CE2484D1-EC55-40DA-BA6C-521C673DBDD6";
paths = (
{
closed = 1;
nodes = (
"819 108 LINE",
"570 146 LINE",
"570 1186 LINE",
"510 1186 LINE",
"52 1095 LINE",
"43 973 LINE",
"276 973 LINE",
"276 156 LINE",
"32 99 LINE",
"20 -2 LINE",
"808 -2 LINE"
);
}
);
width = 819;
},
{
layerId = "A76B26BC-A350-47F3-8273-F323BC23B531";
paths = (
{
closed = 1;
nodes = (
"162 1108 LINE",
"155 1031 LINE",
"426 1031 LINE",
"426 121 LINE",
"142 74 LINE",
"136 0 LINE",
"862 2 LINE",
"872 82 LINE",
"598 114 LINE",
"598 1184 LINE",
"572 1184 LINE"
);
}
);
width = 1005;
},
{
layerId = "52F1D99C-0FFA-4FAD-B979-579B617E1314";
paths = (
{
closed = 1;
nodes = (
"825 70 LINE",
"557 98 LINE",
"557 1185 LINE",
"530 1185 LINE",
"144 1121 LINE",
"139 1060 LINE",
"398 1060 LINE",
"398 103 LINE",
"124 61 LINE",
"120 1 LINE",
"816 1 LINE"
);
}
);
width = 889;
},
{
layerId = "B64F7E56-5CD3-4760-9166-7FC8A47137FC";
paths = (
{
closed = 1;
nodes = (
"873 58 LINE",
"599 82 LINE",
"599 1184 LINE",
"571 1184 LINE",
"221 1133 LINE",
"216 1089 LINE",
"484 1089 LINE",
"484 85 LINE",
"200 48 LINE",
"199 3 LINE",
"864 3 LINE"
);
}
);
width = 1000;
}
);
note = one;
unicode = 0031;
},
{
glyphname = two;
lastChange = "2016-08-10 08:02:47 +0000";
layers = (
{
layerId = "DEC179DC-8547-47B6-92D4-65C3F1BBEDD1";
paths = (
{
closed = 1;
nodes = (
"900 0 LINE",
"951 435 LINE",
"790 451 LINE",
"678 249 LINE",
"401 249 LINE",
"471 291 LINE SMOOTH",
"648 399 OFFCURVE",
"752 496 OFFCURVE",
"810 576 CURVE SMOOTH",
"868 655 OFFCURVE",
"916 772 OFFCURVE",
"916 889 CURVE SMOOTH",
"916 970 OFFCURVE",
"885 1043 OFFCURVE",
"824 1108 CURVE SMOOTH",
"763 1171 OFFCURVE",
"663 1212 OFFCURVE",
"503 1212 CURVE SMOOTH",
"342 1212 OFFCURVE",
"109 1130 OFFCURVE",
"0 1006 CURVE",
"51 634 LINE",
"209 607 LINE",
"278 985 LINE",
"299 991 OFFCURVE",
"317 994 OFFCURVE",
"332 994 CURVE SMOOTH",
"423 994 OFFCURVE",
"485 911 OFFCURVE",
"485 751 CURVE SMOOTH",
"485 590 OFFCURVE",
"343 451 OFFCURVE",
"231 371 CURVE SMOOTH",
"13 213 LINE",
"19 0 LINE"
);
}
);
width = 951;
},
{
layerId = "CE2484D1-EC55-40DA-BA6C-521C673DBDD6";
paths = (
{
closed = 1;
nodes = (
"863 0 LINE",
"912 396 LINE",
"797 410 LINE",
"689 200 LINE",
"324 200 LINE",
"396 248 LINE SMOOTH",
"583 372 OFFCURVE",
"871 571 OFFCURVE",
"871 878 CURVE SMOOTH",
"871 1073 OFFCURVE",
"740 1210 OFFCURVE",
"504 1210 CURVE SMOOTH",
"337 1210 OFFCURVE",
"131 1125 OFFCURVE",
"47 1013 CURVE",
"86 685 LINE",
"204 666 LINE",
"256 986 LINE",
"283 1028 OFFCURVE",
"322 1049 OFFCURVE",
"373 1049 CURVE SMOOTH",
"487 1049 OFFCURVE",
"544 959 OFFCURVE",
"544 778 CURVE SMOOTH",
"544 637 OFFCURVE",
"447 490 OFFCURVE",
"253 335 CURVE SMOOTH",
"26 158 LINE",
"32 0 LINE"
);
}
);
width = 934;
},
{
layerId = "A76B26BC-A350-47F3-8273-F323BC23B531";
paths = (
{
closed = 1;
nodes = (
"846 312 LINE",
"750 134 LINE",
"279 134 LINE",
"370 213 LINE SMOOTH",
"399 238 OFFCURVE",
"477 303 OFFCURVE",
"521 339 CURVE SMOOTH",
"564 375 OFFCURVE",
"636 442 OFFCURVE",
"680 490 CURVE SMOOTH",
"724 537 OFFCURVE",
"778 606 OFFCURVE",
"807 665 CURVE SMOOTH",
"836 724 OFFCURVE",
"859 796 OFFCURVE",
"859 865 CURVE SMOOTH",
"859 1086 OFFCURVE",
"747 1209 OFFCURVE",
"532 1209 CURVE SMOOTH",
"432 1209 OFFCURVE",
"334 1161 OFFCURVE",
"266 1092 CURVE SMOOTH",
"197 1023 OFFCURVE",
"146 934 OFFCURVE",
"126 849 CURVE",
"208 819 LINE",
"341 1158 OFFCURVE",
"677 1158 OFFCURVE",
"677 821 CURVE SMOOTH",
"677 782 OFFCURVE",
"670 742 OFFCURVE",
"655 703 CURVE SMOOTH",
"626 623 OFFCURVE",
"591 568 OFFCURVE",
"521 492 CURVE SMOOTH",
"451 416 OFFCURVE",
"409 379 OFFCURVE",
"325 307 CURVE SMOOTH",
"89 102 LINE",
"95 0 LINE",
"859 0 LINE",
"915 302 LINE"
);
}
);
width = 1005;
},
{
layerId = "52F1D99C-0FFA-4FAD-B979-579B617E1314";
paths = (
{
closed = 1;
nodes = (
"843 0 LINE",
"890 353 LINE",
"835 361 LINE",
"740 118 LINE",
"241 118 LINE",
"478 308 LINE SMOOTH",
"512 336 OFFCURVE",
"537 358 OFFCURVE",
"554 373 CURVE SMOOTH",
"621 436 LINE SMOOTH",
"649 462 OFFCURVE",
"670 484 OFFCURVE",
"684 502 CURVE SMOOTH",
"736 568 LINE SMOOTH",
"791 635 OFFCURVE",
"843 748 OFFCURVE",
"843 860 CURVE SMOOTH",
"843 1088 OFFCURVE",
"712 1209 OFFCURVE",
"501 1209 CURVE SMOOTH",
"356 1209 OFFCURVE",
"198 1134 OFFCURVE",
"141 1057 CURVE",
"151 788 LINE",
"208 780 LINE",
"249 1021 LINE",
"281 1081 OFFCURVE",
"355 1128 OFFCURVE",
"455 1128 CURVE SMOOTH",
"603 1128 OFFCURVE",
"669 1011 OFFCURVE",
"669 826 CURVE SMOOTH",
"669 641 OFFCURVE",
"549 485 OFFCURVE",
"308 278 CURVE SMOOTH",
"70 74 LINE",
"76 0 LINE"
);
}
);
width = 959;
},
{
layerId = "B64F7E56-5CD3-4760-9166-7FC8A47137FC";
paths = (
{
closed = 1;
nodes = (
"860 0 LINE",
"906 348 LINE",
"866 354 LINE",
"779 85 LINE",
"235 85 LINE",
"496 306 LINE",
"620 418 LINE SMOOTH",
"728 517 OFFCURVE",
"745 550 OFFCURVE",
"797 630 CURVE SMOOTH",
"839 694 OFFCURVE",
"860 769 OFFCURVE",
"860 854 CURVE SMOOTH",
"860 1091 OFFCURVE",
"723 1207 OFFCURVE",
"520 1207 CURVE SMOOTH",
"375 1207 OFFCURVE",
"251 1150 OFFCURVE",
"188 1093 CURVE",
"182 841 LINE",
"218 834 LINE",
"263 1054 LINE",
"310 1119 OFFCURVE",
"388 1151 OFFCURVE",
"495 1151 CURVE SMOOTH",
"646 1151 OFFCURVE",
"734 1026 OFFCURVE",
"734 863 CURVE SMOOTH",
"734 586 OFFCURVE",
"543 432 OFFCURVE",
"340 256 CURVE SMOOTH",
"100 46 LINE",
"106 0 LINE"
);
}
);
width = 1000;
}
);
note = two;
unicode = 0032;
},
{
glyphname = three;
lastChange = "2016-08-10 08:02:47 +0000";
layers = (
{
layerId = "DEC179DC-8547-47B6-92D4-65C3F1BBEDD1";
paths = (
{
closed = 1;
nodes = (
"99 -10 OFFCURVE",
"200 -19 OFFCURVE",
"318 -19 CURVE SMOOTH",
"435 -19 OFFCURVE",
"546 0 OFFCURVE",
"649 37 CURVE SMOOTH",
"855 111 OFFCURVE",
"968 236 OFFCURVE",
"964 396 CURVE SMOOTH",
"959 555 OFFCURVE",
"816 664 OFFCURVE",
"572 655 CURVE",
"572 673 LINE",
"805 751 OFFCURVE",
"922 848 OFFCURVE",
"922 965 CURVE SMOOTH",
"922 1064 OFFCURVE",
"873 1133 OFFCURVE",
"776 1172 CURVE SMOOTH",
"681 1209 OFFCURVE",
"570 1224 OFFCURVE",
"420 1224 CURVE SMOOTH",
"270 1224 OFFCURVE",
"52 1170 OFFCURVE",
"0 1118 CURVE",
"65 740 LINE",
"231 729 LINE",
"289 1061 LINE",
"308 1064 OFFCURVE",
"322 1065 OFFCURVE",
"332 1065 CURVE SMOOTH",
"437 1065 OFFCURVE",
"524 996 OFFCURVE",
"524 884 CURVE SMOOTH",
"524 771 OFFCURVE",
"400 694 OFFCURVE",
"200 657 CURVE",
"240 529 LINE",
"445 557 OFFCURVE",
"548 466 OFFCURVE",
"548 317 CURVE SMOOTH",
"548 210 OFFCURVE",
"465 152 OFFCURVE",
"365 152 CURVE SMOOTH",
"344 152 OFFCURVE",
"322 155 OFFCURVE",
"299 160 CURVE",
"271 435 LINE",
"91 455 LINE",
"16 9 LINE"
);
}
);
width = 964;
},
{
layerId = "CE2484D1-EC55-40DA-BA6C-521C673DBDD6";
paths = (
{
closed = 1;
nodes = (
"89 6 OFFCURVE",
"201 -24 OFFCURVE",
"314 -24 CURVE SMOOTH",
"422 -24 OFFCURVE",
"520 -6 OFFCURVE",
"609 29 CURVE SMOOTH",
"785 100 OFFCURVE",
"889 223 OFFCURVE",
"888 378 CURVE SMOOTH",
"887 533 OFFCURVE",
"745 638 OFFCURVE",
"528 646 CURVE",
"528 661 LINE",
"665 708 OFFCURVE",
"845 807 OFFCURVE",
"845 962 CURVE SMOOTH",
"845 1053 OFFCURVE",
"804 1119 OFFCURVE",
"722 1160 CURVE SMOOTH",
"645 1199 OFFCURVE",
"548 1218 OFFCURVE",
"417 1218 CURVE SMOOTH",
"285 1218 OFFCURVE",
"90 1156 OFFCURVE",
"39 1104 CURVE",
"80 782 LINE",
"206 770 LINE",
"258 1061 LINE",
"286 1081 OFFCURVE",
"323 1091 OFFCURVE",
"368 1091 CURVE SMOOTH",
"458 1091 OFFCURVE",
"540 1015 OFFCURVE",
"540 892 CURVE SMOOTH",
"540 769 OFFCURVE",
"403 674 OFFCURVE",
"228 634 CURVE",
"253 537 LINE",
"450 550 OFFCURVE",
"572 446 OFFCURVE",
"572 312 CURVE SMOOTH",
"572 178 OFFCURVE",
"484 104 OFFCURVE",
"357 104 CURVE SMOOTH",
"313 104 OFFCURVE",
"265 125 OFFCURVE",
"242 150 CURVE",
"222 398 LINE",
"90 414 LINE",
"26 42 LINE"
);
}
);
width = 941;
},
{
layerId = "A76B26BC-A350-47F3-8273-F323BC23B531";
paths = (
{
closed = 1;
nodes = (
"155 205 OFFCURVE",
"108 161 OFFCURVE",
"108 109 CURVE SMOOTH",
"108 37 OFFCURVE",
"207 -30 OFFCURVE",
"370 -30 CURVE SMOOTH",
"457 -30 OFFCURVE",
"536 -13 OFFCURVE",
"608 21 CURVE SMOOTH",
"752 89 OFFCURVE",
"839 213 OFFCURVE",
"839 357 CURVE SMOOTH",
"839 493 OFFCURVE",
"728 622 OFFCURVE",
"557 646 CURVE",
"557 657 LINE",
"693 706 OFFCURVE",
"793 810 OFFCURVE",
"793 961 CURVE SMOOTH",
"793 1104 OFFCURVE",
"659 1212 OFFCURVE",
"503 1212 CURVE SMOOTH",
"418 1212 OFFCURVE",
"332 1175 OFFCURVE",
"275 1124 CURVE SMOOTH",
"218 1072 OFFCURVE",
"176 1008 OFFCURVE",
"167 955 CURVE",
"241 928 LINE",
"282 1027 OFFCURVE",
"340 1080 OFFCURVE",
"441 1080 CURVE SMOOTH",
"561 1080 OFFCURVE",
"614 1005 OFFCURVE",
"614 906 CURVE SMOOTH",
"614 850 OFFCURVE",
"589 793 OFFCURVE",
"549 754 CURVE SMOOTH",
"509 714 OFFCURVE",
"468 682 OFFCURVE",
"421 659 CURVE SMOOTH",
"374 636 OFFCURVE",
"352 626 OFFCURVE",
"331 619 CURVE",
"341 554 LINE",
"357 554 LINE SMOOTH",
"446 554 OFFCURVE",
"528 519 OFFCURVE",
"579 469 CURVE SMOOTH",
"630 419 OFFCURVE",
"660 356 OFFCURVE",
"660 297 CURVE SMOOTH",
"660 237 OFFCURVE",
"650 189 OFFCURVE",
"618 139 CURVE SMOOTH",
"585 89 OFFCURVE",
"519 58 OFFCURVE",
"423 58 CURVE SMOOTH",
"338 58 OFFCURVE",
"243 160 OFFCURVE",
"234 213 CURVE"
);
}
);
width = 1005;
},
{
layerId = "52F1D99C-0FFA-4FAD-B979-579B617E1314";
paths = (
{
closed = 1;
nodes = (
"127 23 OFFCURVE",
"249 -33 OFFCURVE",
"393 -33 CURVE SMOOTH",
"465 -33 OFFCURVE",
"535 -17 OFFCURVE",
"602 16 CURVE SMOOTH",
"737 80 OFFCURVE",
"827 202 OFFCURVE",
"827 350 CURVE SMOOTH",
"827 498 OFFCURVE",
"697 606 OFFCURVE",
"512 633 CURVE",
"512 643 LINE",
"544 655 OFFCURVE",
"575 670 OFFCURVE",
"606 689 CURVE SMOOTH",
"723 761 OFFCURVE",
"781 851 OFFCURVE",
"781 959 CURVE SMOOTH",
"781 1111 OFFCURVE",
"651 1211 OFFCURVE",
"493 1211 CURVE SMOOTH",
"335 1211 OFFCURVE",
"210 1151 OFFCURVE",
"149 1092 CURVE",
"156 844 LINE",
"220 833 LINE",
"263 1057 LINE",
"310 1110 OFFCURVE",
"364 1137 OFFCURVE",
"426 1137 CURVE SMOOTH",
"550 1137 OFFCURVE",
"614 1037 OFFCURVE",
"614 933 CURVE SMOOTH",
"614 881 OFFCURVE",
"600 833 OFFCURVE",
"572 790 CURVE SMOOTH",
"548 753 OFFCURVE",
"487 683 OFFCURVE",
"364 626 CURVE SMOOTH",
"319 605 LINE",
"325 555 LINE",
"520 551 OFFCURVE",
"661 445 OFFCURVE",
"661 291 CURVE SMOOTH",
"661 137 OFFCURVE",
"558 36 OFFCURVE",
"405 36 CURVE SMOOTH",
"321 36 OFFCURVE",
"241 85 OFFCURVE",
"210 138 CURVE",
"200 342 LINE",
"133 353 LINE",
"88 90 LINE"
);
}
);
width = 959;
},
{
layerId = "B64F7E56-5CD3-4760-9166-7FC8A47137FC";
paths = (
{
closed = 1;
nodes = (
"185 21 OFFCURVE",
"303 -36 OFFCURVE",
"440 -36 CURVE SMOOTH",
"509 -36 OFFCURVE",
"573 -21 OFFCURVE",
"634 10 CURVE SMOOTH",
"754 70 OFFCURVE",
"841 190 OFFCURVE",
"841 337 CURVE SMOOTH",
"841 484 OFFCURVE",
"720 601 OFFCURVE",
"541 628 CURVE",
"541 637 LINE",
"677 688 OFFCURVE",
"793 807 OFFCURVE",
"793 955 CURVE SMOOTH",
"793 1103 OFFCURVE",
"682 1207 OFFCURVE",
"537 1207 CURVE SMOOTH",
"495 1207 OFFCURVE",
"457 1203 OFFCURVE",
"422 1196 CURVE SMOOTH",
"352 1183 OFFCURVE",
"285 1148 OFFCURVE",
"220 1093 CURVE",
"215 864 LINE",
"260 854 LINE",
"299 1054 LINE",
"344 1115 OFFCURVE",
"396 1156 OFFCURVE",
"500 1156 CURVE SMOOTH",
"603 1156 OFFCURVE",
"671 1051 OFFCURVE",
"671 936 CURVE SMOOTH",
"671 879 OFFCURVE",
"656 829 OFFCURVE",
"626 788 CURVE SMOOTH",
"598 749 LINE",
"589 738 OFFCURVE",
"577 727 OFFCURVE",
"562 714 CURVE SMOOTH",
"526 684 LINE SMOOTH",
"517 677 OFFCURVE",
"504 669 OFFCURVE",
"486 658 CURVE SMOOTH",
"438 629 OFFCURVE",
"448 635 OFFCURVE",
"413 616 CURVE SMOOTH",
"395 607 OFFCURVE",
"384 601 OFFCURVE",
"381 599 CURVE",
"383 565 LINE",
"583 556 OFFCURVE",
"724 458 OFFCURVE",
"724 291 CURVE SMOOTH",
"724 123 OFFCURVE",
"613 15 OFFCURVE",
"462 15 CURVE SMOOTH",
"363 15 OFFCURVE",
"269 73 OFFCURVE",
"233 136 CURVE",
"227 323 LINE",
"177 333 LINE",
"138 106 LINE"
);
}
);
width = 1000;
}
);
note = three;
unicode = 0033;
},
{
glyphname = four;
lastChange = "2016-08-10 08:02:47 +0000";
layers = (
{
layerId = "DEC179DC-8547-47B6-92D4-65C3F1BBEDD1";
paths = (
{
closed = 1;
nodes = (
"531 514 LINE",
"315 514 LINE",
"531 817 LINE"
);
},
{
closed = 1;
nodes = (
"532 319 LINE",
"532 182 LINE",
"284 107 LINE",
"280 -2 LINE",
"1074 -2 LINE",
"1082 126 LINE",
"860 183 LINE",
"860 316 LINE",
"1099 316 LINE",
"1115 514 LINE",
"860 514 LINE",
"860 682 LINE SMOOTH",
"860 874 OFFCURVE",
"864 1050 OFFCURVE",
"872 1210 CURVE",
"746 1243 LINE",
"0 464 LINE",
"25 319 LINE"
);
}
);
width = 1115;
},
{
layerId = "CE2484D1-EC55-40DA-BA6C-521C673DBDD6";
paths = (
{
closed = 1;
nodes = (
"512 496 LINE",
"240 496 LINE",
"512 864 LINE"
);
},
{
closed = 1;
nodes = (
"514 334 LINE",
"514 150 LINE",
"272 90 LINE",
"267 -1 LINE",
"974 -1 LINE",
"984 102 LINE",
"768 147 LINE",
"768 331 LINE",
"1007 331 LINE",
"1023 496 LINE",
"768 496 LINE",
"768 682 LINE SMOOTH",
"768 876 OFFCURVE",
"772 1046 OFFCURVE",
"779 1193 CURVE",
"684 1218 LINE",
"-10 448 LINE",
"14 334 LINE"
);
}
);
width = 1029;
},
{
layerId = "A76B26BC-A350-47F3-8273-F323BC23B531";
paths = (
{
closed = 1;
nodes = (
"713 354 LINE",
"952 354 LINE",
"968 479 LINE",
"713 479 LINE",
"713 683 LINE SMOOTH",
"713 892 OFFCURVE",
"716 1057 OFFCURVE",
"723 1176 CURVE",
"657 1194 LINE",
"39 431 LINE",
"63 357 LINE",
"549 357 LINE",
"549 -12 LINE",
"713 15 LINE"
);
},
{
closed = 1;
nodes = (
"545 910 LINE",
"545 479 LINE",
"208 479 LINE"
);
}
);
width = 1005;
},
{
layerId = "52F1D99C-0FFA-4FAD-B979-579B617E1314";
paths = (
{
closed = 1;
nodes = (
"548 462 LINE",
"186 462 LINE",
"548 948 LINE"
);
},
{
closed = 1;
nodes = (
"552 361 LINE",
"552 95 LINE",
"305 57 LINE",
"298 0 LINE",
"890 0 LINE",
"901 64 LINE",
"695 89 LINE",
"695 357 LINE",
"934 357 LINE",
"950 462 LINE",
"695 462 LINE",
"695 683 LINE SMOOTH",
"695 893 OFFCURVE",
"698 1057 OFFCURVE",
"704 1176 CURVE",
"655 1191 LINE",
"38 415 LINE",
"57 361 LINE"
);
}
);
width = 972;
},
{
layerId = "B64F7E56-5CD3-4760-9166-7FC8A47137FC";
paths = (
{
closed = 1;
nodes = (
"604 444 LINE",
"208 444 LINE",
"604 984 LINE"
);
},
{
closed = 1;
nodes = (
"607 372 LINE",
"607 73 LINE",
"350 43 LINE",
"342 1 LINE",
"905 1 LINE",
"915 47 LINE",
"713 66 LINE",
"713 369 LINE",
"952 369 LINE",
"969 444 LINE",
"713 444 LINE",
"713 683 LINE SMOOTH",
"713 910 OFFCURVE",
"716 1074 OFFCURVE",
"722 1175 CURVE",
"688 1187 LINE",
"98 398 LINE",
"112 372 LINE"
);
}
);
width = 1000;
}
);
note = four;
unicode = 0034;
},
{
glyphname = five;
lastChange = "2016-08-10 08:02:47 +0000";
layers = (
{
layerId = "DEC179DC-8547-47B6-92D4-65C3F1BBEDD1";
paths = (
{
closed = 1;
nodes = (
"57 -30 OFFCURVE",
"182 -52 OFFCURVE",
"283 -52 CURVE SMOOTH",
"422 -52 OFFCURVE",
"546 -15 OFFCURVE",
"655 60 CURVE SMOOTH",
"759 132 OFFCURVE",
"829 252 OFFCURVE",
"829 369 CURVE SMOOTH",
"829 428 OFFCURVE",
"819 480 OFFCURVE",
"798 525 CURVE SMOOTH",
"726 686 OFFCURVE",
"564 768 OFFCURVE",
"312 770 CURVE",
"324 875 LINE",
"722 888 LINE",
"765 1198 LINE",
"216 1166 LINE",
"93 519 LINE",
"200 519 OFFCURVE",
"289 499 OFFCURVE",
"358 458 CURVE SMOOTH",
"390 440 OFFCURVE",
"417 419 OFFCURVE",
"440 396 CURVE",
"484 348 OFFCURVE",
"504 303 OFFCURVE",
"504 230 CURVE SMOOTH",
"504 157 OFFCURVE",
"446 101 OFFCURVE",
"360 101 CURVE SMOOTH",
"317 101 OFFCURVE",
"286 106 OFFCURVE",
"269 117 CURVE",
"227 392 LINE",
"77 428 LINE",
"0 7 LINE"
);
}
);
width = 806;
},
{
layerId = "CE2484D1-EC55-40DA-BA6C-521C673DBDD6";
paths = (
{
closed = 1;
nodes = (
"51 -12 OFFCURVE",
"130 -38 OFFCURVE",
"229 -38 CURVE SMOOTH",
"328 -38 OFFCURVE",
"416 -21 OFFCURVE",
"494 13 CURVE SMOOTH",
"649 81 OFFCURVE",
"759 222 OFFCURVE",
"759 351 CURVE SMOOTH",
"759 416 OFFCURVE",
"750 470 OFFCURVE",
"732 515 CURVE SMOOTH",
"667 675 OFFCURVE",
"508 759 OFFCURVE",
"254 766 CURVE",
"278 938 LINE",
"670 952 LINE",
"705 1198 LINE",
"196 1168 LINE",
"75 560 LINE",
"356 551 OFFCURVE",
"508 437 OFFCURVE",
"508 269 CURVE SMOOTH",
"508 156 OFFCURVE",
"427 84 OFFCURVE",
"316 84 CURVE SMOOTH",
"261 84 OFFCURVE",
"219 101 OFFCURVE",
"191 136 CURVE",
"160 380 LINE",
"42 408 LINE",
"-10 40 LINE"
);
}
);
width = 862;
},
{
layerId = "A76B26BC-A350-47F3-8273-F323BC23B531";
paths = (
{
closed = 1;
nodes = (
"491 -36 OFFCURVE",
"655 21 OFFCURVE",
"750 103 CURVE SMOOTH",
"845 185 OFFCURVE",
"892 282 OFFCURVE",
"892 387 CURVE SMOOTH",
"892 622 OFFCURVE",
"701 783 OFFCURVE",
"370 803 CURVE",
"423 1021 LINE",
"790 1040 LINE",
"814 1198 LINE",
"370 1170 LINE",
"243 659 LINE",
"567 638 OFFCURVE",
"708 526 OFFCURVE",
"708 322 CURVE SMOOTH",
"708 177 OFFCURVE",
"545 70 OFFCURVE",
"266 43 CURVE",
"284 -49 LINE"
);
}
);
width = 1005;
},
{
layerId = "52F1D99C-0FFA-4FAD-B979-579B617E1314";
paths = (
{
closed = 1;
nodes = (
"147 19 OFFCURVE",
"241 -16 OFFCURVE",
"358 -16 CURVE SMOOTH",
"591 -16 OFFCURVE",
"776 159 OFFCURVE",
"776 368 CURVE SMOOTH",
"776 422 OFFCURVE",
"767 471 OFFCURVE",
"748 516 CURVE SMOOTH",
"683 671 OFFCURVE",
"526 756 OFFCURVE",
"279 771 CURVE",
"323 1032 LINE",
"708 1049 LINE",
"729 1198 LINE",
"280 1171 LINE",
"165 639 LINE",
"454 620 OFFCURVE",
"629 505 OFFCURVE",
"629 308 CURVE SMOOTH",
"629 157 OFFCURVE",
"542 58 OFFCURVE",
"385 58 CURVE SMOOTH",
"306 58 OFFCURVE",
"241 90 OFFCURVE",
"188 155 CURVE",
"170 355 LINE",
"103 369 LINE",
"75 88 LINE"
);
}
);
width = 959;
},
{
layerId = "B64F7E56-5CD3-4760-9166-7FC8A47137FC";
paths = (
{
closed = 1;
nodes = (
"250 30 OFFCURVE",
"347 -7 OFFCURVE",
"459 -7 CURVE SMOOTH",
"682 -7 OFFCURVE",
"863 169 OFFCURVE",
"863 383 CURVE SMOOTH",
"863 597 OFFCURVE",
"678 755 OFFCURVE",
"363 779 CURVE",
"414 1063 LINE",
"797 1081 LINE",
"813 1198 LINE",
"385 1171 LINE",
"274 677 LINE",
"543 661 OFFCURVE",
"744 518 OFFCURVE",
"744 336 CURVE SMOOTH",
"744 154 OFFCURVE",
"649 47 OFFCURVE",
"487 47 CURVE SMOOTH",
"406 47 OFFCURVE",
"331 83 OFFCURVE",
"263 154 CURVE",
"248 340 LINE",
"200 351 LINE",
"169 103 LINE"
);
}
);
width = 1000;
}
);
note = five;
unicode = 0035;
},
{
glyphname = six;
lastChange = "2016-08-10 08:02:47 +0000";
layers = (
{
layerId = "DEC179DC-8547-47B6-92D4-65C3F1BBEDD1";
paths = (
{
closed = 1;
nodes = (
"372 403 OFFCURVE",
"374 448 OFFCURVE",
"378 500 CURVE",
"410 536 OFFCURVE",
"444 554 OFFCURVE",
"479 554 CURVE SMOOTH",
"514 554 OFFCURVE",
"539 542 OFFCURVE",
"552 519 CURVE SMOOTH",
"564 496 OFFCURVE",
"573 476 OFFCURVE",
"575 442 CURVE SMOOTH",
"577 408 OFFCURVE",
"577 392 OFFCURVE",
"576 360 CURVE SMOOTH",
"575 344 OFFCURVE",
"575 334 OFFCURVE",
"575 330 CURVE SMOOTH",
"575 264 OFFCURVE",
"565 213 OFFCURVE",
"544 177 CURVE SMOOTH",
"523 140 OFFCURVE",
"500 122 OFFCURVE",
"473 122 CURVE SMOOTH",
"406 122 OFFCURVE",
"372 203 OFFCURVE",
"372 366 CURVE SMOOTH"
);
},
{
closed = 1;
nodes = (
"285 2 OFFCURVE",
"370 -19 OFFCURVE",
"467 -19 CURVE SMOOTH",
"661 -19 OFFCURVE",
"943 76 OFFCURVE",
"943 403 CURVE SMOOTH",
"943 608 OFFCURVE",
"801 756 OFFCURVE",
"623 756 CURVE SMOOTH",
"534 756 OFFCURVE",
"461 725 OFFCURVE",
"404 664 CURVE",
"385 664 LINE",
"422 843 OFFCURVE",
"609 1014 OFFCURVE",
"816 1125 CURVE",
"749 1215 LINE",
"612 1180 OFFCURVE",
"483 1121 OFFCURVE",
"362 1036 CURVE SMOOTH",
"294 988 OFFCURVE",
"234 935 OFFCURVE",
"181 878 CURVE SMOOTH",
"76 762 OFFCURVE",
"0 593 OFFCURVE",
"0 426 CURVE SMOOTH",
"0 258 OFFCURVE",
"69 125 OFFCURVE",
"213 43 CURVE SMOOTH"
);
}
);
width = 943;
},
{
layerId = "CE2484D1-EC55-40DA-BA6C-521C673DBDD6";
paths = (
{
closed = 1;
nodes = (
"351 550 OFFCURVE",
"406 580 OFFCURVE",
"466 580 CURVE SMOOTH",
"562 580 OFFCURVE",
"610 496 OFFCURVE",
"610 329 CURVE SMOOTH",
"610 171 OFFCURVE",
"560 92 OFFCURVE",
"461 92 CURVE SMOOTH",
"428 92 OFFCURVE",
"401 107 OFFCURVE",
"379 138 CURVE SMOOTH",
"334 198 OFFCURVE",
"317 295 OFFCURVE",
"317 360 CURVE SMOOTH",
"317 393 OFFCURVE",
"319 444 OFFCURVE",
"324 514 CURVE"
);
},
{
closed = 1;
nodes = (
"30 173 OFFCURVE",
"174 -20 OFFCURVE",
"455 -20 CURVE SMOOTH",
"568 -20 OFFCURVE",
"669 14 OFFCURVE",
"756 82 CURVE SMOOTH",
"840 147 OFFCURVE",
"896 257 OFFCURVE",
"896 386 CURVE SMOOTH",
"896 597 OFFCURVE",
"759 732 OFFCURVE",
"571 732 CURVE SMOOTH",
"477 732 OFFCURVE",
"401 700 OFFCURVE",
"344 636 CURVE",
"328 636 LINE",
"368 832 OFFCURVE",
"540 1032 OFFCURVE",
"760 1140 CURVE",
"708 1214 LINE",
"579 1177 OFFCURVE",
"457 1110 OFFCURVE",
"340 1011 CURVE SMOOTH",
"281 961 OFFCURVE",
"228 906 OFFCURVE",
"182 847 CURVE SMOOTH",
"90 727 OFFCURVE",
"30 568 OFFCURVE",
"30 432 CURVE SMOOTH"
);
}
);
width = 911;
},
{
layerId = "A76B26BC-A350-47F3-8273-F323BC23B531";
paths = (
{
closed = 1;
nodes = (
"356 824 OFFCURVE",
"515 1043 OFFCURVE",
"760 1156 CURVE",
"723 1214 LINE",
"619 1180 OFFCURVE",
"521 1122 OFFCURVE",
"428 1040 CURVE SMOOTH",
"242 876 OFFCURVE",
"116 638 OFFCURVE",
"116 421 CURVE SMOOTH",
"116 301 OFFCURVE",
"145 196 OFFCURVE",
"205 113 CURVE SMOOTH",
"264 29 OFFCURVE",
"366 -21 OFFCURVE",
"498 -21 CURVE SMOOTH",
"569 -21 OFFCURVE",
"636 -4 OFFCURVE",
"698 30 CURVE SMOOTH",
"821 97 OFFCURVE",
"898 221 OFFCURVE",
"898 354 CURVE SMOOTH",
"898 415 OFFCURVE",
"885 472 OFFCURVE",
"859 526 CURVE SMOOTH",
"806 633 OFFCURVE",
"700 708 OFFCURVE",
"575 708 CURVE SMOOTH",
"472 708 OFFCURVE",
"371 664 OFFCURVE",
"324 609 CURVE",
"313 609 LINE"
);
},
{
closed = 1;
nodes = (
"466 61 OFFCURVE",
"430 78 OFFCURVE",
"399 113 CURVE SMOOTH",
"336 181 OFFCURVE",
"303 291 OFFCURVE",
"303 406 CURVE SMOOTH",
"303 443 OFFCURVE",
"305 483 OFFCURVE",
"310 527 CURVE",
"335 564 OFFCURVE",
"431 606 OFFCURVE",
"502 606 CURVE SMOOTH",
"570 606 OFFCURVE",
"629 572 OFFCURVE",
"663 518 CURVE SMOOTH",
"697 464 OFFCURVE",
"716 396 OFFCURVE",
"716 327 CURVE SMOOTH",
"716 160 OFFCURVE",
"657 61 OFFCURVE",
"505 61 CURVE SMOOTH"
);
}
);
width = 1005;
},
{
layerId = "52F1D99C-0FFA-4FAD-B979-579B617E1314";
paths = (
{
closed = 1;
nodes = (
"283 464 OFFCURVE",
"285 508 OFFCURVE",
"290 540 CURVE",
"318 580 OFFCURVE",
"399 619 OFFCURVE",
"484 619 CURVE SMOOTH",
"628 619 OFFCURVE",
"712 491 OFFCURVE",
"712 327 CURVE SMOOTH",
"712 138 OFFCURVE",
"641 44 OFFCURVE",
"499 44 CURVE SMOOTH",
"376 44 OFFCURVE",
"283 199 OFFCURVE",
"283 407 CURVE SMOOTH"
);
},
{
closed = 1;
nodes = (
"120 361 OFFCURVE",
"127 305 OFFCURVE",
"140 254 CURVE SMOOTH",
"189 71 OFFCURVE",
"303 -21 OFFCURVE",
"484 -21 CURVE SMOOTH",
"703 -21 OFFCURVE",
"875 144 OFFCURVE",
"875 356 CURVE SMOOTH",
"875 568 OFFCURVE",
"750 709 OFFCURVE",
"556 709 CURVE SMOOTH",
"459 709 OFFCURVE",
"374 676 OFFCURVE",
"302 609 CURVE",
"293 609 LINE",
"346 875 OFFCURVE",
"490 1060 OFFCURVE",
"723 1164 CURVE",
"694 1214 LINE",
"373 1103 OFFCURVE",
"120 757 OFFCURVE",
"120 422 CURVE SMOOTH"
);
}
);
width = 940;
},
{
layerId = "B64F7E56-5CD3-4760-9166-7FC8A47137FC";
paths = (
{
closed = 1;
nodes = (
"302 471 OFFCURVE",
"305 519 OFFCURVE",
"312 553 CURVE",
"341 594 OFFCURVE",
"421 631 OFFCURVE",
"521 631 CURVE SMOOTH",
"678 631 OFFCURVE",
"779 506 OFFCURVE",
"779 322 CURVE SMOOTH",
"779 137 OFFCURVE",
"700 27 OFFCURVE",
"558 27 CURVE SMOOTH",
"416 27 OFFCURVE",
"302 176 OFFCURVE",
"302 408 CURVE SMOOTH"
);
},
{
closed = 1;
nodes = (
"182 361 OFFCURVE",
"188 305 OFFCURVE",
"200 254 CURVE SMOOTH",
"245 70 OFFCURVE",
"353 -22 OFFCURVE",
"526 -22 CURVE SMOOTH",
"741 -22 OFFCURVE",
"899 144 OFFCURVE",
"899 353 CURVE SMOOTH",
"899 488 OFFCURVE",
"853 590 OFFCURVE",
"760 658 CURVE SMOOTH",
"713 692 OFFCURVE",
"653 709 OFFCURVE",
"582 709 CURVE SMOOTH",
"511 709 OFFCURVE",
"446 691 OFFCURVE",
"388 656 CURVE SMOOTH",
"368 644 OFFCURVE",
"345 628 OFFCURVE",
"320 609 CURVE",
"313 609 LINE",
"322 654 OFFCURVE",
"332 695 OFFCURVE",
"344 732 CURVE SMOOTH",
"409 937 OFFCURVE",
"542 1083 OFFCURVE",
"743 1171 CURVE",
"722 1213 LINE",
"399 1097 OFFCURVE",
"182 763 OFFCURVE",
"182 422 CURVE SMOOTH"
);
}
);
width = 1000;
}
);
note = six;
unicode = 0036;
},
{
glyphname = seven;
lastChange = "2016-08-10 08:02:47 +0000";
layers = (
{
layerId = "DEC179DC-8547-47B6-92D4-65C3F1BBEDD1";
paths = (
{
closed = 1;
nodes = (
"233 888 LINE",
"600 888 LINE",
"51 6 LINE",
"447 -33 LINE",
"899 1057 LINE",
"899 1184 LINE",
"13 1184 LINE",
"0 682 LINE",
"132 655 LINE"
);
}
);
width = 899;
},
{
layerId = "CE2484D1-EC55-40DA-BA6C-521C673DBDD6";
paths = (
{
closed = 1;
nodes = (
"191 952 LINE",
"631 952 LINE",
"112 -2 LINE",
"414 -33 LINE",
"858 1094 LINE",
"858 1183 LINE",
"21 1183 LINE",
"2 746 LINE",
"103 726 LINE"
);
}
);
width = 868;
},
{
layerId = "A76B26BC-A350-47F3-8273-F323BC23B531";
paths = (
{
closed = 1;
nodes = (
"502 -33 LINE",
"931 1129 LINE",
"931 1183 LINE",
"159 1183 LINE",
"134 906 LINE",
"203 893 LINE",
"254 1031 LINE",
"768 1031 LINE",
"408 -3 LINE"
);
}
);
width = 1005;
},
{
layerId = "52F1D99C-0FFA-4FAD-B979-579B617E1314";
paths = (
{
closed = 1;
nodes = (
"205 1047 LINE",
"756 1047 LINE",
"282 -16 LINE",
"441 -33 LINE",
"874 1130 LINE",
"874 1182 LINE",
"111 1182 LINE",
"83 829 LINE",
"137 820 LINE"
);
}
);
width = 919;
},
{
layerId = "B64F7E56-5CD3-4760-9166-7FC8A47137FC";
paths = (
{
closed = 1;
nodes = (
"262 1078 LINE",
"849 1078 LINE",
"390 -20 LINE",
"501 -33 LINE",
"931 1130 LINE",
"931 1182 LINE",
"192 1182 LINE",
"162 848 LINE",
"200 843 LINE"
);
}
);
width = 1000;
}
);
note = seven;
unicode = 0037;
},
{
glyphname = eight;
lastChange = "2016-08-10 08:02:47 +0000";
layers = (
{
layerId = "DEC179DC-8547-47B6-92D4-65C3F1BBEDD1";
paths = (
{
closed = 1;
nodes = (
"526 1063 OFFCURVE",
"589 989 OFFCURVE",
"589 878 CURVE SMOOTH",
"589 823 OFFCURVE",
"576 786 OFFCURVE",
"550 769 CURVE",
"459 825 OFFCURVE",
"400 924 OFFCURVE",
"400 980 CURVE SMOOTH",
"400 1035 OFFCURVE",
"421 1063 OFFCURVE",
"463 1063 CURVE SMOOTH"
);
},
{
closed = 1;
nodes = (
"342 353 OFFCURVE",
"341 368 OFFCURVE",
"340 391 CURVE SMOOTH",
"339 414 OFFCURVE",
"344 435 OFFCURVE",
"356 454 CURVE",
"378 436 OFFCURVE",
"431 394 OFFCURVE",
"514 328 CURVE SMOOTH",
"532 314 OFFCURVE",
"550 299 OFFCURVE",
"568 283 CURVE SMOOTH",
"603 250 OFFCURVE",
"616 225 OFFCURVE",
"616 190 CURVE SMOOTH",
"616 155 OFFCURVE",
"573 115 OFFCURVE",
"518 115 CURVE SMOOTH",
"401 115 OFFCURVE",
"342 214 OFFCURVE",
"342 347 CURVE SMOOTH"
);
},
{
closed = 1;
nodes = (
"0 231 OFFCURVE",
"9 195 OFFCURVE",
"26 160 CURVE SMOOTH",
"89 35 OFFCURVE",
"226 -27 OFFCURVE",
"437 -27 CURVE SMOOTH",
"734 -27 OFFCURVE",
"949 135 OFFCURVE",
"949 331 CURVE SMOOTH",
"949 450 OFFCURVE",
"876 548 OFFCURVE",
"696 665 CURVE",
"695 681 LINE",
"814 737 OFFCURVE",
"888 833 OFFCURVE",
"888 925 CURVE SMOOTH",
"888 1072 OFFCURVE",
"734 1199 OFFCURVE",
"505 1199 CURVE SMOOTH",
"198 1199 OFFCURVE",
"45 1042 OFFCURVE",
"45 863 CURVE SMOOTH",
"45 760 OFFCURVE",
"101 663 OFFCURVE",
"214 573 CURVE",
"214 558 LINE",
"71 500 OFFCURVE",
"0 404 OFFCURVE",
"0 270 CURVE SMOOTH"
);
}
);
width = 941;
},
{
layerId = "CE2484D1-EC55-40DA-BA6C-521C673DBDD6";
paths = (
{
closed = 1;
nodes = (
"526 1094 OFFCURVE",
"595 1005 OFFCURVE",
"595 899 CURVE SMOOTH",
"595 793 OFFCURVE",
"577 756 OFFCURVE",
"524 724 CURVE",
"407 793 OFFCURVE",
"333 894 OFFCURVE",
"333 968 CURVE SMOOTH",
"333 1042 OFFCURVE",
"372 1094 OFFCURVE",
"449 1094 CURVE SMOOTH"
);
},
{
closed = 1;
nodes = (
"492 393 OFFCURVE",
"542 352 OFFCURVE",
"561 332 CURVE SMOOTH",
"580 311 OFFCURVE",
"622 271 OFFCURVE",
"622 214 CURVE SMOOTH",
"622 137 OFFCURVE",
"572 88 OFFCURVE",
"476 88 CURVE SMOOTH",
"379 88 OFFCURVE",
"292 192 OFFCURVE",
"292 305 CURVE SMOOTH",
"292 418 OFFCURVE",
"307 442 OFFCURVE",
"355 494 CURVE",
"468 410 LINE SMOOTH"
);
},
{
closed = 1;
nodes = (
"27 100 OFFCURVE",
"173 -27 OFFCURVE",
"431 -27 CURVE SMOOTH",
"689 -27 OFFCURVE",
"874 121 OFFCURVE",
"874 316 CURVE SMOOTH",
"874 443 OFFCURVE",
"805 526 OFFCURVE",
"630 647 CURVE",
"631 660 LINE",
"746 708 OFFCURVE",
"829 821 OFFCURVE",
"829 926 CURVE SMOOTH",
"829 1077 OFFCURVE",
"691 1200 OFFCURVE",
"464 1200 CURVE SMOOTH",
"237 1200 OFFCURVE",
"72 1048 OFFCURVE",
"72 871 CURVE SMOOTH",
"72 763 OFFCURVE",
"131 665 OFFCURVE",
"250 578 CURVE",
"250 566 LINE",
"101 493 OFFCURVE",
"27 396 OFFCURVE",
"27 275 CURVE SMOOTH"
);
}
);
width = 908;
},
{
layerId = "A76B26BC-A350-47F3-8273-F323BC23B531";
paths = (
{
closed = 1;
nodes = (
"467 532 OFFCURVE",
"496 513 OFFCURVE",
"517 500 CURVE SMOOTH",
"558 473 OFFCURVE",
"629 422 OFFCURVE",
"661 388 CURVE SMOOTH",
"692 354 OFFCURVE",
"720 307 OFFCURVE",
"720 266 CURVE SMOOTH",
"720 130 OFFCURVE",
"653 66 OFFCURVE",
"505 66 CURVE SMOOTH",
"398 66 OFFCURVE",
"290 184 OFFCURVE",
"290 303 CURVE SMOOTH",
"290 317 OFFCURVE",
"291 330 OFFCURVE",
"293 343 CURVE SMOOTH",
"296 368 OFFCURVE",
"299 387 OFFCURVE",
"309 408 CURVE SMOOTH",
"314 419 OFFCURVE",
"317 428 OFFCURVE",
"320 435 CURVE SMOOTH",
"323 442 OFFCURVE",
"328 450 OFFCURVE",
"336 460 CURVE SMOOTH",
"343 469 OFFCURVE",
"349 476 OFFCURVE",
"352 481 CURVE SMOOTH",
"355 486 OFFCURVE",
"361 493 OFFCURVE",
"371 502 CURVE",
"380 511 OFFCURVE",
"387 517 OFFCURVE",
"390 520 CURVE SMOOTH",
"393 523 OFFCURVE",
"399 529 OFFCURVE",
"410 538 CURVE SMOOTH",
"421 547 OFFCURVE",
"427 553 OFFCURVE",
"429 555 CURVE"
);
},
{
closed = 1;
nodes = (
"126 93 OFFCURVE",
"270 -26 OFFCURVE",
"459 -26 CURVE SMOOTH",
"588 -26 OFFCURVE",
"699 11 OFFCURVE",
"769 72 CURVE SMOOTH",
"839 133 OFFCURVE",
"878 216 OFFCURVE",
"878 308 CURVE SMOOTH",
"878 425 OFFCURVE",
"786 540 OFFCURVE",
"631 636 CURVE",
"634 646 LINE",
"746 686 OFFCURVE",
"826 806 OFFCURVE",
"826 926 CURVE SMOOTH",
"826 1081 OFFCURVE",
"700 1201 OFFCURVE",
"515 1201 CURVE SMOOTH",
"420 1201 OFFCURVE",
"331 1162 OFFCURVE",
"271 1104 CURVE SMOOTH",
"210 1046 OFFCURVE",
"172 964 OFFCURVE",
"172 880 CURVE SMOOTH",
"172 816 OFFCURVE",
"200 752 OFFCURVE",
"244 705 CURVE SMOOTH",
"287 657 OFFCURVE",
"327 623 OFFCURVE",
"370 598 CURVE",
"370 590 LINE",
"207 494 OFFCURVE",
"126 391 OFFCURVE",
"126 280 CURVE SMOOTH"
);
},
{
closed = 1;
nodes = (
"409 766 OFFCURVE",
"321 854 OFFCURVE",
"321 955 CURVE SMOOTH",
"321 1044 OFFCURVE",
"382 1124 OFFCURVE",
"489 1124 CURVE SMOOTH",
"597 1124 OFFCURVE",
"680 1029 OFFCURVE",
"680 890 CURVE SMOOTH",
"680 777 OFFCURVE",
"645 724 OFFCURVE",
"565 677 CURVE"
);
}
);
width = 1005;
},
{
layerId = "52F1D99C-0FFA-4FAD-B979-579B617E1314";
paths = (
{
closed = 1;
nodes = (
"583 1141 OFFCURVE",
"674 1030 OFFCURVE",
"674 890 CURVE SMOOTH",
"674 790 OFFCURVE",
"632 712 OFFCURVE",
"547 656 CURVE",
"364 773 OFFCURVE",
"293 854 OFFCURVE",
"293 958 CURVE SMOOTH",
"293 1061 OFFCURVE",
"365 1141 OFFCURVE",
"474 1141 CURVE SMOOTH"
);
},
{
closed = 1;
nodes = (
"618 426 OFFCURVE",
"710 341 OFFCURVE",
"710 230 CURVE SMOOTH",
"710 118 OFFCURVE",
"631 47 OFFCURVE",
"510 47 CURVE SMOOTH",
"389 47 OFFCURVE",
"267 158 OFFCURVE",
"267 295 CURVE SMOOTH",
"267 431 OFFCURVE",
"318 489 OFFCURVE",
"410 557 CURVE"
);
},
{
closed = 1;
nodes = (
"127 101 OFFCURVE",
"263 -27 OFFCURVE",
"470 -27 CURVE SMOOTH",
"677 -27 OFFCURVE",
"840 106 OFFCURVE",
"840 291 CURVE SMOOTH",
"840 422 OFFCURVE",
"769 506 OFFCURVE",
"601 619 CURVE",
"604 625 LINE",
"715 682 OFFCURVE",
"798 794 OFFCURVE",
"798 938 CURVE SMOOTH",
"798 1081 OFFCURVE",
"687 1202 OFFCURVE",
"500 1202 CURVE SMOOTH",
"313 1202 OFFCURVE",
"173 1065 OFFCURVE",
"173 897 CURVE SMOOTH",
"173 780 OFFCURVE",
"234 680 OFFCURVE",
"357 597 CURVE",
"357 590 LINE",
"204 499 OFFCURVE",
"127 396 OFFCURVE",
"127 281 CURVE SMOOTH"
);
}
);
width = 938;
},
{
layerId = "B64F7E56-5CD3-4760-9166-7FC8A47137FC";
paths = (
{
closed = 1;
nodes = (
"486 710 OFFCURVE",
"413 769 OFFCURVE",
"376 812 CURVE SMOOTH",
"339 854 OFFCURVE",
"320 904 OFFCURVE",
"320 962 CURVE SMOOTH",
"320 1077 OFFCURVE",
"408 1156 OFFCURVE",
"522 1156 CURVE SMOOTH",
"636 1156 OFFCURVE",
"746 1030 OFFCURVE",
"746 891 CURVE SMOOTH",
"746 794 OFFCURVE",
"696 708 OFFCURVE",
"597 634 CURVE"
);
},
{
closed = 1;
nodes = (
"596 497 OFFCURVE",
"683 432 OFFCURVE",
"726 386 CURVE SMOOTH",
"769 339 OFFCURVE",
"791 287 OFFCURVE",
"791 230 CURVE SMOOTH",
"791 114 OFFCURVE",
"700 33 OFFCURVE",
"569 33 CURVE SMOOTH",
"437 33 OFFCURVE",
"290 144 OFFCURVE",
"290 325 CURVE SMOOTH",
"290 420 OFFCURVE",
"368 520 OFFCURVE",
"465 580 CURVE"
);
},
{
closed = 1;
nodes = (
"200 106 OFFCURVE",
"331 -27 OFFCURVE",
"519 -27 CURVE SMOOTH",
"707 -27 OFFCURVE",
"880 104 OFFCURVE",
"880 281 CURVE SMOOTH",
"880 406 OFFCURVE",
"806 500 OFFCURVE",
"639 607 CURVE",
"640 610 LINE",
"764 695 OFFCURVE",
"826 801 OFFCURVE",
"826 926 CURVE SMOOTH",
"826 1087 OFFCURVE",
"735 1202 OFFCURVE",
"551 1202 CURVE SMOOTH",
"366 1202 OFFCURVE",
"245 1078 OFFCURVE",
"245 914 CURVE SMOOTH",
"245 795 OFFCURVE",
"305 693 OFFCURVE",
"426 610 CURVE",
"426 605 LINE",
"278 516 OFFCURVE",
"200 397 OFFCURVE",
"200 281 CURVE SMOOTH"
);
}
);
width = 1000;
}
);
note = eight;
unicode = 0038;
},
{
glyphname = nine;
lastChange = "2016-08-10 08:02:47 +0000";
layers = (
{
layerId = "DEC179DC-8547-47B6-92D4-65C3F1BBEDD1";
paths = (
{
closed = 1;
nodes = (
"504 1067 OFFCURVE",
"537 988 OFFCURVE",
"537 828 CURVE SMOOTH",
"537 753 OFFCURVE",
"534 696 OFFCURVE",
"529 659 CURVE",
"501 635 OFFCURVE",
"471 623 OFFCURVE",
"440 623 CURVE SMOOTH",
"387 623 OFFCURVE",
"360 701 OFFCURVE",
"360 857 CURVE SMOOTH",
"360 934 OFFCURVE",
"366 988 OFFCURVE",
"378 1019 CURVE SMOOTH",
"390 1050 OFFCURVE",
"410 1065 OFFCURVE",
"439 1066 CURVE SMOOTH"
);
},
{
closed = 1;
nodes = (
"0 537 OFFCURVE",
"157 422 OFFCURVE",
"305 422 CURVE SMOOTH",
"406 422 OFFCURVE",
"478 440 OFFCURVE",
"519 476 CURVE",
"527 467 LINE",
"499 300 OFFCURVE",
"368 166 OFFCURVE",
"176 90 CURVE",
"225 -25 LINE",
"359 -13 OFFCURVE",
"479 31 OFFCURVE",
"585 106 CURVE SMOOTH",
"797 256 OFFCURVE",
"918 504 OFFCURVE",
"918 781 CURVE SMOOTH",
"918 1057 OFFCURVE",
"770 1217 OFFCURVE",
"457 1217 CURVE SMOOTH",
"332 1217 OFFCURVE",
"226 1179 OFFCURVE",
"139 1102 CURVE SMOOTH",
"54 1027 OFFCURVE",
"0 900 OFFCURVE",
"0 773 CURVE SMOOTH"
);
}
);
width = 918;
},
{
layerId = "CE2484D1-EC55-40DA-BA6C-521C673DBDD6";
paths = (
{
closed = 1;
nodes = (
"300 1024 OFFCURVE",
"335 1098 OFFCURVE",
"428 1098 CURVE SMOOTH",
"521 1098 OFFCURVE",
"573 979 OFFCURVE",
"573 831 CURVE SMOOTH",
"573 757 OFFCURVE",
"570 700 OFFCURVE",
"564 660 CURVE",
"532 619 OFFCURVE",
"489 599 OFFCURVE",
"434 599 CURVE SMOOTH",
"345 599 OFFCURVE",
"300 685 OFFCURVE",
"300 856 CURVE SMOOTH"
);
},
{
closed = 1;
nodes = (
"20 568 OFFCURVE",
"147 444 OFFCURVE",
"332 444 CURVE SMOOTH",
"425 444 OFFCURVE",
"498 471 OFFCURVE",
"552 526 CURVE",
"562 521 LINE",
"537 302 OFFCURVE",
"423 151 OFFCURVE",
"176 68 CURVE",
"212 -26 LINE",
"341 -9 OFFCURVE",
"455 37 OFFCURVE",
"555 112 CURVE SMOOTH",
"755 262 OFFCURVE",
"866 501 OFFCURVE",
"866 772 CURVE SMOOTH",
"866 836 OFFCURVE",
"858 894 OFFCURVE",
"841 947 CURVE SMOOTH",
"785 1125 OFFCURVE",
"653 1214 OFFCURVE",
"444 1214 CURVE SMOOTH",
"333 1214 OFFCURVE",
"235 1176 OFFCURVE",
"152 1100 CURVE SMOOTH",
"72 1028 OFFCURVE",
"20 912 OFFCURVE",
"20 780 CURVE SMOOTH"
);
}
);
width = 895;
},
{
layerId = "A76B26BC-A350-47F3-8273-F323BC23B531";
paths = (
{
closed = 1;
nodes = (
"689 446 OFFCURVE",
"659 349 OFFCURVE",
"593 257 CURVE SMOOTH",
"527 165 OFFCURVE",
"414 95 OFFCURVE",
"254 48 CURVE",
"277 -26 LINE",
"400 -5 OFFCURVE",
"509 43 OFFCURVE",
"603 118 CURVE SMOOTH",
"790 266 OFFCURVE",
"892 498 OFFCURVE",
"892 763 CURVE SMOOTH",
"892 811 OFFCURVE",
"887 857 OFFCURVE",
"878 900 CURVE SMOOTH",
"859 987 OFFCURVE",
"818 1065 OFFCURVE",
"759 1121 CURVE SMOOTH",
"700 1176 OFFCURVE",
"613 1211 OFFCURVE",
"512 1211 CURVE SMOOTH",
"417 1211 OFFCURVE",
"318 1164 OFFCURVE",
"244 1092 CURVE SMOOTH",
"170 1019 OFFCURVE",
"119 911 OFFCURVE",
"119 803 CURVE SMOOTH",
"119 615 OFFCURVE",
"247 467 OFFCURVE",
"436 467 CURVE SMOOTH",
"528 467 OFFCURVE",
"640 510 OFFCURVE",
"687 575 CURVE",
"700 575 LINE"
);
},
{
closed = 1;
nodes = (
"542 1129 OFFCURVE",
"577 1114 OFFCURVE",
"610 1083 CURVE SMOOTH",
"674 1021 OFFCURVE",
"713 914 OFFCURVE",
"713 806 CURVE SMOOTH",
"713 747 OFFCURVE",
"710 699 OFFCURVE",
"703 662 CURVE",
"674 613 OFFCURVE",
"580 575 OFFCURVE",
"508 575 CURVE SMOOTH",
"373 575 OFFCURVE",
"287 701 OFFCURVE",
"287 846 CURVE SMOOTH",
"287 1027 OFFCURVE",
"360 1129 OFFCURVE",
"505 1129 CURVE SMOOTH"
);
}
);
width = 1005;
},
{
layerId = "52F1D99C-0FFA-4FAD-B979-579B617E1314";
paths = (
{
closed = 1;
nodes = (
"594 1144 OFFCURVE",
"688 996 OFFCURVE",
"688 793 CURVE SMOOTH",
"688 732 OFFCURVE",
"685 685 OFFCURVE",
"679 651 CURVE",
"648 604 OFFCURVE",
"572 565 OFFCURVE",
"488 565 CURVE SMOOTH",
"344 565 OFFCURVE",
"264 685 OFFCURVE",
"264 862 CURVE SMOOTH",
"264 1050 OFFCURVE",
"334 1144 OFFCURVE",
"473 1144 CURVE SMOOTH"
);
},
{
closed = 1;
nodes = (
"509 472 OFFCURVE",
"593 507 OFFCURVE",
"666 576 CURVE",
"676 576 LINE",
"662 477 OFFCURVE",
"635 390 OFFCURVE",
"595 316 CURVE SMOOTH",
"520 178 OFFCURVE",
"394 83 OFFCURVE",
"217 31 CURVE",
"236 -27 LINE",
"357 -4 OFFCURVE",
"465 46 OFFCURVE",
"560 125 CURVE SMOOTH",
"749 282 OFFCURVE",
"850 519 OFFCURVE",
"850 742 CURVE SMOOTH",
"850 965 OFFCURVE",
"777 1209 OFFCURVE",
"488 1209 CURVE SMOOTH",
"280 1209 OFFCURVE",
"106 1037 OFFCURVE",
"106 825 CURVE SMOOTH",
"106 612 OFFCURVE",
"218 472 OFFCURVE",
"412 472 CURVE SMOOTH"
);
}
);
width = 937;
},
{
layerId = "B64F7E56-5CD3-4760-9166-7FC8A47137FC";
paths = (
{
closed = 1;
nodes = (
"654 1157 OFFCURVE",
"768 1011 OFFCURVE",
"768 779 CURVE SMOOTH",
"768 718 OFFCURVE",
"765 672 OFFCURVE",
"758 640 CURVE",
"727 597 OFFCURVE",
"647 555 OFFCURVE",
"548 555 CURVE SMOOTH",
"391 555 OFFCURVE",
"288 681 OFFCURVE",
"288 865 CURVE SMOOTH",
"288 1049 OFFCURVE",
"370 1157 OFFCURVE",
"512 1157 CURVE SMOOTH"
);
},
{
closed = 1;
nodes = (
"172 698 OFFCURVE",
"218 597 OFFCURVE",
"310 530 CURVE SMOOTH",
"357 495 OFFCURVE",
"416 478 OFFCURVE",
"487 478 CURVE SMOOTH",
"557 478 OFFCURVE",
"621 495 OFFCURVE",
"678 530 CURVE",
"698 541 OFFCURVE",
"721 557 OFFCURVE",
"747 577 CURVE",
"754 577 LINE",
"735 485 OFFCURVE",
"703 400 OFFCURVE",
"656 321 CURVE SMOOTH",
"565 169 OFFCURVE",
"433 67 OFFCURVE",
"260 15 CURVE",
"274 -27 LINE",
"566 29 OFFCURVE",
"785 277 OFFCURVE",
"858 554 CURVE SMOOTH",
"877 622 OFFCURVE",
"886 688 OFFCURVE",
"886 752 CURVE SMOOTH",
"886 816 OFFCURVE",
"880 874 OFFCURVE",
"868 926 CURVE SMOOTH",
"823 1113 OFFCURVE",
"714 1207 OFFCURVE",
"543 1207 CURVE SMOOTH",
"328 1207 OFFCURVE",
"172 1042 OFFCURVE",
"172 833 CURVE SMOOTH"
);
}
);
width = 1000;
}
);
note = nine;
unicode = 0039;
},
{
glyphname = colon;
lastChange = "2016-08-10 08:02:47 +0000";
layers = (
{
layerId = "DEC179DC-8547-47B6-92D4-65C3F1BBEDD1";
paths = (
{
closed = 1;
nodes = (
"0 47 OFFCURVE",
"64 -2 OFFCURVE",
"192 -2 CURVE SMOOTH",
"320 -2 OFFCURVE",
"384 47 OFFCURVE",
"384 146 CURVE SMOOTH",
"384 222 OFFCURVE",
"327 289 OFFCURVE",
"191 289 CURVE SMOOTH",
"54 289 OFFCURVE",
"0 220 OFFCURVE",
"0 144 CURVE SMOOTH"
);
},
{
closed = 1;
nodes = (
"0 662 OFFCURVE",
"64 613 OFFCURVE",
"192 613 CURVE SMOOTH",
"320 613 OFFCURVE",
"384 663 OFFCURVE",
"384 762 CURVE SMOOTH",
"384 797 OFFCURVE",
"371 828 OFFCURVE",
"345 856 CURVE SMOOTH",
"317 885 OFFCURVE",
"270 904 OFFCURVE",
"166 904 CURVE SMOOTH",
"62 904 OFFCURVE",
"0 835 OFFCURVE",
"0 759 CURVE SMOOTH"
);
}
);
width = 405;
},
{
layerId = "CE2484D1-EC55-40DA-BA6C-521C673DBDD6";
paths = (
{
closed = 1;
nodes = (
"353 805 OFFCURVE",
"300 858 OFFCURVE",
"202 858 CURVE SMOOTH",
"104 858 OFFCURVE",
"52 804 OFFCURVE",
"52 737 CURVE SMOOTH",
"52 669 OFFCURVE",
"99 615 OFFCURVE",
"200 615 CURVE SMOOTH",
"300 615 OFFCURVE",
"353 668 OFFCURVE",
"353 737 CURVE SMOOTH"
);
},
{
closed = 1;
nodes = (
"300 -13 OFFCURVE",
"353 40 OFFCURVE",
"353 109 CURVE SMOOTH",
"353 177 OFFCURVE",
"300 230 OFFCURVE",
"202 230 CURVE SMOOTH",
"104 230 OFFCURVE",
"52 176 OFFCURVE",
"52 109 CURVE SMOOTH",
"52 41 OFFCURVE",
"99 -13 OFFCURVE",
"200 -13 CURVE SMOOTH"
);
}
);
width = 405;
},
{
layerId = "A76B26BC-A350-47F3-8273-F323BC23B531";
paths = (
{
closed = 1;
nodes = (
"105 802 OFFCURVE",
"94 777 OFFCURVE",
"94 747 CURVE SMOOTH",
"94 682 OFFCURVE",
"143 629 OFFCURVE",
"206 629 CURVE SMOOTH",
"269 629 OFFCURVE",
"319 681 OFFCURVE",
"319 745 CURVE SMOOTH",
"319 805 OFFCURVE",
"269 852 OFFCURVE",
"207 852 CURVE SMOOTH",
"176 852 OFFCURVE",
"149 842 OFFCURVE",
"127 822 CURVE SMOOTH"
);
},
{
closed = 1;
nodes = (
"105 173 OFFCURVE",
"94 148 OFFCURVE",
"94 119 CURVE SMOOTH",
"94 55 OFFCURVE",
"143 2 OFFCURVE",
"206 2 CURVE SMOOTH",
"269 2 OFFCURVE",
"319 54 OFFCURVE",
"319 118 CURVE SMOOTH",
"319 177 OFFCURVE",
"269 225 OFFCURVE",
"207 225 CURVE SMOOTH",
"176 225 OFFCURVE",
"149 215 OFFCURVE",
"127 194 CURVE SMOOTH"
);
}
);
width = 403;
},
{
layerId = "52F1D99C-0FFA-4FAD-B979-579B617E1314";
paths = (
{
closed = 1;
nodes = (
"175 321 OFFCURVE",
"193 315 OFFCURVE",
"216 315 CURVE SMOOTH",
"261 315 OFFCURVE",
"298 359 OFFCURVE",
"298 423 CURVE SMOOTH",
"298 486 OFFCURVE",
"262 527 OFFCURVE",
"210 527 CURVE SMOOTH",
"208 527 LINE SMOOTH",
"156 527 OFFCURVE",
"120 490 OFFCURVE",
"120 417 CURVE SMOOTH",
"120 380 OFFCURVE",
"133 352 OFFCURVE",
"160 332 CURVE SMOOTH"
);
}
);
width = 410;
},
{
layerId = "B64F7E56-5CD3-4760-9166-7FC8A47137FC";
paths = (
{
closed = 1;
nodes = (
"271 167 OFFCURVE",
"250 200 OFFCURVE",
"208 200 CURVE SMOOTH",
"166 200 OFFCURVE",
"145 167 OFFCURVE",
"145 100 CURVE SMOOTH",
"145 33 OFFCURVE",
"166 0 OFFCURVE",
"208 0 CURVE SMOOTH",
"250 0 OFFCURVE",
"271 33 OFFCURVE",
"271 100 CURVE SMOOTH"
);
},
{
closed = 1;
nodes = (
"163 829 OFFCURVE",
"142 796 OFFCURVE",
"142 730 CURVE SMOOTH",
"142 664 OFFCURVE",
"163 631 OFFCURVE",
"205 631 CURVE SMOOTH",
"246 631 OFFCURVE",
"267 664 OFFCURVE",
"267 730 CURVE SMOOTH",
"267 796 OFFCURVE",
"246 829 OFFCURVE",
"205 829 CURVE SMOOTH"
);
}
);
width = 398;
}
);
note = colon;
unicode = 003A;
},
{
glyphname = semicolon;
lastChange = "2016-08-10 08:02:47 +0000";
layers = (
{
layerId = "DEC179DC-8547-47B6-92D4-65C3F1BBEDD1";
paths = (
{
closed = 1;
nodes = (
"10 662 OFFCURVE",
"74 613 OFFCURVE",
"202 613 CURVE SMOOTH",
"330 613 OFFCURVE",
"394 663 OFFCURVE",
"394 762 CURVE SMOOTH",
"394 797 OFFCURVE",
"381 828 OFFCURVE",
"355 856 CURVE SMOOTH",
"327 885 OFFCURVE",
"280 904 OFFCURVE",
"176 904 CURVE SMOOTH",
"72 904 OFFCURVE",
"10 835 OFFCURVE",
"10 759 CURVE SMOOTH"
);
},
{
closed = 1;
nodes = (
"292 -311 OFFCURVE",
"423 -157 OFFCURVE",
"423 6 CURVE SMOOTH",
"423 165 OFFCURVE",
"346 245 OFFCURVE",
"192 245 CURVE SMOOTH",
"77 245 OFFCURVE",
"0 186 OFFCURVE",
"0 81 CURVE SMOOTH",
"0 52 OFFCURVE",
"10 23 OFFCURVE",
"29 -8 CURVE",
"46 0 OFFCURVE",
"65 4 OFFCURVE",
"86 4 CURVE SMOOTH",
"128 4 OFFCURVE",
"163 -26 OFFCURVE",
"163 -82 CURVE SMOOTH",
"163 -138 OFFCURVE",
"110 -206 OFFCURVE",
"7 -238 CURVE",
"48 -344 LINE"
);
}
);
width = 433;
},
{
layerId = "CE2484D1-EC55-40DA-BA6C-521C673DBDD6";
paths = (
{
closed = 1;
nodes = (
"302 631 OFFCURVE",
"355 684 OFFCURVE",
"355 753 CURVE SMOOTH",
"355 821 OFFCURVE",
"302 874 OFFCURVE",
"204 874 CURVE SMOOTH",
"106 874 OFFCURVE",
"54 820 OFFCURVE",
"54 753 CURVE SMOOTH",
"54 685 OFFCURVE",
"101 631 OFFCURVE",
"202 631 CURVE SMOOTH"
);
},
{
closed = 1;
nodes = (
"309 -141 OFFCURVE",
"390 5 OFFCURVE",
"390 134 CURVE SMOOTH",
"390 269 OFFCURVE",
"312 347 OFFCURVE",
"215 347 CURVE SMOOTH",
"118 347 OFFCURVE",
"56 295 OFFCURVE",
"56 210 CURVE SMOOTH",
"56 189 OFFCURVE",
"63 165 OFFCURVE",
"77 138 CURVE",
"92 143 OFFCURVE",
"109 145 OFFCURVE",
"127 145 CURVE SMOOTH",
"163 145 OFFCURVE",
"206 108 OFFCURVE",
"206 51 CURVE SMOOTH",
"206 -6 OFFCURVE",
"154 -74 OFFCURVE",
"50 -103 CURVE",
"80 -186 LINE"
);
}
);
width = 405;
},
{
layerId = "A76B26BC-A350-47F3-8273-F323BC23B531";
paths = (
{
closed = 1;
nodes = (
"132 852 OFFCURVE",
"81 805 OFFCURVE",
"81 744 CURVE SMOOTH",
"81 680 OFFCURVE",
"131 626 OFFCURVE",
"195 626 CURVE SMOOTH",
"259 626 OFFCURVE",
"311 678 OFFCURVE",
"311 743 CURVE SMOOTH",
"311 804 OFFCURVE",
"259 852 OFFCURVE",
"195 852 CURVE SMOOTH"
);
},
{
closed = 1;
nodes = (
"100 -282 OFFCURVE",
"140 -266 OFFCURVE",
"175 -246 CURVE SMOOTH",
"244 -207 OFFCURVE",
"278 -168 OFFCURVE",
"301 -118 CURVE SMOOTH",
"324 -68 OFFCURVE",
"328 -34 OFFCURVE",
"328 6 CURVE SMOOTH",
"328 131 OFFCURVE",
"242 199 OFFCURVE",
"165 199 CURVE SMOOTH",
"110 199 OFFCURVE",
"51 156 OFFCURVE",
"51 87 CURVE SMOOTH",
"51 73 OFFCURVE",
"56 54 OFFCURVE",
"65 29 CURVE",
"71 30 OFFCURVE",
"80 30 OFFCURVE",
"93 30 CURVE SMOOTH",
"157 30 OFFCURVE",
"201 -16 OFFCURVE",
"201 -69 CURVE SMOOTH",
"201 -134 OFFCURVE",
"146 -201 OFFCURVE",
"31 -230 CURVE",
"53 -294 LINE"
);
}
);
width = 403;
},
{
layerId = "52F1D99C-0FFA-4FAD-B979-579B617E1314";
paths = (
{
closed = 1;
nodes = (
"132 -285 OFFCURVE",
"172 -269 OFFCURVE",
"206 -250 CURVE SMOOTH",
"313 -191 OFFCURVE",
"367 -109 OFFCURVE",
"367 -3 CURVE SMOOTH",
"367 126 OFFCURVE",
"288 197 OFFCURVE",
"218 197 CURVE SMOOTH",
"148 197 OFFCURVE",
"100 153 OFFCURVE",
"100 110 CURVE SMOOTH",
"100 89 OFFCURVE",
"103 71 OFFCURVE",
"108 56 CURVE",
"117 58 OFFCURVE",
"127 59 OFFCURVE",
"137 59 CURVE SMOOTH",
"201 59 OFFCURVE",
"249 8 OFFCURVE",
"249 -60 CURVE SMOOTH",
"249 -145 OFFCURVE",
"189 -206 OFFCURVE",
"69 -243 CURVE",
"87 -298 LINE"
);
},
{
closed = 1;
nodes = (
"297 629 OFFCURVE",
"333 675 OFFCURVE",
"333 740 CURVE SMOOTH",
"333 805 OFFCURVE",
"295 847 OFFCURVE",
"240 847 CURVE SMOOTH",
"185 847 OFFCURVE",
"150 806 OFFCURVE",
"150 741 CURVE SMOOTH",
"150 676 OFFCURVE",
"186 629 OFFCURVE",
"242 629 CURVE SMOOTH"
);
}
);
width = 397;
},
{
layerId = "B64F7E56-5CD3-4760-9166-7FC8A47137FC";
paths = (
{
closed = 1;
nodes = (
"243 624 OFFCURVE",
"263 656 OFFCURVE",
"263 720 CURVE SMOOTH",
"263 784 OFFCURVE",
"243 816 OFFCURVE",
"203 816 CURVE SMOOTH",
"162 816 OFFCURVE",
"142 784 OFFCURVE",
"142 720 CURVE SMOOTH",
"142 656 OFFCURVE",
"162 624 OFFCURVE",
"203 624 CURVE SMOOTH"
);
},
{
closed = 1;
nodes = (
"250 -208 OFFCURVE",
"322 -101 OFFCURVE",
"322 12 CURVE SMOOTH",
"322 125 OFFCURVE",
"261 200 OFFCURVE",
"197 200 CURVE SMOOTH",
"133 200 OFFCURVE",
"99 161 OFFCURVE",
"99 129 CURVE SMOOTH",
"99 113 OFFCURVE",
"100 102 OFFCURVE",
"102 97 CURVE",
"107 100 OFFCURVE",
"116 101 OFFCURVE",
"127 101 CURVE SMOOTH",
"184 101 OFFCURVE",
"229 48 OFFCURVE",
"229 -32 CURVE SMOOTH",
"229 -113 OFFCURVE",
"188 -173 OFFCURVE",
"63 -222 CURVE",
"74 -264 LINE"
);
}
);
width = 398;
}
);
note = semicolon;
unicode = 003B;
},
{
glyphname = less;
lastChange = "2016-08-10 08:02:47 +0000";
layers = (
{
layerId = "DEC179DC-8547-47B6-92D4-65C3F1BBEDD1";
paths = (
{
closed = 1;
nodes = (
"687 840 LINE",
"540 974 LINE",
"-89 504 LINE",
"-79 410 LINE",
"553 -84 LINE",
"699 36 LINE",
"351 454 LINE"
);
}
);
width = 699;
},
{
layerId = "CE2484D1-EC55-40DA-BA6C-521C673DBDD6";
paths = (
{
closed = 1;
nodes = (
"671 870 LINE",
"570 974 LINE",
"-50 494 LINE",
"-50 419 LINE",
"583 -84 LINE",
"687 12 LINE",
"283 454 LINE"
);
}
);
width = 706;
},
{
layerId = "A76B26BC-A350-47F3-8273-F323BC23B531";
paths = (
{
closed = 1;
nodes = (
"646 -13 LINE",
"264 454 LINE",
"626 901 LINE",
"569 973 LINE",
"30 456 LINE",
"28 428 LINE",
"583 -82 LINE"
);
}
);
width = 683;
},
{
layerId = "52F1D99C-0FFA-4FAD-B979-579B617E1314";
paths = (
{
closed = 1;
nodes = (
"644 914 LINE",
"609 974 LINE",
"-12 456 LINE",
"-13 427 LINE",
"622 -82 LINE",
"664 -25 LINE",
"173 437 LINE"
);
}
);
width = 697;
},
{
layerId = "B64F7E56-5CD3-4760-9166-7FC8A47137FC";
paths = (
{
closed = 1;
nodes = (
"586 926 LINE",
"570 973 LINE",
"-49 456 LINE",
"-51 426 LINE",
"583 -82 LINE",
"605 -37 LINE",
"85 444 LINE"
);
}
);
width = 680;
}
);
note = less;
unicode = 003C;
},
{
glyphname = equal;
lastChange = "2016-08-10 08:02:47 +0000";
layers = (
{
layerId = "DEC179DC-8547-47B6-92D4-65C3F1BBEDD1";
paths = (
{
closed = 1;
nodes = (
"639 464 LINE",
"14 464 LINE",
"3 276 LINE",
"626 276 LINE"
);
},
{
closed = 1;
nodes = (
"636 745 LINE",
"11 745 LINE",
"0 557 LINE",
"623 557 LINE"
);
}
);
width = 636;
},
{
layerId = "CE2484D1-EC55-40DA-BA6C-521C673DBDD6";
paths = (
{
closed = 1;
nodes = (
"754 684 LINE",
"46 684 LINE",
"24 519 LINE",
"734 519 LINE"
);
},
{
closed = 1;
nodes = (
"752 445 LINE",
"42 445 LINE",
"20 280 LINE",
"732 280 LINE"
);
}
);
width = 771;
},
{
layerId = "A76B26BC-A350-47F3-8273-F323BC23B531";
paths = (
{
closed = 1;
nodes = (
"697 319 LINE",
"708 424 LINE",
"94 424 LINE",
"82 319 LINE"
);
},
{
closed = 1;
nodes = (
"700 558 LINE",
"711 664 LINE",
"97 664 LINE",
"86 558 LINE"
);
}
);
width = 793;
},
{
layerId = "52F1D99C-0FFA-4FAD-B979-579B617E1314";
paths = (
{
closed = 1;
nodes = (
"716 655 LINE",
"101 655 LINE",
"90 569 LINE",
"705 569 LINE"
);
},
{
closed = 1;
nodes = (
"713 415 LINE",
"98 415 LINE",
"87 330 LINE",
"702 330 LINE"
);
}
);
width = 800;
},
{
layerId = "B64F7E56-5CD3-4760-9166-7FC8A47137FC";
paths = (
{
closed = 1;
nodes = (
"711 645 LINE",
"98 645 LINE",
"85 580 LINE",
"700 580 LINE"
);
},
{
closed = 1;
nodes = (
"709 405 LINE",
"94 405 LINE",
"82 340 LINE",
"698 340 LINE"
);
}
);
width = 791;
}
);
note = equal;
unicode = 003D;
},
{
glyphname = greater;
lastChange = "2016-08-10 08:02:47 +0000";
layers = (
{
layerId = "DEC179DC-8547-47B6-92D4-65C3F1BBEDD1";
paths = (
{
closed = 1;
nodes = (
"778 410 LINE",
"788 504 LINE",
"159 974 LINE",
"12 840 LINE",
"348 454 LINE",
"0 36 LINE",
"146 -84 LINE"
);
}
);
width = 699;
},
{
layerId = "CE2484D1-EC55-40DA-BA6C-521C673DBDD6";
paths = (
{
closed = 1;
nodes = (
"767 419 LINE",
"767 494 LINE",
"147 974 LINE",
"46 870 LINE",
"434 454 LINE",
"30 12 LINE",
"134 -84 LINE"
);
}
);
width = 706;
},
{
layerId = "A76B26BC-A350-47F3-8273-F323BC23B531";
paths = (
{
closed = 1;
nodes = (
"109 973 LINE",
"53 901 LINE",
"415 454 LINE",
"33 -13 LINE",
"95 -82 LINE",
"651 428 LINE",
"649 456 LINE"
);
}
);
width = 683;
},
{
layerId = "52F1D99C-0FFA-4FAD-B979-579B617E1314";
paths = (
{
closed = 1;
nodes = (
"744 427 LINE",
"743 456 LINE",
"122 974 LINE",
"87 914 LINE",
"558 437 LINE",
"67 -25 LINE",
"109 -82 LINE"
);
}
);
width = 697;
},
{
layerId = "B64F7E56-5CD3-4760-9166-7FC8A47137FC";
paths = (
{
closed = 1;
nodes = (
"731 426 LINE",
"729 456 LINE",
"110 973 LINE",
"94 926 LINE",
"595 444 LINE",
"75 -37 LINE",
"97 -82 LINE"
);
}
);
width = 680;
}
);
note = greater;
unicode = 003E;
},
{
glyphname = question;
lastChange = "2016-08-10 08:02:47 +0000";
layers = (
{
layerId = "DEC179DC-8547-47B6-92D4-65C3F1BBEDD1";
paths = (
{
closed = 1;
nodes = (
"85 25 OFFCURVE",
"156 -26 OFFCURVE",
"299 -26 CURVE SMOOTH",
"441 -26 OFFCURVE",
"512 26 OFFCURVE",
"512 130 CURVE SMOOTH",
"512 209 OFFCURVE",
"449 280 OFFCURVE",
"298 280 CURVE SMOOTH",
"146 280 OFFCURVE",
"85 207 OFFCURVE",
"85 127 CURVE SMOOTH"
);
},
{
closed = 1;
nodes = (
"136 944 OFFCURVE",
"249 975 OFFCURVE",
"319 975 CURVE SMOOTH",
"389 975 OFFCURVE",
"449 945 OFFCURVE",
"449 900 CURVE SMOOTH",
"449 866 OFFCURVE",
"411 835 OFFCURVE",
"334 808 CURVE SMOOTH",
"302 796 OFFCURVE",
"270 783 OFFCURVE",
"238 770 CURVE SMOOTH",
"173 743 OFFCURVE",
"122 696 OFFCURVE",
"122 636 CURVE SMOOTH",
"122 575 OFFCURVE",
"155 466 OFFCURVE",
"216 374 CURVE",
"386 362 LINE",
"377 397 OFFCURVE",
"373 422 OFFCURVE",
"373 439 CURVE SMOOTH",
"373 516 OFFCURVE",
"446 539 OFFCURVE",
"487 559 CURVE SMOOTH",
"527 578 OFFCURVE",
"570 603 OFFCURVE",
"604 637 CURVE SMOOTH",
"638 671 OFFCURVE",
"661 726 OFFCURVE",
"661 818 CURVE SMOOTH",
"661 910 OFFCURVE",
"606 1038 OFFCURVE",
"527 1131 CURVE SMOOTH",
"447 1223 OFFCURVE",
"341 1291 OFFCURVE",
"209 1291 CURVE SMOOTH",
"77 1291 OFFCURVE",
"0 1225 OFFCURVE",
"0 1134 CURVE SMOOTH",
"0 1042 OFFCURVE",
"58 944 OFFCURVE",
"111 916 CURVE"
);
}
);
width = 616;
},
{
layerId = "CE2484D1-EC55-40DA-BA6C-521C673DBDD6";
paths = (
{
closed = 1;
nodes = (
"401 -31 OFFCURVE",
"459 29 OFFCURVE",
"459 107 CURVE SMOOTH",
"459 185 OFFCURVE",
"399 245 OFFCURVE",
"290 245 CURVE SMOOTH",
"181 245 OFFCURVE",
"122 184 OFFCURVE",
"122 108 CURVE SMOOTH",
"122 31 OFFCURVE",
"175 -31 OFFCURVE",
"288 -31 CURVE SMOOTH"
);
},
{
closed = 1;
nodes = (
"167 1015 OFFCURVE",
"258 1046 OFFCURVE",
"327 1046 CURVE SMOOTH",
"395 1046 OFFCURVE",
"462 993 OFFCURVE",
"462 926 CURVE SMOOTH",
"462 870 OFFCURVE",
"425 827 OFFCURVE",
"350 796 CURVE SMOOTH",
"258 757 LINE SMOOTH",
"195 730 OFFCURVE",
"146 681 OFFCURVE",
"146 613 CURVE SMOOTH",
"146 544 OFFCURVE",
"183 441 OFFCURVE",
"231 370 CURVE",
"349 394 LINE",
"340 423 OFFCURVE",
"336 453 OFFCURVE",
"336 484 CURVE SMOOTH",
"336 547 OFFCURVE",
"401 572 OFFCURVE",
"472 607 CURVE SMOOTH",
"543 642 OFFCURVE",
"624 696 OFFCURVE",
"624 833 CURVE SMOOTH",
"624 909 OFFCURVE",
"605 983 OFFCURVE",
"566 1054 CURVE SMOOTH",
"489 1197 OFFCURVE",
"362 1289 OFFCURVE",
"226 1289 CURVE SMOOTH",
"90 1289 OFFCURVE",
"24 1221 OFFCURVE",
"24 1145 CURVE SMOOTH",
"24 1069 OFFCURVE",
"80 993 OFFCURVE",
"132 978 CURVE"
);
}
);
width = 629;
},
{
layerId = "A76B26BC-A350-47F3-8273-F323BC23B531";
paths = (
{
closed = 1;
nodes = (
"28 1101 OFFCURVE",
"65 1058 OFFCURVE",
"102 1042 CURVE",
"143 1087 OFFCURVE",
"217 1113 OFFCURVE",
"294 1113 CURVE SMOOTH",
"359 1113 OFFCURVE",
"457 1026 OFFCURVE",
"457 939 CURVE SMOOTH",
"457 912 OFFCURVE",
"452 888 OFFCURVE",
"441 867 CURVE SMOOTH",
"419 826 OFFCURVE",
"380 805 OFFCURVE",
"337 785 CURVE SMOOTH",
"293 765 OFFCURVE",
"248 745 OFFCURVE",
"212 718 CURVE SMOOTH",
"175 690 OFFCURVE",
"151 645 OFFCURVE",
"151 585 CURVE SMOOTH",
"151 513 OFFCURVE",
"192 420 OFFCURVE",
"228 367 CURVE",
"302 383 LINE",
"287 431 OFFCURVE",
"280 473 OFFCURVE",
"280 508 CURVE SMOOTH",
"280 528 OFFCURVE",
"286 546 OFFCURVE",
"297 562 CURVE SMOOTH",
"319 594 OFFCURVE",
"353 614 OFFCURVE",
"394 635 CURVE SMOOTH",
"434 655 OFFCURVE",
"478 680 OFFCURVE",
"511 712 CURVE SMOOTH",
"544 744 OFFCURVE",
"568 795 OFFCURVE",
"568 860 CURVE SMOOTH",
"568 983 OFFCURVE",
"522 1097 OFFCURVE",
"455 1170 CURVE SMOOTH",
"388 1243 OFFCURVE",
"302 1288 OFFCURVE",
"225 1288 CURVE SMOOTH",
"150 1288 OFFCURVE",
"94 1268 OFFCURVE",
"67 1240 CURVE SMOOTH",
"39 1211 OFFCURVE",
"28 1181 OFFCURVE",
"28 1152 CURVE SMOOTH"
);
},
{
closed = 1;
nodes = (
"388 157 OFFCURVE",
"330 210 OFFCURVE",
"262 210 CURVE SMOOTH",
"195 210 OFFCURVE",
"139 159 OFFCURVE",
"139 92 CURVE SMOOTH",
"139 21 OFFCURVE",
"194 -36 OFFCURVE",
"263 -36 CURVE SMOOTH",
"331 -36 OFFCURVE",
"388 19 OFFCURVE",
"388 90 CURVE SMOOTH"
);
}
);
width = 600;
},
{
layerId = "52F1D99C-0FFA-4FAD-B979-579B617E1314";
paths = (
{
closed = 1;
nodes = (
"338 -35 OFFCURVE",
"374 13 OFFCURVE",
"374 76 CURVE SMOOTH",
"374 139 OFFCURVE",
"334 184 OFFCURVE",
"283 184 CURVE SMOOTH",
"231 184 OFFCURVE",
"191 140 OFFCURVE",
"191 78 CURVE SMOOTH",
"191 16 OFFCURVE",
"227 -35 OFFCURVE",
"283 -35 CURVE SMOOTH"
);
},
{
closed = 1;
nodes = (
"146 1122 OFFCURVE",
"210 1147 OFFCURVE",
"291 1147 CURVE SMOOTH",
"387 1147 OFFCURVE",
"473 1050 OFFCURVE",
"473 940 CURVE SMOOTH",
"473 885 OFFCURVE",
"437 837 OFFCURVE",
"364 796 CURVE SMOOTH",
"273 743 LINE SMOOTH",
"213 707 OFFCURVE",
"164 646 OFFCURVE",
"164 568 CURVE SMOOTH",
"164 490 OFFCURVE",
"204 401 OFFCURVE",
"245 354 CURVE",
"303 371 LINE",
"280 428 OFFCURVE",
"268 476 OFFCURVE",
"268 514 CURVE SMOOTH",
"268 589 OFFCURVE",
"336 624 OFFCURVE",
"409 668 CURVE SMOOTH",
"482 711 OFFCURVE",
"567 770 OFFCURVE",
"567 893 CURVE SMOOTH",
"567 1106 OFFCURVE",
"409 1287 OFFCURVE",
"238 1287 CURVE SMOOTH",
"122 1287 OFFCURVE",
"40 1220 OFFCURVE",
"40 1169 CURVE SMOOTH",
"40 1123 OFFCURVE",
"60 1091 OFFCURVE",
"99 1073 CURVE"
);
}
);
width = 619;
},
{
layerId = "B64F7E56-5CD3-4760-9166-7FC8A47137FC";
paths = (
{
closed = 1;
nodes = (
"224 0 OFFCURVE",
"243 -33 OFFCURVE",
"282 -33 CURVE SMOOTH",
"321 -33 OFFCURVE",
"340 0 OFFCURVE",
"340 66 CURVE SMOOTH",
"340 121 OFFCURVE",
"317 159 OFFCURVE",
"282 159 CURVE SMOOTH",
"247 159 OFFCURVE",
"224 121 OFFCURVE",
"224 66 CURVE SMOOTH"
);
},
{
closed = 1;
nodes = (
"470 901 OFFCURVE",
"443 860 OFFCURVE",
"390 824 CURVE SMOOTH",
"314 770 LINE SMOOTH",
"287 750 OFFCURVE",
"263 730 OFFCURVE",
"240 711 CURVE SMOOTH",
"194 672 OFFCURVE",
"159 613 OFFCURVE",
"159 541 CURVE SMOOTH",
"159 468 OFFCURVE",
"197 389 OFFCURVE",
"245 342 CURVE",
"284 358 LINE",
"253 415 OFFCURVE",
"238 465 OFFCURVE",
"238 510 CURVE SMOOTH",
"238 599 OFFCURVE",
"308 638 OFFCURVE",
"385 691 CURVE SMOOTH",
"462 743 OFFCURVE",
"548 805 OFFCURVE",
"548 925 CURVE SMOOTH",
"548 1109 OFFCURVE",
"405 1286 OFFCURVE",
"232 1286 CURVE SMOOTH",
"139 1286 OFFCURVE",
"33 1226 OFFCURVE",
"33 1170 CURVE SMOOTH",
"33 1142 OFFCURVE",
"48 1120 OFFCURVE",
"78 1105 CURVE",
"127 1156 OFFCURVE",
"186 1182 OFFCURVE",
"257 1182 CURVE SMOOTH",
"397 1182 OFFCURVE",
"470 1073 OFFCURVE",
"470 946 CURVE SMOOTH"
);
}
);
width = 596;
}
);
note = question;
unicode = 003F;
},
{
glyphname = at;
lastChange = "2016-08-10 08:02:47 +0000";
layers = (
{
layerId = "DEC179DC-8547-47B6-92D4-65C3F1BBEDD1";
paths = (
{
closed = 1;
nodes = (
"621 434 OFFCURVE",
"628 483 OFFCURVE",
"642 544 CURVE SMOOTH",
"658 608 OFFCURVE",
"697 659 OFFCURVE",
"731 659 CURVE SMOOTH",
"748 659 OFFCURVE",
"758 657 OFFCURVE",
"762 654 CURVE",
"764 653 OFFCURVE",
"766 651 OFFCURVE",
"768 650 CURVE",
"769 649 OFFCURVE",
"770 648 OFFCURVE",
"771 648 CURVE",
"771 647 OFFCURVE",
"772 647 OFFCURVE",
"773 648 CURVE",
"729 306 LINE",
"702 298 OFFCURVE",
"683 294 OFFCURVE",
"674 294 CURVE SMOOTH",
"639 294 OFFCURVE",
"621 328 OFFCURVE",
"621 395 CURVE SMOOTH"
);
},
{
closed = 1;
nodes = (
"721 104 OFFCURVE",
"832 72 OFFCURVE",
"932 72 CURVE SMOOTH",
"1021 72 OFFCURVE",
"1106 97 OFFCURVE",
"1186 148 CURVE SMOOTH",
"1345 248 OFFCURVE",
"1448 424 OFFCURVE",
"1448 638 CURVE SMOOTH",
"1448 745 OFFCURVE",
"1408 833 OFFCURVE",
"1329 902 CURVE SMOOTH",
"1293 934 OFFCURVE",
"1250 961 OFFCURVE",
"1201 983 CURVE SMOOTH",
"1102 1026 OFFCURVE",
"1009 1043 OFFCURVE",
"846 1043 CURVE SMOOTH",
"765 1043 OFFCURVE",
"677 1030 OFFCURVE",
"583 1004 CURVE SMOOTH",
"235 905 OFFCURVE",
"0 627 OFFCURVE",
"0 326 CURVE SMOOTH",
"0 -5 OFFCURVE",
"268 -221 OFFCURVE",
"709 -221 CURVE SMOOTH",
"896 -221 OFFCURVE",
"1076 -171 OFFCURVE",
"1189 -84 CURVE",
"1144 26 LINE",
"1057 -47 OFFCURVE",
"942 -65 OFFCURVE",
"783 -65 CURVE SMOOTH",
"415 -65 OFFCURVE",
"248 78 OFFCURVE",
"248 376 CURVE SMOOTH",
"248 525 OFFCURVE",
"298 648 OFFCURVE",
"398 746 CURVE SMOOTH",
"597 942 OFFCURVE",
"1208 1006 OFFCURVE",
"1208 567 CURVE SMOOTH",
"1208 512 OFFCURVE",
"1195 447 OFFCURVE",
"1168 372 CURVE SMOOTH",
"1141 299 OFFCURVE",
"1089 243 OFFCURVE",
"1046 243 CURVE SMOOTH",
"1024 243 OFFCURVE",
"1010 247 OFFCURVE",
"1004 254 CURVE SMOOTH",
"992 268 OFFCURVE",
"991 315 OFFCURVE",
"1001 395 CURVE SMOOTH",
"1041 761 LINE",
"1025 778 LINE",
"972 790 OFFCURVE",
"911 796 OFFCURVE",
"840 796 CURVE SMOOTH",
"698 796 OFFCURVE",
"546 735 OFFCURVE",
"465 646 CURVE SMOOTH",
"384 557 OFFCURVE",
"341 457 OFFCURVE",
"341 322 CURVE SMOOTH",
"341 187 OFFCURVE",
"423 86 OFFCURVE",
"528 86 CURVE SMOOTH",
"600 86 OFFCURVE",
"662 123 OFFCURVE",
"713 197 CURVE",
"724 197 LINE"
);
}
);
width = 1426;
},
{
layerId = "CE2484D1-EC55-40DA-BA6C-521C673DBDD6";
paths = (
{
closed = 1;
nodes = (
"699 248 OFFCURVE",
"667 234 OFFCURVE",
"636 234 CURVE SMOOTH",
"590 234 OFFCURVE",
"567 282 OFFCURVE",
"567 378 CURVE SMOOTH",
"567 437 OFFCURVE",
"579 500 OFFCURVE",
"604 569 CURVE SMOOTH",
"628 636 OFFCURVE",
"671 686 OFFCURVE",
"722 686 CURVE",
"782 675 LINE",
"732 276 LINE"
);
},
{
closed = 1;
nodes = (
"348 -178 OFFCURVE",
"507 -224 OFFCURVE",
"700 -224 CURVE SMOOTH",
"865 -224 OFFCURVE",
"1016 -177 OFFCURVE",
"1152 -84 CURVE",
"1112 4 LINE",
"1035 -60 OFFCURVE",
"890 -114 OFFCURVE",
"755 -114 CURVE SMOOTH",
"412 -114 OFFCURVE",
"228 68 OFFCURVE",
"228 373 CURVE SMOOTH",
"228 526 OFFCURVE",
"277 657 OFFCURVE",
"374 768 CURVE SMOOTH",
"466 875 OFFCURVE",
"613 942 OFFCURVE",
"781 942 CURVE SMOOTH",
"1025 942 OFFCURVE",
"1190 802 OFFCURVE",
"1190 559 CURVE SMOOTH",
"1190 438 OFFCURVE",
"1157 339 OFFCURVE",
"1090 264 CURVE SMOOTH",
"1055 225 OFFCURVE",
"1017 206 OFFCURVE",
"974 206 CURVE SMOOTH",
"940 206 OFFCURVE",
"933 267 OFFCURVE",
"952 390 CURVE",
"992 756 LINE",
"974 776 LINE",
"925 787 OFFCURVE",
"871 792 OFFCURVE",
"810 792 CURVE SMOOTH",
"550 792 OFFCURVE",
"350 583 OFFCURVE",
"350 334 CURVE SMOOTH",
"350 170 OFFCURVE",
"427 72 OFFCURVE",
"534 72 CURVE SMOOTH",
"601 72 OFFCURVE",
"672 121 OFFCURVE",
"720 192 CURVE",
"731 192 LINE",
"728 115 OFFCURVE",
"782 76 OFFCURVE",
"892 76 CURVE SMOOTH",
"1001 76 OFFCURVE",
"1137 139 OFFCURVE",
"1228 235 CURVE SMOOTH",
"1319 331 OFFCURVE",
"1377 467 OFFCURVE",
"1377 607 CURVE SMOOTH",
"1377 746 OFFCURVE",
"1312 863 OFFCURVE",
"1210 934 CURVE SMOOTH",
"1108 1005 OFFCURVE",
"987 1044 OFFCURVE",
"799 1044 CURVE SMOOTH",
"610 1044 OFFCURVE",
"386 959 OFFCURVE",
"248 828 CURVE SMOOTH",
"110 696 OFFCURVE",
"27 514 OFFCURVE",
"27 331 CURVE SMOOTH",
"27 147 OFFCURVE",
"101 3 OFFCURVE",
"222 -86 CURVE SMOOTH"
);
}
);
width = 1396;
},
{
layerId = "A76B26BC-A350-47F3-8273-F323BC23B531";
paths = (
{
closed = 1;
nodes = (
"699 205 OFFCURVE",
"652 180 OFFCURVE",
"603 180 CURVE SMOOTH",
"575 180 OFFCURVE",
"554 194 OFFCURVE",
"540 221 CURVE SMOOTH",
"525 248 OFFCURVE",
"518 297 OFFCURVE",
"518 368 CURVE SMOOTH",
"518 473 OFFCURVE",
"548 582 OFFCURVE",
"608 651 CURVE SMOOTH",
"667 720 OFFCURVE",
"734 708 OFFCURVE",
"795 692 CURVE",
"742 254 LINE"
);
},
{
closed = 1;
nodes = (
"832 955 OFFCURVE",
"904 940 OFFCURVE",
"968 909 CURVE SMOOTH",
"1095 847 OFFCURVE",
"1176 718 OFFCURVE",
"1176 549 CURVE SMOOTH",
"1176 481 OFFCURVE",
"1165 418 OFFCURVE",
"1143 361 CURVE SMOOTH",
"1099 245 OFFCURVE",
"1015 169 OFFCURVE",
"916 169 CURVE SMOOTH",
"907 169 OFFCURVE",
"901 173 OFFCURVE",
"898 182 CURVE",
"894 191 OFFCURVE",
"892 206 OFFCURVE",
"892 229 CURVE SMOOTH",
"892 254 OFFCURVE",
"896 306 OFFCURVE",
"905 385 CURVE SMOOTH",
"946 752 LINE",
"928 771 LINE",
"924 773 LINE",
"876 784 OFFCURVE",
"821 790 OFFCURVE",
"760 790 CURVE SMOOTH",
"675 790 OFFCURVE",
"578 742 OFFCURVE",
"499 666 CURVE SMOOTH",
"420 589 OFFCURVE",
"364 462 OFFCURVE",
"364 326 CURVE SMOOTH",
"364 159 OFFCURVE",
"436 59 OFFCURVE",
"544 59 CURVE SMOOTH",
"612 59 OFFCURVE",
"684 119 OFFCURVE",
"731 187 CURVE",
"740 187 LINE",
"739 155 LINE SMOOTH",
"739 106 OFFCURVE",
"784 69 OFFCURVE",
"836 69 CURVE SMOOTH",
"969 69 OFFCURVE",
"1093 132 OFFCURVE",
"1176 228 CURVE SMOOTH",
"1259 323 OFFCURVE",
"1309 457 OFFCURVE",
"1309 590 CURVE SMOOTH",
"1309 679 OFFCURVE",
"1285 758 OFFCURVE",
"1238 828 CURVE SMOOTH",
"1142 968 OFFCURVE",
"978 1044 OFFCURVE",
"790 1044 CURVE SMOOTH",
"579 1044 OFFCURVE",
"388 962 OFFCURVE",
"261 833 CURVE SMOOTH",
"133 704 OFFCURVE",
"56 521 OFFCURVE",
"56 324 CURVE SMOOTH",
"56 246 OFFCURVE",
"69 175 OFFCURVE",
"94 112 CURVE SMOOTH",
"144 -15 OFFCURVE",
"226 -93 OFFCURVE",
"338 -149 CURVE SMOOTH",
"449 -206 OFFCURVE",
"566 -228 OFFCURVE",
"693 -228 CURVE SMOOTH",
"790 -228 OFFCURVE",
"879 -210 OFFCURVE",
"951 -177 CURVE SMOOTH",
"1023 -144 OFFCURVE",
"1058 -123 OFFCURVE",
"1110 -87 CURVE",
"1118 -82 LINE",
"1082 -20 LINE",
"1072 -28 LINE",
"1008 -73 OFFCURVE",
"857 -136 OFFCURVE",
"730 -136 CURVE SMOOTH",
"405 -136 OFFCURVE",
"211 51 OFFCURVE",
"211 350 CURVE SMOOTH",
"211 509 OFFCURVE",
"267 659 OFFCURVE",
"359 771 CURVE SMOOTH",
"451 883 OFFCURVE",
"593 955 OFFCURVE",
"753 955 CURVE SMOOTH"
);
}
);
width = 1360;
},
{
layerId = "52F1D99C-0FFA-4FAD-B979-579B617E1314";
paths = (
{
closed = 1;
nodes = (
"512 556 OFFCURVE",
"599 714 OFFCURVE",
"716 714 CURVE SMOOTH",
"756 714 OFFCURVE",
"790 710 OFFCURVE",
"818 703 CURVE",
"764 248 LINE",
"727 205 OFFCURVE",
"647 160 OFFCURVE",
"596 160 CURVE SMOOTH",
"540 160 OFFCURVE",
"512 230 OFFCURVE",
"512 369 CURVE SMOOTH"
);
},
{
closed = 1;
nodes = (
"88 175 OFFCURVE",
"128 61 OFFCURVE",
"209 -29 CURVE SMOOTH",
"370 -209 OFFCURVE",
"559 -227 OFFCURVE",
"719 -227 CURVE SMOOTH",
"878 -227 OFFCURVE",
"982 -171 OFFCURVE",
"1117 -82 CURVE",
"1088 -31 LINE",
"1029 -82 OFFCURVE",
"864 -149 OFFCURVE",
"729 -149 CURVE SMOOTH",
"405 -149 OFFCURVE",
"210 48 OFFCURVE",
"210 355 CURVE SMOOTH",
"210 467 OFFCURVE",
"233 570 OFFCURVE",
"278 664 CURVE SMOOTH",
"369 852 OFFCURVE",
"550 972 OFFCURVE",
"734 972 CURVE SMOOTH",
"825 972 OFFCURVE",
"905 955 OFFCURVE",
"972 922 CURVE SMOOTH",
"1106 854 OFFCURVE",
"1196 724 OFFCURVE",
"1196 525 CURVE SMOOTH",
"1196 326 OFFCURVE",
"1066 152 OFFCURVE",
"910 152 CURVE SMOOTH",
"891 152 OFFCURVE",
"881 165 OFFCURVE",
"880 191 CURVE",
"878 217 OFFCURVE",
"880 252 OFFCURVE",
"886 296 CURVE SMOOTH",
"898 385 LINE",
"940 752 LINE",
"922 773 LINE",
"871 784 OFFCURVE",
"821 790 OFFCURVE",
"770 790 CURVE SMOOTH",
"593 790 OFFCURVE",
"389 606 OFFCURVE",
"389 313 CURVE SMOOTH",
"389 161 OFFCURVE",
"456 60 OFFCURVE",
"542 60 CURVE SMOOTH",
"628 60 OFFCURVE",
"709 122 OFFCURVE",
"753 187 CURVE",
"762 187 LINE",
"758 108 OFFCURVE",
"782 69 OFFCURVE",
"833 69 CURVE SMOOTH",
"966 69 OFFCURVE",
"1090 130 OFFCURVE",
"1172 224 CURVE SMOOTH",
"1254 318 OFFCURVE",
"1304 442 OFFCURVE",
"1304 599 CURVE SMOOTH",
"1304 677 OFFCURVE",
"1281 752 OFFCURVE",
"1234 823 CURVE SMOOTH",
"1141 965 OFFCURVE",
"976 1045 OFFCURVE",
"789 1045 CURVE SMOOTH",
"652 1045 OFFCURVE",
"529 1012 OFFCURVE",
"421 945 CURVE SMOOTH",
"205 811 OFFCURVE",
"88 588 OFFCURVE",
"88 313 CURVE SMOOTH"
);
}
);
width = 1362;
},
{
layerId = "B64F7E56-5CD3-4760-9166-7FC8A47137FC";
paths = (
{
closed = 1;
nodes = (
"781 725 OFFCURVE",
"821 721 OFFCURVE",
"843 714 CURVE",
"788 243 LINE",
"749 200 OFFCURVE",
"642 138 OFFCURVE",
"591 138 CURVE SMOOTH",
"535 138 OFFCURVE",
"507 222 OFFCURVE",
"507 391 CURVE SMOOTH",
"507 568 OFFCURVE",
"605 725 OFFCURVE",
"722 725 CURVE SMOOTH"
);
},
{
closed = 1;
nodes = (
"784 87 OFFCURVE",
"800 69 OFFCURVE",
"833 69 CURVE SMOOTH",
"922 69 OFFCURVE",
"1003 92 OFFCURVE",
"1075 139 CURVE SMOOTH",
"1219 231 OFFCURVE",
"1302 393 OFFCURVE",
"1302 573 CURVE SMOOTH",
"1302 662 OFFCURVE",
"1279 743 OFFCURVE",
"1233 816 CURVE SMOOTH",
"1141 960 OFFCURVE",
"979 1044 OFFCURVE",
"784 1044 CURVE SMOOTH",
"589 1044 OFFCURVE",
"410 957 OFFCURVE",
"298 823 CURVE SMOOTH",
"186 689 OFFCURVE",
"121 513 OFFCURVE",
"121 334 CURVE SMOOTH",
"121 155 OFFCURVE",
"188 7 OFFCURVE",
"293 -84 CURVE SMOOTH",
"398 -176 OFFCURVE",
"545 -227 OFFCURVE",
"674 -227 CURVE SMOOTH",
"739 -227 OFFCURVE",
"793 -223 OFFCURVE",
"838 -214 CURVE SMOOTH",
"925 -198 OFFCURVE",
"1018 -154 OFFCURVE",
"1118 -82 CURVE",
"1097 -43 LINE",
"1040 -92 OFFCURVE",
"865 -163 OFFCURVE",
"730 -163 CURVE SMOOTH",
"407 -163 OFFCURVE",
"211 42 OFFCURVE",
"211 358 CURVE SMOOTH",
"211 477 OFFCURVE",
"234 585 OFFCURVE",
"281 681 CURVE SMOOTH",
"373 873 OFFCURVE",
"542 988 OFFCURVE",
"766 988 CURVE SMOOTH",
"877 988 OFFCURVE",
"980 947 OFFCURVE",
"1074 866 CURVE SMOOTH",
"1161 791 OFFCURVE",
"1218 672 OFFCURVE",
"1218 540 CURVE SMOOTH",
"1218 287 OFFCURVE",
"1065 136 OFFCURVE",
"905 136 CURVE SMOOTH",
"884 136 OFFCURVE",
"873 156 OFFCURVE",
"874 195 CURVE SMOOTH",
"874 204 OFFCURVE",
"881 268 OFFCURVE",
"894 385 CURVE SMOOTH",
"936 752 LINE",
"921 772 LINE",
"868 784 OFFCURVE",
"821 790 OFFCURVE",
"782 790 CURVE SMOOTH",
"605 790 OFFCURVE",
"418 605 OFFCURVE",
"418 312 CURVE SMOOTH",
"418 159 OFFCURVE",
"474 60 OFFCURVE",
"557 60 CURVE SMOOTH",
"640 60 OFFCURVE",
"734 124 OFFCURVE",
"777 188 CURVE",
"786 188 LINE",
"784 124 LINE SMOOTH"
);
}
);
width = 1357;
}
);
note = at;
unicode = 0040;
},
{
glyphname = A;
lastChange = "2016-08-10 08:02:47 +0000";
layers = (
{
layerId = "DEC179DC-8547-47B6-92D4-65C3F1BBEDD1";
paths = (
{
closed = 1;
nodes = (
"789 561 LINE",
"538 561 LINE",
"662 933 LINE"
);
},
{
closed = 1;
nodes = (
"620 148 LINE",
"431 240 LINE",
"468 352 LINE",
"860 352 LINE",
"898 240 LINE",
"732 136 LINE",
"716 -2 LINE",
"1441 -2 LINE",
"1453 145 LINE",
"1305 238 LINE",
"915 1270 LINE",
"568 1205 LINE",
"180 241 LINE",
"19 138 LINE",
"0 0 LINE",
"605 0 LINE"
);
}
);
width = 1453;
},
{
layerId = "CE2484D1-EC55-40DA-BA6C-521C673DBDD6";
paths = (
{
closed = 1;
nodes = (
"773 548 LINE",
"472 548 LINE",
"627 984 LINE"
);
},
{
closed = 1;
nodes = (
"531 114 LINE",
"344 182 LINE",
"418 392 LINE",
"823 392 LINE",
"897 184 LINE",
"728 105 LINE",
"714 -1 LINE",
"1334 -1 LINE",
"1345 112 LINE",
"1202 181 LINE",
"812 1269 LINE",
"564 1221 LINE",
"150 185 LINE",
"-4 106 LINE",
"-18 0 LINE",
"518 0 LINE"
);
}
);
width = 1343;
},
{
layerId = "A76B26BC-A350-47F3-8273-F323BC23B531";
paths = (
{
closed = 1;
nodes = (
"160 129 LINE",
"12 74 LINE",
"2 0 LINE",
"470 0 LINE",
"482 81 LINE",
"295 124 LINE",
"408 433 LINE",
"827 433 LINE",
"936 129 LINE",
"765 74 LINE",
"753 0 LINE",
"1268 0 LINE",
"1277 81 LINE",
"1139 124 LINE",
"750 1268 LINE",
"598 1237 LINE"
);
},
{
closed = 1;
nodes = (
"798 534 LINE",
"446 534 LINE",
"631 1034 LINE"
);
}
);
width = 1278;
},
{
layerId = "52F1D99C-0FFA-4FAD-B979-579B617E1314";
paths = (
{
closed = 1;
nodes = (
"826 534 LINE",
"453 534 LINE",
"646 1060 LINE"
);
},
{
closed = 1;
nodes = (
"479 63 LINE",
"294 95 LINE",
"425 455 LINE",
"850 455 LINE",
"974 101 LINE",
"805 58 LINE",
"795 0 LINE",
"1257 0 LINE",
"1265 64 LINE",
"1130 95 LINE",
"728 1268 LINE",
"626 1246 LINE",
"188 101 LINE",
"43 58 LINE",
"35 0 LINE",
"469 0 LINE"
);
}
);
width = 1324;
},
{
layerId = "B64F7E56-5CD3-4760-9166-7FC8A47137FC";
paths = (
{
closed = 1;
nodes = (
"893 534 LINE",
"500 534 LINE",
"700 1085 LINE"
);
},
{
closed = 1;
nodes = (
"516 46 LINE",
"332 65 LINE",
"480 478 LINE",
"912 478 LINE",
"1051 73 LINE",
"885 43 LINE",
"876 1 LINE",
"1285 1 LINE",
"1293 47 LINE",
"1161 66 LINE",
"746 1268 LINE",
"693 1254 LINE",
"255 72 LINE",
"113 42 LINE",
"108 0 LINE",
"507 0 LINE"
);
}
);
width = 1413;
}
);
note = A;
unicode = 0041;
},
{
glyphname = B;
lastChange = "2016-08-10 08:02:47 +0000";
layers = (
{
layerId = "DEC179DC-8547-47B6-92D4-65C3F1BBEDD1";
paths = (
{
closed = 1;
nodes = (
"573 1078 OFFCURVE",
"591 1080 OFFCURVE",
"604 1080 CURVE SMOOTH",
"727 1080 OFFCURVE",
"788 1017 OFFCURVE",
"788 892 CURVE SMOOTH",
"788 832 OFFCURVE",
"767 777 OFFCURVE",
"726 728 CURVE",
"552 728 LINE",
"552 1075 LINE"
);
},
{
closed = 1;
nodes = (
"631 561 LINE SMOOTH",
"764 561 OFFCURVE",
"853 471 OFFCURVE",
"853 357 CURVE SMOOTH",
"853 243 OFFCURVE",
"772 186 OFFCURVE",
"664 186 CURVE SMOOTH",
"552 186 LINE",
"552 561 LINE"
);
},
{
closed = 1;
nodes = (
"1017 0 OFFCURVE",
"1228 139 OFFCURVE",
"1228 379 CURVE SMOOTH",
"1228 520 OFFCURVE",
"1138 663 OFFCURVE",
"943 674 CURVE",
"943 684 LINE",
"1052 720 OFFCURVE",
"1146 842 OFFCURVE",
"1146 951 CURVE SMOOTH",
"1146 1032 OFFCURVE",
"1107 1102 OFFCURVE",
"1030 1160 CURVE SMOOTH",
"950 1220 OFFCURVE",
"819 1257 OFFCURVE",
"561 1257 CURVE SMOOTH",
"432 1257 OFFCURVE",
"252 1242 OFFCURVE",
"21 1211 CURVE",
"11 1052 LINE",
"180 1008 LINE",
"180 217 LINE",
"14 138 LINE",
"0 0 LINE",
"644 0 LINE SMOOTH"
);
}
);
width = 1228;
},
{
layerId = "CE2484D1-EC55-40DA-BA6C-521C673DBDD6";
paths = (
{
closed = 1;
nodes = (
"509 1124 OFFCURVE",
"531 1126 OFFCURVE",
"552 1126 CURVE SMOOTH",
"724 1126 OFFCURVE",
"798 1034 OFFCURVE",
"798 903 CURVE SMOOTH",
"798 815 OFFCURVE",
"766 750 OFFCURVE",
"702 708 CURVE",
"486 708 LINE",
"486 1120 LINE"
);
},
{
closed = 1;
nodes = (
"637 583 LINE SMOOTH",
"785 583 OFFCURVE",
"878 477 OFFCURVE",
"878 352 CURVE SMOOTH",
"878 227 OFFCURVE",
"788 141 OFFCURVE",
"652 141 CURVE SMOOTH",
"486 141 LINE",
"486 583 LINE"
);
},
{
closed = 1;
nodes = (
"977 0 OFFCURVE",
"1164 153 OFFCURVE",
"1164 380 CURVE SMOOTH",
"1164 525 OFFCURVE",
"1057 662 OFFCURVE",
"866 673 CURVE",
"866 682 LINE",
"993 726 OFFCURVE",
"1071 846 OFFCURVE",
"1071 959 CURVE SMOOTH",
"1071 1040 OFFCURVE",
"1035 1108 OFFCURVE",
"962 1164 CURVE SMOOTH",
"889 1221 OFFCURVE",
"769 1257 OFFCURVE",
"544 1257 CURVE SMOOTH",
"431 1257 OFFCURVE",
"265 1242 OFFCURVE",
"44 1211 CURVE",
"34 1093 LINE",
"204 1056 LINE",
"204 169 LINE",
"38 106 LINE",
"25 0 LINE",
"606 0 LINE SMOOTH"
);
}
);
width = 1187;
},
{
layerId = "A76B26BC-A350-47F3-8273-F323BC23B531";
paths = (
{
closed = 1;
nodes = (
"700 605 OFFCURVE",
"771 571 OFFCURVE",
"813 522 CURVE SMOOTH",
"855 473 OFFCURVE",
"877 411 OFFCURVE",
"877 347 CURVE SMOOTH",
"877 208 OFFCURVE",
"777 95 OFFCURVE",
"613 95 CURVE SMOOTH",
"393 95 LINE",
"393 605 LINE",
"616 605 LINE SMOOTH"
);
},
{
closed = 1;
nodes = (
"839 708 OFFCURVE",
"896 754 OFFCURVE",
"926 807 CURVE SMOOTH",
"956 859 OFFCURVE",
"970 911 OFFCURVE",
"970 966 CURVE SMOOTH",
"970 1045 OFFCURVE",
"936 1113 OFFCURVE",
"868 1168 CURVE SMOOTH",
"800 1223 OFFCURVE",
"681 1257 OFFCURVE",
"532 1257 CURVE SMOOTH",
"412 1257 OFFCURVE",
"248 1242 OFFCURVE",
"39 1211 CURVE",
"30 1134 LINE",
"202 1105 LINE",
"202 121 LINE",
"33 74 LINE",
"23 0 LINE",
"540 0 LINE SMOOTH",
"618 0 OFFCURVE",
"688 7 OFFCURVE",
"750 22 CURVE SMOOTH",
"874 51 OFFCURVE",
"949 98 OFFCURVE",
"1001 165 CURVE SMOOTH",
"1053 232 OFFCURVE",
"1073 301 OFFCURVE",
"1073 380 CURVE SMOOTH",
"1073 448 OFFCURVE",
"1046 516 OFFCURVE",
"996 572 CURVE SMOOTH",
"946 627 OFFCURVE",
"862 667 OFFCURVE",
"763 672 CURVE",
"763 680 LINE"
);
},
{
closed = 1;
nodes = (
"440 1174 OFFCURVE",
"524 1176 OFFCURVE",
"597 1156 CURVE SMOOTH",
"670 1135 OFFCURVE",
"713 1102 OFFCURVE",
"742 1055 CURVE SMOOTH",
"771 1008 OFFCURVE",
"781 962 OFFCURVE",
"781 910 CURVE SMOOTH",
"782 799 OFFCURVE",
"738 725 OFFCURVE",
"651 688 CURVE",
"393 688 LINE",
"393 1165 LINE"
);
}
);
width = 1127;
},
{
layerId = "52F1D99C-0FFA-4FAD-B979-579B617E1314";
paths = (
{
closed = 1;
nodes = (
"428 1190 OFFCURVE",
"462 1192 OFFCURVE",
"507 1192 CURVE SMOOTH",
"728 1192 OFFCURVE",
"838 1086 OFFCURVE",
"838 922 CURVE SMOOTH",
"838 813 OFFCURVE",
"778 730 OFFCURVE",
"691 685 CURVE",
"407 685 LINE",
"407 1186 LINE"
);
},
{
closed = 1;
nodes = (
"646 618 LINE SMOOTH",
"849 618 OFFCURVE",
"936 484 OFFCURVE",
"936 345 CURVE SMOOTH",
"936 311 OFFCURVE",
"931 279 OFFCURVE",
"920 248 CURVE SMOOTH",
"879 133 OFFCURVE",
"785 75 OFFCURVE",
"639 75 CURVE SMOOTH",
"407 75 LINE",
"407 618 LINE"
);
},
{
closed = 1;
nodes = (
"867 0 OFFCURVE",
"1087 113 OFFCURVE",
"1087 380 CURVE SMOOTH",
"1087 525 OFFCURVE",
"970 661 OFFCURVE",
"777 672 CURVE",
"777 679 LINE",
"912 740 OFFCURVE",
"983 844 OFFCURVE",
"983 967 CURVE SMOOTH",
"983 1131 OFFCURVE",
"837 1257 OFFCURVE",
"566 1257 CURVE SMOOTH",
"482 1257 OFFCURVE",
"399 1252 OFFCURVE",
"318 1242 CURVE SMOOTH",
"217 1229 LINE SMOOTH",
"184 1224 OFFCURVE",
"144 1218 OFFCURVE",
"98 1211 CURVE",
"89 1155 LINE",
"260 1129 LINE",
"260 96 LINE",
"92 58 LINE",
"82 0 LINE",
"554 0 LINE SMOOTH"
);
}
);
width = 1135;
},
{
layerId = "B64F7E56-5CD3-4760-9166-7FC8A47137FC";
paths = (
{
closed = 1;
nodes = (
"411 1210 OFFCURVE",
"452 1212 OFFCURVE",
"515 1212 CURVE SMOOTH",
"736 1212 OFFCURVE",
"868 1117 OFFCURVE",
"868 933 CURVE SMOOTH",
"868 826 OFFCURVE",
"792 737 OFFCURVE",
"703 680 CURVE",
"393 680 LINE",
"393 1206 LINE"
);
},
{
closed = 1;
nodes = (
"649 631 LINE SMOOTH",
"882 631 OFFCURVE",
"969 487 OFFCURVE",
"969 344 CURVE SMOOTH",
"969 309 OFFCURVE",
"964 275 OFFCURVE",
"953 242 CURVE SMOOTH",
"912 117 OFFCURVE",
"808 54 OFFCURVE",
"639 54 CURVE SMOOTH",
"393 54 LINE",
"393 631 LINE"
);
},
{
closed = 1;
nodes = (
"621 0 OFFCURVE",
"693 7 OFFCURVE",
"756 21 CURVE SMOOTH",
"969 68 OFFCURVE",
"1075 188 OFFCURVE",
"1075 380 CURVE SMOOTH",
"1075 525 OFFCURVE",
"956 661 OFFCURVE",
"763 672 CURVE",
"763 678 LINE",
"901 754 OFFCURVE",
"970 850 OFFCURVE",
"970 967 CURVE SMOOTH",
"970 1128 OFFCURVE",
"824 1257 OFFCURVE",
"573 1257 CURVE SMOOTH",
"539 1257 OFFCURVE",
"496 1256 OFFCURVE",
"443 1254 CURVE SMOOTH",
"390 1251 OFFCURVE",
"286 1237 OFFCURVE",
"130 1211 CURVE",
"120 1175 LINE",
"292 1153 LINE",
"292 72 LINE",
"123 42 LINE",
"115 0 LINE",
"540 0 LINE SMOOTH"
);
}
);
width = 1123;
}
);
note = B;
unicode = 0042;
},
{
glyphname = C;
lastChange = "2016-08-10 08:02:47 +0000";
layers = (
{
layerId = "DEC179DC-8547-47B6-92D4-65C3F1BBEDD1";
paths = (
{
closed = 1;
nodes = (
"0 194 OFFCURVE",
"224 -29 OFFCURVE",
"680 -29 CURVE SMOOTH",
"919 -29 OFFCURVE",
"1095 55 OFFCURVE",
"1194 178 CURVE",
"1135 313 LINE",
"1038 241 OFFCURVE",
"930 205 OFFCURVE",
"809 205 CURVE SMOOTH",
"531 205 OFFCURVE",
"392 372 OFFCURVE",
"392 706 CURVE SMOOTH",
"392 969 OFFCURVE",
"486 1090 OFFCURVE",
"703 1090 CURVE SMOOTH",
"775 1090 OFFCURVE",
"853 1058 OFFCURVE",
"897 1003 CURVE",
"961 771 LINE",
"1131 748 LINE",
"1162 1172 LINE",
"1089 1231 OFFCURVE",
"918 1272 OFFCURVE",
"732 1272 CURVE SMOOTH",
"639 1272 OFFCURVE",
"546 1257 OFFCURVE",
"455 1228 CURVE SMOOTH",
"272 1169 OFFCURVE",
"169 1077 OFFCURVE",
"96 952 CURVE SMOOTH",
"32 843 OFFCURVE",
"0 720 OFFCURVE",
"0 583 CURVE SMOOTH"
);
}
);
width = 1242;
},
{
layerId = "CE2484D1-EC55-40DA-BA6C-521C673DBDD6";
paths = (
{
closed = 1;
nodes = (
"30 202 OFFCURVE",
"286 -26 OFFCURVE",
"678 -26 CURVE SMOOTH",
"891 -26 OFFCURVE",
"1089 71 OFFCURVE",
"1178 176 CURVE",
"1130 281 LINE",
"1019 199 OFFCURVE",
"899 158 OFFCURVE",
"771 158 CURVE SMOOTH",
"515 158 OFFCURVE",
"334 357 OFFCURVE",
"334 666 CURVE SMOOTH",
"334 974 OFFCURVE",
"471 1132 OFFCURVE",
"688 1132 CURVE SMOOTH",
"787 1132 OFFCURVE",
"879 1095 OFFCURVE",
"926 1036 CURVE",
"978 810 LINE",
"1108 792 LINE",
"1138 1170 LINE",
"1057 1233 OFFCURVE",
"898 1270 OFFCURVE",
"725 1270 CURVE SMOOTH",
"638 1270 OFFCURVE",
"553 1256 OFFCURVE",
"470 1227 CURVE SMOOTH",
"174 1126 OFFCURVE",
"30 851 OFFCURVE",
"30 586 CURVE SMOOTH"
);
}
);
width = 1197;
},
{
layerId = "A76B26BC-A350-47F3-8273-F323BC23B531";
paths = (
{
closed = 1;
nodes = (
"264 816 OFFCURVE",
"299 942 OFFCURVE",
"370 1035 CURVE SMOOTH",
"511 1222 OFFCURVE",
"787 1209 OFFCURVE",
"895 1070 CURVE",
"936 850 LINE",
"1024 837 LINE",
"1055 1170 LINE",
"966 1237 OFFCURVE",
"846 1270 OFFCURVE",
"693 1270 CURVE SMOOTH",
"630 1270 OFFCURVE",
"570 1263 OFFCURVE",
"514 1248 CURVE SMOOTH",
"401 1219 OFFCURVE",
"319 1166 OFFCURVE",
"248 1095 CURVE SMOOTH",
"177 1024 OFFCURVE",
"132 944 OFFCURVE",
"98 854 CURVE SMOOTH",
"64 764 OFFCURVE",
"49 677 OFFCURVE",
"49 590 CURVE SMOOTH",
"49 397 OFFCURVE",
"119 232 OFFCURVE",
"230 132 CURVE SMOOTH",
"341 32 OFFCURVE",
"485 -25 OFFCURVE",
"641 -25 CURVE SMOOTH",
"833 -25 OFFCURVE",
"1012 76 OFFCURVE",
"1103 185 CURVE",
"1067 261 LINE",
"974 174 OFFCURVE",
"845 111 OFFCURVE",
"718 111 CURVE SMOOTH",
"598 111 OFFCURVE",
"487 161 OFFCURVE",
"403 250 CURVE SMOOTH",
"318 339 OFFCURVE",
"264 486 OFFCURVE",
"264 659 CURVE SMOOTH"
);
}
);
width = 1111;
},
{
layerId = "52F1D99C-0FFA-4FAD-B979-579B617E1314";
paths = (
{
closed = 1;
nodes = (
"368 35 OFFCURVE",
"500 -25 OFFCURVE",
"673 -25 CURVE SMOOTH",
"846 -25 OFFCURVE",
"1029 83 OFFCURVE",
"1113 195 CURVE",
"1084 252 LINE",
"989 156 OFFCURVE",
"860 84 OFFCURVE",
"727 84 CURVE SMOOTH",
"456 84 OFFCURVE",
"271 298 OFFCURVE",
"271 637 CURVE SMOOTH",
"271 976 OFFCURVE",
"438 1195 OFFCURVE",
"670 1195 CURVE SMOOTH",
"785 1195 OFFCURVE",
"871 1159 OFFCURVE",
"927 1086 CURVE",
"963 846 LINE",
"1031 836 LINE",
"1062 1171 LINE",
"975 1237 OFFCURVE",
"858 1270 OFFCURVE",
"711 1270 CURVE SMOOTH",
"630 1270 OFFCURVE",
"556 1256 OFFCURVE",
"488 1229 CURVE SMOOTH",
"351 1173 OFFCURVE",
"264 1081 OFFCURVE",
"200 963 CURVE SMOOTH",
"136 845 OFFCURVE",
"108 729 OFFCURVE",
"108 573 CURVE SMOOTH",
"108 416 OFFCURVE",
"169 244 OFFCURVE",
"269 140 CURVE SMOOTH"
);
}
);
width = 1113;
},
{
layerId = "B64F7E56-5CD3-4760-9166-7FC8A47137FC";
paths = (
{
closed = 1;
nodes = (
"154 223 OFFCURVE",
"358 -26 OFFCURVE",
"665 -26 CURVE SMOOTH",
"870 -26 OFFCURVE",
"1043 102 OFFCURVE",
"1112 206 CURVE",
"1089 243 LINE",
"997 138 OFFCURVE",
"854 54 OFFCURVE",
"711 54 CURVE SMOOTH",
"423 54 OFFCURVE",
"260 274 OFFCURVE",
"260 627 CURVE SMOOTH",
"260 980 OFFCURVE",
"442 1215 OFFCURVE",
"682 1215 CURVE SMOOTH",
"802 1215 OFFCURVE",
"891 1177 OFFCURVE",
"949 1101 CURVE",
"979 842 LINE",
"1026 834 LINE",
"1057 1171 LINE",
"968 1238 OFFCURVE",
"859 1271 OFFCURVE",
"728 1271 CURVE SMOOTH",
"597 1271 OFFCURVE",
"488 1236 OFFCURVE",
"403 1166 CURVE SMOOTH",
"231 1026 OFFCURVE",
"154 808 OFFCURVE",
"154 607 CURVE SMOOTH"
);
}
);
width = 1071;
}
);
note = C;
unicode = 0043;
},
{
glyphname = D;
lastChange = "2016-08-10 08:02:47 +0000";
layers = (
{
layerId = "DEC179DC-8547-47B6-92D4-65C3F1BBEDD1";
paths = (
{
closed = 1;
nodes = (
"575 1051 OFFCURVE",
"579 1051 OFFCURVE",
"584 1052 CURVE",
"589 1052 OFFCURVE",
"590 1053 OFFCURVE",
"585 1054 CURVE SMOOTH",
"580 1055 OFFCURVE",
"578 1055 OFFCURVE",
"578 1056 CURVE",
"591 1057 LINE",
"717 1057 OFFCURVE",
"818 1022 OFFCURVE",
"894 952 CURVE SMOOTH",
"928 921 OFFCURVE",
"957 885 OFFCURVE",
"980 844 CURVE SMOOTH",
"1027 762 OFFCURVE",
"1046 682 OFFCURVE",
"1046 591 CURVE SMOOTH",
"1046 546 OFFCURVE",
"1041 502 OFFCURVE",
"1030 459 CURVE SMOOTH",
"986 288 OFFCURVE",
"859 202 OFFCURVE",
"648 202 CURVE SMOOTH",
"573 202 LINE",
"573 1051 LINE"
);
},
{
closed = 1;
nodes = (
"866 0 OFFCURVE",
"1086 78 OFFCURVE",
"1227 198 CURVE SMOOTH",
"1367 318 OFFCURVE",
"1451 479 OFFCURVE",
"1451 660 CURVE SMOOTH",
"1451 750 OFFCURVE",
"1436 832 OFFCURVE",
"1406 906 CURVE SMOOTH",
"1389 948 OFFCURVE",
"1367 986 OFFCURVE",
"1340 1020 CURVE SMOOTH",
"1286 1088 OFFCURVE",
"1198 1151 OFFCURVE",
"1086 1192 CURVE SMOOTH",
"974 1233 OFFCURVE",
"838 1258 OFFCURVE",
"567 1258 CURVE SMOOTH",
"431 1258 OFFCURVE",
"254 1241 OFFCURVE",
"37 1206 CURVE",
"30 1049 LINE",
"203 1003 LINE",
"203 241 LINE",
"23 138 LINE",
"0 0 LINE",
"618 0 LINE SMOOTH"
);
}
);
width = 1451;
},
{
layerId = "CE2484D1-EC55-40DA-BA6C-521C673DBDD6";
paths = (
{
closed = 1;
nodes = (
"736 1106 OFFCURVE",
"871 1044 OFFCURVE",
"950 946 CURVE SMOOTH",
"1029 848 OFFCURVE",
"1070 734 OFFCURVE",
"1070 578 CURVE SMOOTH",
"1070 500 OFFCURVE",
"1050 425 OFFCURVE",
"1010 354 CURVE SMOOTH",
"933 220 OFFCURVE",
"799 153 OFFCURVE",
"608 153 CURVE SMOOTH",
"498 153 LINE",
"498 1101 LINE",
"568 1106 LINE"
);
},
{
closed = 1;
nodes = (
"780 0 OFFCURVE",
"947 44 OFFCURVE",
"1082 131 CURVE SMOOTH",
"1145 172 OFFCURVE",
"1199 220 OFFCURVE",
"1244 275 CURVE SMOOTH",
"1334 385 OFFCURVE",
"1378 508 OFFCURVE",
"1378 673 CURVE SMOOTH",
"1378 755 OFFCURVE",
"1363 833 OFFCURVE",
"1332 907 CURVE SMOOTH",
"1315 948 OFFCURVE",
"1294 986 OFFCURVE",
"1268 1020 CURVE SMOOTH",
"1216 1088 OFFCURVE",
"1133 1151 OFFCURVE",
"1029 1192 CURVE SMOOTH",
"924 1233 OFFCURVE",
"796 1258 OFFCURVE",
"553 1258 CURVE SMOOTH",
"431 1258 OFFCURVE",
"265 1241 OFFCURVE",
"54 1208 CURVE",
"46 1091 LINE",
"218 1053 LINE",
"218 185 LINE",
"42 106 LINE",
"24 0 LINE",
"580 0 LINE SMOOTH"
);
}
);
width = 1407;
},
{
layerId = "A76B26BC-A350-47F3-8273-F323BC23B531";
paths = (
{
closed = 1;
nodes = (
"422 1154 OFFCURVE",
"463 1156 OFFCURVE",
"517 1156 CURVE SMOOTH",
"588 1156 OFFCURVE",
"654 1147 OFFCURVE",
"714 1128 CURVE SMOOTH",
"834 1090 OFFCURVE",
"918 1021 OFFCURVE",
"977 927 CURVE SMOOTH",
"1036 833 OFFCURVE",
"1063 722 OFFCURVE",
"1063 598 CURVE SMOOTH",
"1063 462 OFFCURVE",
"1020 342 OFFCURVE",
"936 251 CURVE SMOOTH",
"852 160 OFFCURVE",
"712 104 OFFCURVE",
"540 104 CURVE SMOOTH",
"395 104 LINE",
"395 1151 LINE"
);
},
{
closed = 1;
nodes = (
"1275 699 OFFCURVE",
"1272 743 OFFCURVE",
"1265 785 CURVE SMOOTH",
"1251 868 OFFCURVE",
"1219 953 OFFCURVE",
"1169 1022 CURVE SMOOTH",
"1119 1090 OFFCURVE",
"1041 1152 OFFCURVE",
"943 1193 CURVE SMOOTH",
"845 1234 OFFCURVE",
"711 1258 OFFCURVE",
"554 1258 CURVE SMOOTH",
"417 1258 OFFCURVE",
"246 1242 OFFCURVE",
"39 1209 CURVE",
"31 1133 LINE",
"203 1103 LINE",
"203 129 LINE",
"31 74 LINE",
"18 0 LINE",
"512 0 LINE SMOOTH",
"611 0 OFFCURVE",
"703 12 OFFCURVE",
"787 36 CURVE SMOOTH",
"955 83 OFFCURVE",
"1070 165 OFFCURVE",
"1154 276 CURVE SMOOTH",
"1237 387 OFFCURVE",
"1275 515 OFFCURVE",
"1275 654 CURVE SMOOTH"
);
}
);
width = 1324;
},
{
layerId = "52F1D99C-0FFA-4FAD-B979-579B617E1314";
paths = (
{
closed = 1;
nodes = (
"436 1179 OFFCURVE",
"486 1181 OFFCURVE",
"557 1181 CURVE SMOOTH",
"932 1181 OFFCURVE",
"1127 936 OFFCURVE",
"1127 612 CURVE SMOOTH",
"1127 287 OFFCURVE",
"918 79 OFFCURVE",
"571 79 CURVE SMOOTH",
"409 79 LINE",
"409 1176 LINE"
);
},
{
closed = 1;
nodes = (
"643 0 OFFCURVE",
"735 12 OFFCURVE",
"818 36 CURVE SMOOTH",
"1127 124 OFFCURVE",
"1290 367 OFFCURVE",
"1290 646 CURVE SMOOTH",
"1290 785 OFFCURVE",
"1258 906 OFFCURVE",
"1193 1009 CURVE SMOOTH",
"1063 1213 OFFCURVE",
"804 1259 OFFCURVE",
"580 1259 CURVE SMOOTH",
"467 1259 OFFCURVE",
"307 1243 OFFCURVE",
"100 1210 CURVE",
"90 1154 LINE",
"263 1128 LINE",
"263 101 LINE",
"92 58 LINE",
"81 0 LINE",
"544 0 LINE SMOOTH"
);
}
);
width = 1344;
},
{
layerId = "B64F7E56-5CD3-4760-9166-7FC8A47137FC";
paths = (
{
closed = 1;
nodes = (
"412 1204 OFFCURVE",
"470 1205 OFFCURVE",
"567 1205 CURVE SMOOTH",
"944 1205 OFFCURVE",
"1158 995 OFFCURVE",
"1158 638 CURVE SMOOTH",
"1158 281 OFFCURVE",
"925 54 OFFCURVE",
"573 54 CURVE SMOOTH",
"393 54 LINE",
"393 1201 LINE"
);
},
{
closed = 1;
nodes = (
"942 0 OFFCURVE",
"1266 199 OFFCURVE",
"1266 655 CURVE SMOOTH",
"1266 782 OFFCURVE",
"1233 899 OFFCURVE",
"1167 1004 CURVE SMOOTH",
"1034 1214 OFFCURVE",
"797 1259 OFFCURVE",
"590 1259 CURVE SMOOTH",
"487 1259 OFFCURVE",
"333 1243 OFFCURVE",
"130 1211 CURVE",
"120 1175 LINE",
"292 1153 LINE",
"292 72 LINE",
"123 42 LINE",
"115 0 LINE",
"546 0 LINE SMOOTH"
);
}
);
width = 1322;
}
);
note = D;
unicode = 0044;
},
{
glyphname = E;
lastChange = "2016-08-10 08:02:47 +0000";
layers = (
{
layerId = "DEC179DC-8547-47B6-92D4-65C3F1BBEDD1";
paths = (
{
closed = 1;
nodes = (
"190 217 LINE",
"26 138 LINE",
"16 0 LINE",
"1207 0 LINE",
"1237 411 LINE",
"1072 428 LINE",
"926 170 LINE",
"563 210 LINE",
"563 540 LINE",
"949 470 LINE",
"982 746 LINE",
"696 723 LINE",
"563 712 LINE",
"563 1072 LINE",
"908 1072 LINE",
"991 852 LINE",
"1162 826 LINE",
"1192 1244 LINE",
"19 1244 LINE",
"0 1100 LINE",
"190 1030 LINE"
);
}
);
width = 1237;
},
{
layerId = "CE2484D1-EC55-40DA-BA6C-521C673DBDD6";
paths = (
{
closed = 1;
nodes = (
"211 169 LINE",
"46 106 LINE",
"36 0 LINE",
"1140 0 LINE",
"1170 362 LINE",
"1046 377 LINE",
"924 151 LINE",
"495 151 LINE",
"495 562 LINE",
"712 562 LINE",
"745 393 LINE",
"884 416 LINE",
"918 840 LINE",
"774 813 LINE",
"730 684 LINE",
"495 684 LINE",
"495 1112 LINE",
"902 1112 LINE",
"964 894 LINE",
"1093 875 LINE",
"1124 1244 LINE",
"40 1244 LINE",
"25 1134 LINE",
"211 1078 LINE"
);
}
);
width = 1189;
},
{
layerId = "A76B26BC-A350-47F3-8273-F323BC23B531";
paths = (
{
closed = 1;
nodes = (
"206 1126 LINE",
"206 121 LINE",
"39 74 LINE",
"31 0 LINE",
"1047 0 LINE",
"1077 313 LINE",
"994 326 LINE",
"897 95 LINE",
"400 95 LINE",
"400 583 LINE",
"675 583 LINE",
"708 408 LINE",
"795 421 LINE",
"827 809 LINE",
"733 796 LINE",
"690 677 LINE",
"400 677 LINE",
"400 1152 LINE",
"872 1152 LINE",
"913 938 LINE",
"999 924 LINE",
"1031 1244 LINE",
"35 1244 LINE",
"25 1168 LINE"
);
}
);
width = 1074;
},
{
layerId = "52F1D99C-0FFA-4FAD-B979-579B617E1314";
paths = (
{
closed = 1;
nodes = (
"265 96 LINE",
"96 58 LINE",
"90 0 LINE",
"1060 0 LINE",
"1090 313 LINE",
"1028 324 LINE",
"942 75 LINE",
"413 75 LINE",
"413 594 LINE",
"716 594 LINE",
"741 408 LINE",
"807 419 LINE",
"840 808 LINE",
"768 797 LINE",
"728 668 LINE",
"413 668 LINE",
"413 1173 LINE",
"916 1173 LINE",
"946 934 LINE",
"1013 925 LINE",
"1044 1244 LINE",
"93 1244 LINE",
"84 1185 LINE",
"265 1151 LINE"
);
}
);
width = 1107;
},
{
layerId = "B64F7E56-5CD3-4760-9166-7FC8A47137FC";
paths = (
{
closed = 1;
nodes = (
"297 72 LINE",
"127 42 LINE",
"121 0 LINE",
"1048 0 LINE",
"1078 313 LINE",
"1037 323 LINE",
"963 54 LINE",
"401 54 LINE",
"401 605 LINE",
"727 605 LINE",
"743 408 LINE",
"794 417 LINE",
"827 806 LINE",
"773 798 LINE",
"736 659 LINE",
"401 659 LINE",
"401 1193 LINE",
"935 1193 LINE",
"954 931 LINE",
"1000 925 LINE",
"1031 1244 LINE",
"125 1244 LINE",
"118 1202 LINE",
"297 1175 LINE"
);
}
);
width = 1071;
}
);
note = E;
unicode = 0045;
},
{
glyphname = F;
lastChange = "2016-08-10 08:02:47 +0000";
layers = (
{
layerId = "DEC179DC-8547-47B6-92D4-65C3F1BBEDD1";
paths = (
{
closed = 1;
nodes = (
"193 217 LINE",
"31 138 LINE",
"15 0 LINE",
"774 0 LINE",
"790 143 LINE",
"565 227 LINE",
"565 514 LINE",
"798 477 LINE",
"951 452 LINE",
"984 728 LINE",
"792 709 LINE",
"565 686 LINE",
"565 1072 LINE",
"901 1072 LINE",
"961 861 LINE",
"1128 834 LINE",
"1187 1244 LINE",
"19 1244 LINE",
"0 1100 LINE",
"193 1030 LINE"
);
}
);
width = 1187;
},
{
layerId = "CE2484D1-EC55-40DA-BA6C-521C673DBDD6";
paths = (
{
closed = 1;
nodes = (
"212 169 LINE",
"48 106 LINE",
"36 0 LINE",
"711 0 LINE",
"726 113 LINE",
"496 174 LINE",
"496 506 LINE",
"715 506 LINE",
"747 326 LINE",
"882 354 LINE",
"922 800 LINE",
"775 770 LINE",
"729 638 LINE",
"496 638 LINE",
"496 1112 LINE",
"896 1112 LINE",
"943 898 LINE",
"1070 878 LINE",
"1120 1244 LINE",
"40 1244 LINE",
"25 1134 LINE",
"212 1078 LINE"
);
}
);
width = 1125;
},
{
layerId = "A76B26BC-A350-47F3-8273-F323BC23B531";
paths = (
{
closed = 1;
nodes = (
"206 1126 LINE",
"206 121 LINE",
"39 74 LINE",
"31 0 LINE",
"623 0 LINE",
"636 84 LINE",
"398 123 LINE",
"400 578 LINE",
"674 578 LINE",
"705 398 LINE",
"793 413 LINE",
"819 804 LINE",
"730 791 LINE",
"687 670 LINE",
"400 670 LINE",
"400 1152 LINE",
"865 1152 LINE",
"900 936 LINE",
"988 923 LINE",
"1029 1244 LINE",
"35 1244 LINE",
"25 1168 LINE"
);
}
);
width = 1028;
},
{
layerId = "52F1D99C-0FFA-4FAD-B979-579B617E1314";
paths = (
{
closed = 1;
nodes = (
"260 96 LINE",
"91 58 LINE",
"86 0 LINE",
"637 0 LINE",
"649 68 LINE",
"408 96 LINE",
"409 579 LINE",
"710 579 LINE",
"734 391 LINE",
"803 402 LINE",
"832 792 LINE",
"761 782 LINE",
"720 652 LINE",
"409 652 LINE",
"409 1173 LINE",
"906 1173 LINE",
"934 933 LINE",
"1002 923 LINE",
"1039 1244 LINE",
"89 1244 LINE",
"81 1185 LINE",
"260 1151 LINE"
);
}
);
width = 1123;
},
{
layerId = "B64F7E56-5CD3-4760-9166-7FC8A47137FC";
paths = (
{
closed = 1;
nodes = (
"288 72 LINE",
"118 42 LINE",
"115 0 LINE",
"625 0 LINE",
"637 53 LINE",
"391 70 LINE",
"391 580 LINE",
"715 580 LINE",
"733 384 LINE",
"788 392 LINE",
"819 780 LINE",
"763 773 LINE",
"724 633 LINE",
"391 633 LINE",
"391 1193 LINE",
"921 1193 LINE",
"942 930 LINE",
"991 922 LINE",
"1024 1244 LINE",
"118 1244 LINE",
"111 1202 LINE",
"288 1175 LINE"
);
}
);
width = 1181;
}
);
note = F;
unicode = 0046;
},
{
glyphname = G;
lastChange = "2016-08-10 08:02:47 +0000";
layers = (
{
layerId = "DEC179DC-8547-47B6-92D4-65C3F1BBEDD1";
paths = (
{
closed = 1;
nodes = (
"0 184 OFFCURVE",
"249 -24 OFFCURVE",
"740 -24 CURVE SMOOTH",
"896 -24 OFFCURVE",
"1158 37 OFFCURVE",
"1245 93 CURVE",
"1245 363 LINE",
"1350 435 LINE",
"1371 591 LINE",
"711 591 LINE",
"688 419 LINE",
"909 355 LINE",
"909 235 LINE",
"858 198 OFFCURVE",
"797 179 OFFCURVE",
"724 179 CURVE SMOOTH",
"532 179 OFFCURVE",
"408 392 OFFCURVE",
"408 683 CURVE SMOOTH",
"408 974 OFFCURVE",
"514 1087 OFFCURVE",
"714 1087 CURVE SMOOTH",
"833 1087 OFFCURVE",
"905 1047 OFFCURVE",
"972 979 CURVE",
"1013 761 LINE",
"1201 746 LINE",
"1242 1185 LINE",
"1166 1210 LINE SMOOTH",
"1115 1226 OFFCURVE",
"1079 1237 OFFCURVE",
"1057 1242 CURVE SMOOTH",
"970 1261 OFFCURVE",
"872 1271 OFFCURVE",
"761 1271 CURVE SMOOTH",
"604 1271 OFFCURVE",
"461 1233 OFFCURVE",
"332 1156 CURVE SMOOTH",
"267 1117 OFFCURVE",
"209 1071 OFFCURVE",
"160 1017 CURVE SMOOTH",
"61 909 OFFCURVE",
"0 753 OFFCURVE",
"0 580 CURVE SMOOTH"
);
}
);
width = 1391;
},
{
layerId = "CE2484D1-EC55-40DA-BA6C-521C673DBDD6";
paths = (
{
closed = 1;
nodes = (
"30 202 OFFCURVE",
"262 -28 OFFCURVE",
"699 -28 CURVE SMOOTH",
"878 -28 OFFCURVE",
"1084 19 OFFCURVE",
"1192 86 CURVE",
"1192 401 LINE",
"1306 458 LINE",
"1323 573 LINE",
"715 573 LINE",
"698 446 LINE",
"926 394 LINE",
"926 177 LINE",
"879 144 OFFCURVE",
"817 128 OFFCURVE",
"740 128 CURVE SMOOTH",
"663 128 OFFCURVE",
"593 153 OFFCURVE",
"531 202 CURVE SMOOTH",
"406 300 OFFCURVE",
"342 469 OFFCURVE",
"342 672 CURVE SMOOTH",
"342 988 OFFCURVE",
"489 1124 OFFCURVE",
"690 1124 CURVE SMOOTH",
"811 1124 OFFCURVE",
"908 1087 OFFCURVE",
"982 1013 CURVE",
"1020 808 LINE",
"1158 794 LINE",
"1190 1174 LINE",
"1062 1231 OFFCURVE",
"939 1266 OFFCURVE",
"739 1266 CURVE SMOOTH",
"442 1266 OFFCURVE",
"30 1074 OFFCURVE",
"30 579 CURVE SMOOTH"
);
}
);
width = 1345;
},
{
layerId = "A76B26BC-A350-47F3-8273-F323BC23B531";
paths = (
{
closed = 1;
nodes = (
"1021 1228 OFFCURVE",
"880 1260 OFFCURVE",
"707 1260 CURVE SMOOTH",
"539 1260 OFFCURVE",
"377 1194 OFFCURVE",
"254 1081 CURVE SMOOTH",
"130 968 OFFCURVE",
"49 785 OFFCURVE",
"49 578 CURVE SMOOTH",
"49 509 OFFCURVE",
"57 445 OFFCURVE",
"72 384 CURVE SMOOTH",
"103 263 OFFCURVE",
"169 158 OFFCURVE",
"262 85 CURVE SMOOTH",
"355 12 OFFCURVE",
"490 -31 OFFCURVE",
"647 -31 CURVE SMOOTH",
"850 -31 OFFCURVE",
"998 2 OFFCURVE",
"1129 79 CURVE",
"1129 439 LINE",
"1253 480 LINE",
"1265 555 LINE",
"708 555 LINE",
"697 472 LINE",
"933 434 LINE",
"933 119 LINE",
"885 91 OFFCURVE",
"827 77 OFFCURVE",
"760 77 CURVE SMOOTH",
"607 77 OFFCURVE",
"474 146 OFFCURVE",
"393 252 CURVE SMOOTH",
"312 358 OFFCURVE",
"266 496 OFFCURVE",
"266 647 CURVE SMOOTH",
"266 718 OFFCURVE",
"273 783 OFFCURVE",
"288 842 CURVE SMOOTH",
"316 958 OFFCURVE",
"367 1032 OFFCURVE",
"435 1086 CURVE SMOOTH",
"502 1140 OFFCURVE",
"576 1161 OFFCURVE",
"657 1161 CURVE SMOOTH",
"798 1161 OFFCURVE",
"924 1104 OFFCURVE",
"981 1047 CURVE",
"1017 855 LINE",
"1105 841 LINE",
"1129 1163 LINE"
);
}
);
width = 1276;
},
{
layerId = "52F1D99C-0FFA-4FAD-B979-579B617E1314";
paths = (
{
closed = 1;
nodes = (
"618 1262 OFFCURVE",
"512 1232 OFFCURVE",
"416 1171 CURVE SMOOTH",
"223 1050 OFFCURVE",
"108 834 OFFCURVE",
"108 591 CURVE SMOOTH",
"108 224 OFFCURVE",
"323 -26 OFFCURVE",
"659 -26 CURVE SMOOTH",
"866 -26 OFFCURVE",
"1006 2 OFFCURVE",
"1135 79 CURVE",
"1135 467 LINE",
"1264 499 LINE",
"1274 556 LINE",
"756 556 LINE",
"746 495 LINE",
"985 463 LINE",
"984 119 LINE",
"927 80 OFFCURVE",
"855 61 OFFCURVE",
"768 61 CURVE SMOOTH",
"384 61 OFFCURVE",
"272 392 OFFCURVE",
"272 640 CURVE SMOOTH",
"272 976 OFFCURVE",
"446 1182 OFFCURVE",
"693 1182 CURVE SMOOTH",
"838 1182 OFFCURVE",
"958 1127 OFFCURVE",
"1011 1066 CURVE",
"1044 852 LINE",
"1110 841 LINE",
"1138 1162 LINE",
"1040 1229 OFFCURVE",
"906 1262 OFFCURVE",
"735 1262 CURVE SMOOTH"
);
}
);
width = 1357;
},
{
layerId = "B64F7E56-5CD3-4760-9166-7FC8A47137FC";
paths = (
{
closed = 1;
nodes = (
"1264 517 LINE",
"1271 556 LINE",
"791 556 LINE",
"785 517 LINE",
"1026 492 LINE",
"1024 118 LINE",
"954 69 OFFCURVE",
"867 45 OFFCURVE",
"764 45 CURVE SMOOTH",
"480 45 OFFCURVE",
"268 230 OFFCURVE",
"268 633 CURVE SMOOTH",
"268 964 OFFCURVE",
"444 1203 OFFCURVE",
"719 1203 CURVE SMOOTH",
"867 1203 OFFCURVE",
"977 1150 OFFCURVE",
"1029 1083 CURVE",
"1060 847 LINE",
"1105 842 LINE",
"1135 1160 LINE",
"1045 1228 OFFCURVE",
"922 1262 OFFCURVE",
"765 1262 CURVE SMOOTH",
"451 1262 OFFCURVE",
"247 1043 OFFCURVE",
"179 790 CURVE SMOOTH",
"162 727 OFFCURVE",
"154 657 OFFCURVE",
"154 580 CURVE SMOOTH",
"154 424 OFFCURVE",
"212 252 OFFCURVE",
"304 147 CURVE SMOOTH",
"400 36 OFFCURVE",
"528 -20 OFFCURVE",
"688 -20 CURVE SMOOTH",
"873 -20 OFFCURVE",
"1020 13 OFFCURVE",
"1130 79 CURVE",
"1130 496 LINE"
);
}
);
width = 1413;
}
);
note = G;
unicode = 0047;
},
{
glyphname = H;
lastChange = "2016-08-10 08:02:47 +0000";
layers = (
{
layerId = "DEC179DC-8547-47B6-92D4-65C3F1BBEDD1";
paths = (
{
closed = 1;
nodes = (
"186 217 LINE",
"17 138 LINE",
"5 0 LINE",
"722 0 LINE",
"740 148 LINE",
"559 211 LINE",
"559 493 LINE",
"1006 493 LINE",
"1006 217 LINE",
"839 138 LINE",
"825 0 LINE",
"1548 0 LINE",
"1562 148 LINE",
"1383 211 LINE",
"1383 1027 LINE",
"1551 1094 LINE",
"1570 1244 LINE",
"842 1244 LINE",
"825 1094 LINE",
"1006 1020 LINE",
"1006 744 LINE",
"559 744 LINE",
"559 1027 LINE",
"726 1094 LINE",
"745 1244 LINE",
"25 1244 LINE",
"0 1094 LINE",
"186 1020 LINE"
);
}
);
width = 1570;
},
{
layerId = "CE2484D1-EC55-40DA-BA6C-521C673DBDD6";
paths = (
{
closed = 1;
nodes = (
"209 169 LINE",
"41 106 LINE",
"31 0 LINE",
"660 0 LINE",
"676 114 LINE",
"493 162 LINE",
"493 541 LINE",
"1030 541 LINE",
"1030 169 LINE",
"864 106 LINE",
"852 0 LINE",
"1484 0 LINE",
"1496 114 LINE",
"1316 162 LINE",
"1316 1078 LINE",
"1484 1131 LINE",
"1499 1244 LINE",
"862 1244 LINE",
"848 1131 LINE",
"1030 1073 LINE",
"1030 718 LINE",
"493 718 LINE",
"493 1078 LINE",
"660 1131 LINE",
"675 1244 LINE",
"43 1244 LINE",
"25 1131 LINE",
"209 1073 LINE"
);
}
);
width = 1524;
},
{
layerId = "A76B26BC-A350-47F3-8273-F323BC23B531";
paths = (
{
closed = 1;
nodes = (
"401 114 LINE",
"401 590 LINE",
"1029 591 LINE",
"1029 121 LINE",
"864 74 LINE",
"852 0 LINE",
"1396 0 LINE",
"1406 81 LINE",
"1224 114 LINE",
"1224 1129 LINE",
"1391 1168 LINE",
"1402 1244 LINE",
"857 1244 LINE",
"846 1168 LINE",
"1029 1126 LINE",
"1029 692 LINE",
"401 692 LINE",
"401 1129 LINE",
"570 1168 LINE",
"580 1244 LINE",
"35 1244 LINE",
"25 1168 LINE",
"206 1126 LINE",
"206 121 LINE",
"39 74 LINE",
"31 0 LINE",
"573 0 LINE",
"586 81 LINE"
);
}
);
width = 1416;
},
{
layerId = "52F1D99C-0FFA-4FAD-B979-579B617E1314";
paths = (
{
closed = 1;
nodes = (
"265 96 LINE",
"97 58 LINE",
"91 0 LINE",
"588 0 LINE",
"600 63 LINE",
"414 90 LINE",
"414 591 LINE",
"1087 592 LINE",
"1087 96 LINE",
"922 58 LINE",
"912 0 LINE",
"1411 0 LINE",
"1419 63 LINE",
"1237 90 LINE",
"1237 1156 LINE",
"1404 1187 LINE",
"1413 1244 LINE",
"913 1244 LINE",
"904 1187 LINE",
"1087 1154 LINE",
"1087 672 LINE",
"414 672 LINE",
"414 1156 LINE",
"583 1187 LINE",
"591 1244 LINE",
"90 1244 LINE",
"83 1187 LINE",
"265 1154 LINE"
);
}
);
width = 1446;
},
{
layerId = "B64F7E56-5CD3-4760-9166-7FC8A47137FC";
paths = (
{
closed = 1;
nodes = (
"297 72 LINE",
"130 42 LINE",
"125 0 LINE",
"577 0 LINE",
"588 46 LINE",
"402 65 LINE",
"402 591 LINE",
"1120 591 LINE",
"1120 72 LINE",
"954 42 LINE",
"946 0 LINE",
"1399 0 LINE",
"1406 46 LINE",
"1223 65 LINE",
"1223 1182 LINE",
"1390 1205 LINE",
"1398 1244 LINE",
"943 1244 LINE",
"936 1205 LINE",
"1120 1180 LINE",
"1120 651 LINE",
"402 651 LINE",
"402 1182 LINE",
"571 1205 LINE",
"576 1244 LINE",
"120 1244 LINE",
"117 1205 LINE",
"297 1180 LINE"
);
}
);
width = 1413;
}
);
note = H;
unicode = 0048;
},
{
glyphname = I;
lastChange = "2016-08-10 08:02:47 +0000";
layers = (
{
layerId = "DEC179DC-8547-47B6-92D4-65C3F1BBEDD1";
paths = (
{
closed = 1;
nodes = (
"188 221 LINE",
"12 142 LINE",
"2 0 LINE",
"719 0 LINE",
"732 160 LINE",
"552 223 LINE",
"552 1017 LINE",
"731 1084 LINE",
"747 1244 LINE",
"20 1244 LINE",
"0 1094 LINE",
"188 1020 LINE"
);
}
);
width = 757;
},
{
layerId = "CE2484D1-EC55-40DA-BA6C-521C673DBDD6";
paths = (
{
closed = 1;
nodes = (
"210 171 LINE",
"38 108 LINE",
"30 0 LINE",
"658 0 LINE",
"670 120 LINE",
"489 168 LINE",
"489 1074 LINE",
"663 1126 LINE",
"676 1244 LINE",
"40 1244 LINE",
"25 1131 LINE",
"210 1073 LINE"
);
}
);
width = 706;
},
{
layerId = "A76B26BC-A350-47F3-8273-F323BC23B531";
paths = (
{
closed = 1;
nodes = (
"400 114 LINE",
"400 1129 LINE",
"570 1168 LINE",
"580 1244 LINE",
"35 1244 LINE",
"25 1168 LINE",
"206 1126 LINE",
"206 121 LINE",
"39 74 LINE",
"31 0 LINE",
"572 0 LINE",
"582 81 LINE"
);
}
);
width = 600;
},
{
layerId = "52F1D99C-0FFA-4FAD-B979-579B617E1314";
paths = (
{
closed = 1;
nodes = (
"263 96 LINE",
"101 58 LINE",
"94 0 LINE",
"591 0 LINE",
"601 63 LINE",
"414 90 LINE",
"414 1156 LINE",
"586 1187 LINE",
"595 1244 LINE",
"94 1244 LINE",
"86 1187 LINE",
"263 1154 LINE"
);
}
);
width = 674;
},
{
layerId = "B64F7E56-5CD3-4760-9166-7FC8A47137FC";
paths = (
{
closed = 1;
nodes = (
"294 72 LINE",
"136 42 LINE",
"131 0 LINE",
"586 0 LINE",
"595 46 LINE",
"402 65 LINE",
"402 1182 LINE",
"577 1205 LINE",
"584 1244 LINE",
"127 1244 LINE",
"121 1205 LINE",
"294 1180 LINE"
);
}
);
width = 692;
}
);
note = I;
unicode = 0049;
},
{
glyphname = J;
lastChange = "2016-08-10 08:02:47 +0000";
layers = (
{
layerId = "DEC179DC-8547-47B6-92D4-65C3F1BBEDD1";
paths = (
{
closed = 1;
nodes = (
"192 -281 OFFCURVE",
"254 -239 OFFCURVE",
"303 -202 CURVE SMOOTH",
"519 -39 OFFCURVE",
"571 121 OFFCURVE",
"571 434 CURVE SMOOTH",
"571 1027 LINE",
"741 1094 LINE",
"761 1244 LINE",
"44 1244 LINE",
"25 1094 LINE",
"204 1020 LINE",
"204 285 LINE SMOOTH",
"204 130 OFFCURVE",
"135 -43 OFFCURVE",
"0 -151 CURVE",
"117 -326 LINE"
);
}
);
width = 761;
},
{
layerId = "CE2484D1-EC55-40DA-BA6C-521C673DBDD6";
paths = (
{
closed = 1;
nodes = (
"195 -257 OFFCURVE",
"279 -193 OFFCURVE",
"334 -136 CURVE SMOOTH",
"399 -69 OFFCURVE",
"432 -16 OFFCURVE",
"470 109 CURVE SMOOTH",
"489 172 OFFCURVE",
"498 272 OFFCURVE",
"498 410 CURVE SMOOTH",
"499 1078 LINE",
"669 1131 LINE",
"684 1244 LINE",
"53 1244 LINE",
"38 1131 LINE",
"218 1073 LINE",
"218 241 LINE SMOOTH",
"218 80 OFFCURVE",
"145 -65 OFFCURVE",
"-2 -194 CURVE",
"84 -326 LINE"
);
}
);
width = 699;
},
{
layerId = "A76B26BC-A350-47F3-8273-F323BC23B531";
paths = (
{
closed = 1;
nodes = (
"85 -285 OFFCURVE",
"135 -249 OFFCURVE",
"173 -218 CURVE SMOOTH",
"249 -155 OFFCURVE",
"317 -78 OFFCURVE",
"349 13 CURVE SMOOTH",
"381 104 OFFCURVE",
"397 218 OFFCURVE",
"398 385 CURVE SMOOTH",
"400 1129 LINE",
"570 1168 LINE",
"580 1244 LINE",
"35 1244 LINE",
"25 1168 LINE",
"206 1126 LINE",
"205 197 LINE SMOOTH",
"205 42 OFFCURVE",
"132 -85 OFFCURVE",
"-31 -238 CURVE",
"23 -326 LINE"
);
}
);
width = 592;
},
{
layerId = "52F1D99C-0FFA-4FAD-B979-579B617E1314";
paths = (
{
closed = 1;
nodes = (
"115 -286 OFFCURVE",
"162 -251 OFFCURVE",
"198 -220 CURVE SMOOTH",
"369 -75 OFFCURVE",
"409 69 OFFCURVE",
"412 372 CURVE SMOOTH",
"414 1156 LINE",
"584 1187 LINE",
"593 1244 LINE",
"90 1244 LINE",
"82 1187 LINE",
"264 1154 LINE",
"264 209 LINE SMOOTH",
"264 29 OFFCURVE",
"186 -108 OFFCURVE",
"19 -259 CURVE",
"57 -325 LINE"
);
}
);
width = 614;
},
{
layerId = "B64F7E56-5CD3-4760-9166-7FC8A47137FC";
paths = (
{
closed = 1;
nodes = (
"197 -232 OFFCURVE",
"267 -169 OFFCURVE",
"324 -64 CURVE SMOOTH",
"380 41 OFFCURVE",
"399 163 OFFCURVE",
"400 360 CURVE SMOOTH",
"404 1182 LINE",
"571 1205 LINE",
"577 1244 LINE",
"118 1244 LINE",
"113 1205 LINE",
"293 1180 LINE",
"293 282 LINE SMOOTH",
"293 13 OFFCURVE",
"219 -130 OFFCURVE",
"42 -281 CURVE",
"64 -325 LINE"
);
}
);
width = 589;
}
);
note = J;
unicode = 004A;
},
{
glyphname = K;
lastChange = "2016-08-10 08:02:47 +0000";
layers = (
{
layerId = "DEC179DC-8547-47B6-92D4-65C3F1BBEDD1";
paths = (
{
closed = 1;
nodes = (
"763 346 LINE SMOOTH",
"831 228 OFFCURVE",
"899 139 OFFCURVE",
"968 78 CURVE SMOOTH",
"1047 7 OFFCURVE",
"1149 -27 OFFCURVE",
"1232 -27 CURVE SMOOTH",
"1315 -27 OFFCURVE",
"1434 -14 OFFCURVE",
"1475 2 CURVE",
"1507 133 LINE",
"1482 139 LINE SMOOTH",
"1401 158 OFFCURVE",
"1352 178 OFFCURVE",
"1289 239 CURVE SMOOTH",
"1226 299 OFFCURVE",
"1196 339 OFFCURVE",
"1100 470 CURVE SMOOTH",
"942 685 LINE",
"1174 1000 LINE",
"1398 1094 LINE",
"1428 1244 LINE",
"907 1244 LINE",
"867 1003 LINE",
"695 740 LINE",
"686 725 OFFCURVE",
"664 696 OFFCURVE",
"630 655 CURVE",
"627 584 LINE"
);
},
{
closed = 1;
nodes = (
"221 241 LINE",
"19 138 LINE",
"3 0 LINE",
"768 0 LINE",
"780 148 LINE",
"585 240 LINE",
"585 1000 LINE",
"721 1094 LINE",
"742 1244 LINE",
"32 1244 LINE",
"0 1094 LINE",
"221 993 LINE"
);
}
);
width = 1507;
},
{
layerId = "CE2484D1-EC55-40DA-BA6C-521C673DBDD6";
paths = (
{
closed = 1;
nodes = (
"734 304 LINE SMOOTH",
"799 201 OFFCURVE",
"864 123 OFFCURVE",
"927 70 CURVE SMOOTH",
"1000 7 OFFCURVE",
"1079 -24 OFFCURVE",
"1199 -24 CURVE SMOOTH",
"1259 -24 OFFCURVE",
"1312 -15 OFFCURVE",
"1358 2 CURVE",
"1378 102 LINE",
"1348 111 LINE",
"1252 135 OFFCURVE",
"1185 177 OFFCURVE",
"1066 321 CURVE SMOOTH",
"788 669 LINE",
"1091 1060 LINE",
"1292 1131 LINE",
"1312 1244 LINE",
"806 1244 LINE",
"788 1125 LINE",
"859 1062 LINE",
"650 769 LINE SMOOTH",
"625 734 OFFCURVE",
"589 691 OFFCURVE",
"542 640 CURVE",
"540 594 LINE"
);
},
{
closed = 1;
nodes = (
"228 185 LINE",
"42 106 LINE",
"28 0 LINE",
"688 0 LINE",
"699 114 LINE",
"507 182 LINE",
"507 1060 LINE",
"661 1131 LINE",
"676 1244 LINE",
"46 1244 LINE",
"24 1131 LINE",
"228 1055 LINE"
);
}
);
width = 1372;
},
{
layerId = "A76B26BC-A350-47F3-8273-F323BC23B531";
paths = (
{
closed = 1;
nodes = (
"206 129 LINE",
"35 74 LINE",
"25 0 LINE",
"578 0 LINE",
"590 81 LINE",
"400 124 LINE",
"400 1121 LINE",
"572 1168 LINE",
"582 1244 LINE",
"31 1244 LINE",
"18 1168 LINE",
"206 1118 LINE"
);
},
{
closed = 1;
nodes = (
"677 261 LINE SMOOTH",
"740 174 OFFCURVE",
"791 117 OFFCURVE",
"858 62 CURVE SMOOTH",
"925 7 OFFCURVE",
"1000 -21 OFFCURVE",
"1080 -21 CURVE SMOOTH",
"1125 -21 OFFCURVE",
"1168 -13 OFFCURVE",
"1211 2 CURVE",
"1222 71 LINE",
"1184 82 LINE SMOOTH",
"1159 90 OFFCURVE",
"1135 100 OFFCURVE",
"1112 113 CURVE SMOOTH",
"1065 138 OFFCURVE",
"1037 159 OFFCURVE",
"985 215 CURVE SMOOTH",
"932 270 OFFCURVE",
"910 296 OFFCURVE",
"834 385 CURVE SMOOTH",
"606 654 LINE",
"980 1121 LINE",
"1156 1168 LINE",
"1168 1244 LINE",
"675 1244 LINE",
"667 1168 LINE",
"822 1121 LINE",
"577 798 LINE SMOOTH",
"548 759 OFFCURVE",
"456 658 OFFCURVE",
"424 626 CURVE",
"426 605 LINE"
);
}
);
width = 1214;
},
{
layerId = "52F1D99C-0FFA-4FAD-B979-579B617E1314";
paths = (
{
closed = 1;
nodes = (
"733 246 LINE SMOOTH",
"864 79 OFFCURVE",
"963 -21 OFFCURVE",
"1106 -21 CURVE SMOOTH",
"1142 -21 OFFCURVE",
"1182 -13 OFFCURVE",
"1226 2 CURVE",
"1237 58 LINE",
"1191 68 LINE SMOOTH",
"1078 95 OFFCURVE",
"1017 155 OFFCURVE",
"846 358 CURVE SMOOTH",
"601 649 LINE",
"1012 1152 LINE",
"1177 1187 LINE",
"1184 1244 LINE",
"734 1244 LINE",
"728 1187 LINE",
"893 1151 LINE",
"604 790 LINE SMOOTH",
"571 749 OFFCURVE",
"521 693 OFFCURVE",
"454 623 CURVE",
"456 604 LINE"
);
},
{
closed = 1;
nodes = (
"264 101 LINE",
"100 58 LINE",
"92 0 LINE",
"592 0 LINE",
"602 63 LINE",
"415 95 LINE",
"415 1152 LINE",
"586 1187 LINE",
"593 1244 LINE",
"93 1244 LINE",
"83 1187 LINE",
"264 1149 LINE"
);
}
);
width = 1225;
},
{
layerId = "B64F7E56-5CD3-4760-9166-7FC8A47137FC";
paths = (
{
closed = 1;
nodes = (
"760 230 LINE",
"846 129 LINE SMOOTH",
"867 106 OFFCURVE",
"893 81 OFFCURVE",
"924 54 CURVE SMOOTH",
"1006 -19 OFFCURVE",
"1086 -41 OFFCURVE",
"1165 -12 CURVE",
"1170 -11 OFFCURVE",
"1185 -6 OFFCURVE",
"1211 3 CURVE",
"1223 46 LINE",
"1169 54 LINE SMOOTH",
"1056 71 OFFCURVE",
"976 140 OFFCURVE",
"821 321 CURVE SMOOTH",
"559 629 LINE",
"1015 1182 LINE",
"1168 1205 LINE",
"1171 1244 LINE",
"764 1244 LINE",
"760 1205 LINE",
"933 1180 LINE",
"602 783 LINE SMOOTH",
"567 741 OFFCURVE",
"518 686 OFFCURVE",
"455 619 CURVE",
"457 604 LINE"
);
},
{
closed = 1;
nodes = (
"293 72 LINE",
"136 42 LINE",
"130 0 LINE",
"576 0 LINE",
"587 46 LINE",
"401 65 LINE",
"401 1182 LINE",
"571 1205 LINE",
"574 1244 LINE",
"125 1244 LINE",
"120 1205 LINE",
"293 1180 LINE"
);
}
);
width = 1212;
}
);
note = K;
unicode = 004B;
},
{
glyphname = L;
lastChange = "2016-08-10 08:02:47 +0000";
layers = (
{
layerId = "DEC179DC-8547-47B6-92D4-65C3F1BBEDD1";
paths = (
{
closed = 1;
nodes = (
"1159 430 LINE",
"993 453 LINE",
"819 178 LINE",
"549 200 LINE",
"549 1000 LINE",
"745 1098 LINE",
"766 1245 LINE",
"23 1245 LINE",
"4 1098 LINE",
"176 998 LINE",
"176 217 LINE",
"16 138 LINE",
"0 0 LINE",
"1112 0 LINE"
);
}
);
width = 1202;
},
{
layerId = "CE2484D1-EC55-40DA-BA6C-521C673DBDD6";
paths = (
{
closed = 1;
nodes = (
"1122 380 LINE",
"996 398 LINE",
"844 137 LINE",
"488 148 LINE",
"488 1060 LINE",
"672 1133 LINE",
"687 1244 LINE",
"40 1244 LINE",
"24 1133 LINE",
"204 1058 LINE",
"204 169 LINE",
"42 106 LINE",
"29 0 LINE",
"1080 0 LINE"
);
}
);
width = 1149;
},
{
layerId = "A76B26BC-A350-47F3-8273-F323BC23B531";
paths = (
{
closed = 1;
nodes = (
"25 1168 LINE",
"213 1118 LINE",
"213 121 LINE",
"46 74 LINE",
"38 0 LINE",
"1027 0 LINE",
"1065 331 LINE",
"980 344 LINE",
"849 95 LINE",
"406 95 LINE",
"406 1121 LINE",
"578 1168 LINE",
"588 1244 LINE",
"38 1244 LINE"
);
}
);
width = 1065;
},
{
layerId = "52F1D99C-0FFA-4FAD-B979-579B617E1314";
paths = (
{
closed = 1;
nodes = (
"1074 331 LINE",
"1010 341 LINE",
"905 75 LINE",
"418 75 LINE",
"418 1152 LINE",
"593 1186 LINE",
"600 1244 LINE",
"98 1244 LINE",
"89 1186 LINE",
"269 1148 LINE",
"269 96 LINE",
"102 58 LINE",
"94 0 LINE",
"1040 0 LINE"
);
}
);
width = 1088;
},
{
layerId = "B64F7E56-5CD3-4760-9166-7FC8A47137FC";
paths = (
{
closed = 1;
nodes = (
"1063 330 LINE",
"1019 338 LINE",
"942 54 LINE",
"412 54 LINE",
"412 1182 LINE",
"588 1203 LINE",
"592 1243 LINE",
"137 1243 LINE",
"133 1203 LINE",
"305 1178 LINE",
"305 72 LINE",
"136 42 LINE",
"131 0 LINE",
"1031 0 LINE"
);
}
);
width = 1079;
}
);
note = L;
unicode = 004C;
},
{
glyphname = M;
lastChange = "2016-08-10 08:02:47 +0000";
layers = (
{
layerId = "DEC179DC-8547-47B6-92D4-65C3F1BBEDD1";
paths = (
{
closed = 1;
nodes = (
"580 161 LINE",
"451 229 LINE",
"484 787 LINE",
"723 -8 LINE",
"1006 31 LINE",
"1231 776 LINE",
"1284 233 LINE",
"1172 154 LINE",
"1149 0 LINE",
"1790 0 LINE",
"1804 161 LINE",
"1628 229 LINE",
"1558 1033 LINE",
"1720 1087 LINE",
"1738 1244 LINE",
"1138 1244 LINE",
"1071 1041 LINE",
"915 543 LINE",
"767 1039 LINE",
"696 1244 LINE",
"79 1244 LINE",
"63 1087 LINE",
"247 1030 LINE",
"189 233 LINE",
"21 154 LINE",
"0 0 LINE",
"555 0 LINE"
);
}
);
width = 1804;
},
{
layerId = "CE2484D1-EC55-40DA-BA6C-521C673DBDD6";
paths = (
{
closed = 1;
nodes = (
"548 120 LINE",
"392 172 LINE",
"440 877 LINE",
"732 12 LINE",
"937 40 LINE",
"1240 890 LINE",
"1294 177 LINE",
"1156 114 LINE",
"1138 0 LINE",
"1727 0 LINE",
"1739 120 LINE",
"1560 172 LINE",
"1499 1082 LINE",
"1664 1128 LINE",
"1678 1244 LINE",
"1180 1244 LINE",
"878 426 LINE",
"670 1044 LINE",
"595 1244 LINE",
"90 1244 LINE",
"78 1128 LINE",
"261 1078 LINE",
"196 177 LINE",
"28 114 LINE",
"12 0 LINE",
"530 0 LINE"
);
}
);
width = 1752;
},
{
layerId = "A76B26BC-A350-47F3-8273-F323BC23B531";
paths = (
{
closed = 1;
nodes = (
"1237 1004 LINE",
"1293 121 LINE",
"1128 74 LINE",
"1116 0 LINE",
"1652 0 LINE",
"1661 81 LINE",
"1480 114 LINE",
"1427 1129 LINE",
"1596 1168 LINE",
"1606 1244 LINE",
"1211 1244 LINE",
"1141 1083 LINE",
"831 308 LINE",
"570 1050 LINE",
"490 1244 LINE",
"90 1244 LINE",
"79 1168 LINE",
"262 1126 LINE",
"190 121 LINE",
"23 74 LINE",
"12 0 LINE",
"492 0 LINE",
"505 81 LINE",
"321 114 LINE",
"385 966 LINE",
"728 31 LINE",
"855 51 LINE"
);
}
);
width = 1663;
},
{
layerId = "52F1D99C-0FFA-4FAD-B979-579B617E1314";
paths = (
{
closed = 1;
nodes = (
"508 60 LINE",
"325 86 LINE",
"396 1059 LINE",
"772 41 LINE",
"861 55 LINE",
"1284 1087 LINE",
"1341 92 LINE",
"1172 54 LINE",
"1164 0 LINE",
"1663 0 LINE",
"1669 60 LINE",
"1488 86 LINE",
"1434 1154 LINE",
"1605 1188 LINE",
"1612 1244 LINE",
"1252 1244 LINE",
"1185 1092 LINE",
"851 268 LINE",
"564 1053 LINE",
"489 1244 LINE",
"129 1244 LINE",
"120 1188 LINE",
"304 1151 LINE",
"227 92 LINE",
"59 54 LINE",
"51 0 LINE",
"498 0 LINE"
);
}
);
width = 1681;
},
{
layerId = "B64F7E56-5CD3-4760-9166-7FC8A47137FC";
paths = (
{
closed = 1;
nodes = (
"498 40 LINE",
"317 57 LINE",
"396 1151 LINE",
"804 50 LINE",
"854 60 LINE",
"1319 1169 LINE",
"1376 64 LINE",
"1205 33 LINE",
"1199 0 LINE",
"1661 0 LINE",
"1663 40 LINE",
"1483 57 LINE",
"1428 1178 LINE",
"1600 1208 LINE",
"1605 1244 LINE",
"1279 1244 LINE",
"860 227 LINE",
"475 1244 LINE",
"156 1244 LINE",
"149 1208 LINE",
"333 1175 LINE",
"250 64 LINE",
"83 33 LINE",
"78 0 LINE",
"492 0 LINE"
);
}
);
width = 1661;
}
);
note = M;
unicode = 004D;
},
{
glyphname = N;
lastChange = "2016-08-10 08:02:47 +0000";
layers = (
{
layerId = "DEC179DC-8547-47B6-92D4-65C3F1BBEDD1";
paths = (
{
closed = 1;
nodes = (
"181 217 LINE",
"10 138 LINE",
"0 0 LINE",
"581 0 LINE",
"594 148 LINE",
"414 211 LINE",
"414 619 LINE",
"927 -29 LINE",
"1210 15 LINE",
"1210 1027 LINE",
"1378 1094 LINE",
"1403 1244 LINE",
"826 1244 LINE",
"802 1094 LINE",
"990 1020 LINE",
"990 532 LINE",
"458 1244 LINE",
"18 1244 LINE",
"4 1087 LINE",
"181 1003 LINE"
);
}
);
width = 1403;
},
{
layerId = "CE2484D1-EC55-40DA-BA6C-521C673DBDD6";
paths = (
{
closed = 1;
nodes = (
"206 169 LINE",
"38 106 LINE",
"28 0 LINE",
"556 0 LINE",
"568 114 LINE",
"387 162 LINE",
"387 790 LINE",
"975 -30 LINE",
"1193 8 LINE",
"1193 1078 LINE",
"1360 1131 LINE",
"1380 1244 LINE",
"854 1244 LINE",
"836 1131 LINE",
"1022 1073 LINE",
"1022 402 LINE",
"435 1244 LINE",
"40 1244 LINE",
"27 1128 LINE",
"206 1060 LINE"
);
}
);
width = 1396;
},
{
layerId = "A76B26BC-A350-47F3-8273-F323BC23B531";
paths = (
{
closed = 1;
nodes = (
"1151 1129 LINE",
"1318 1168 LINE",
"1331 1244 LINE",
"855 1244 LINE",
"844 1168 LINE",
"1029 1126 LINE",
"1029 272 LINE",
"387 1244 LINE",
"35 1244 LINE",
"25 1168 LINE",
"206 1118 LINE",
"206 121 LINE",
"39 74 LINE",
"31 0 LINE",
"507 0 LINE",
"517 81 LINE",
"334 114 LINE",
"334 961 LINE",
"998 -30 LINE",
"1151 2 LINE"
);
}
);
width = 1337;
},
{
layerId = "52F1D99C-0FFA-4FAD-B979-579B617E1314";
paths = (
{
closed = 1;
nodes = (
"246 96 LINE",
"79 58 LINE",
"73 0 LINE",
"521 0 LINE",
"531 63 LINE",
"347 90 LINE",
"347 1047 LINE",
"1060 -24 LINE",
"1164 -3 LINE",
"1164 1156 LINE",
"1330 1187 LINE",
"1341 1244 LINE",
"891 1244 LINE",
"882 1187 LINE",
"1067 1154 LINE",
"1067 225 LINE",
"400 1244 LINE",
"73 1244 LINE",
"63 1188 LINE",
"246 1147 LINE"
);
}
);
width = 1402;
},
{
layerId = "B64F7E56-5CD3-4760-9166-7FC8A47137FC";
paths = (
{
closed = 1;
nodes = (
"261 72 LINE",
"94 42 LINE",
"88 0 LINE",
"509 0 LINE",
"519 46 LINE",
"335 65 LINE",
"335 1133 LINE",
"1097 -18 LINE",
"1151 -7 LINE",
"1151 1182 LINE",
"1317 1205 LINE",
"1325 1244 LINE",
"901 1244 LINE",
"895 1205 LINE",
"1078 1180 LINE",
"1078 179 LINE",
"387 1244 LINE",
"84 1244 LINE",
"76 1208 LINE",
"261 1175 LINE"
);
}
);
width = 1413;
}
);
note = N;
unicode = 004E;
},
{
glyphname = O;
lastChange = "2016-08-10 08:02:47 +0000";
layers = (
{
layerId = "DEC179DC-8547-47B6-92D4-65C3F1BBEDD1";
paths = (
{
closed = 1;
nodes = (
"645 163 OFFCURVE",
"570 223 OFFCURVE",
"530 300 CURVE SMOOTH",
"490 376 OFFCURVE",
"448 514 OFFCURVE",
"448 671 CURVE SMOOTH",
"448 953 OFFCURVE",
"532 1094 OFFCURVE",
"700 1094 CURVE SMOOTH",
"786 1094 OFFCURVE",
"851 1059 OFFCURVE",
"896 990 CURVE SMOOTH",
"916 959 OFFCURVE",
"933 925 OFFCURVE",
"948 889 CURVE SMOOTH",
"976 817 OFFCURVE",
"998 682 OFFCURVE",
"998 573 CURVE SMOOTH",
"998 300 OFFCURVE",
"911 163 OFFCURVE",
"736 163 CURVE SMOOTH"
);
},
{
closed = 1;
nodes = (
"279 33 OFFCURVE",
"452 -27 OFFCURVE",
"683 -27 CURVE SMOOTH",
"906 -27 OFFCURVE",
"1091 27 OFFCURVE",
"1236 136 CURVE SMOOTH",
"1376 241 OFFCURVE",
"1462 411 OFFCURVE",
"1462 607 CURVE SMOOTH",
"1462 705 OFFCURVE",
"1451 791 OFFCURVE",
"1428 865 CURVE SMOOTH",
"1344 1134 OFFCURVE",
"1119 1269 OFFCURVE",
"753 1269 CURVE SMOOTH",
"289 1269 OFFCURVE",
"0 1010 OFFCURVE",
"0 619 CURVE SMOOTH",
"0 424 OFFCURVE",
"55 269 OFFCURVE",
"164 154 CURVE SMOOTH"
);
}
);
width = 1462;
},
{
layerId = "CE2484D1-EC55-40DA-BA6C-521C673DBDD6";
paths = (
{
closed = 1;
nodes = (
"366 941 OFFCURVE",
"445 1135 OFFCURVE",
"682 1135 CURVE SMOOTH",
"769 1135 OFFCURVE",
"839 1102 OFFCURVE",
"892 1036 CURVE SMOOTH",
"917 1006 OFFCURVE",
"938 972 OFFCURVE",
"957 935 CURVE SMOOTH",
"994 860 OFFCURVE",
"1030 721 OFFCURVE",
"1030 573 CURVE SMOOTH",
"1030 272 OFFCURVE",
"924 121 OFFCURVE",
"711 121 CURVE SMOOTH",
"626 121 OFFCURVE",
"557 153 OFFCURVE",
"504 216 CURVE SMOOTH",
"455 275 OFFCURVE",
"417 349 OFFCURVE",
"397 434 CURVE SMOOTH",
"376 518 OFFCURVE",
"366 589 OFFCURVE",
"366 697 CURVE SMOOTH"
);
},
{
closed = 1;
nodes = (
"50 238 OFFCURVE",
"259 -27 OFFCURVE",
"660 -27 CURVE SMOOTH",
"1081 -27 OFFCURVE",
"1353 228 OFFCURVE",
"1353 627 CURVE SMOOTH",
"1353 1026 OFFCURVE",
"1124 1270 OFFCURVE",
"716 1270 CURVE SMOOTH",
"308 1270 OFFCURVE",
"50 1010 OFFCURVE",
"50 624 CURVE SMOOTH"
);
}
);
width = 1402;
},
{
layerId = "A76B26BC-A350-47F3-8273-F323BC23B531";
paths = (
{
closed = 1;
nodes = (
"702 1176 OFFCURVE",
"753 1164 OFFCURVE",
"799 1141 CURVE SMOOTH",
"891 1093 OFFCURVE",
"949 1013 OFFCURVE",
"991 908 CURVE SMOOTH",
"1033 803 OFFCURVE",
"1050 690 OFFCURVE",
"1050 573 CURVE SMOOTH",
"1050 521 OFFCURVE",
"1047 473 OFFCURVE",
"1041 428 CURVE SMOOTH",
"1028 339 OFFCURVE",
"994 244 OFFCURVE",
"939 183 CURVE SMOOTH",
"884 122 OFFCURVE",
"792 79 OFFCURVE",
"675 79 CURVE SMOOTH",
"619 79 OFFCURVE",
"568 90 OFFCURVE",
"523 113 CURVE SMOOTH",
"431 158 OFFCURVE",
"374 236 OFFCURVE",
"332 340 CURVE SMOOTH",
"290 444 OFFCURVE",
"272 557 OFFCURVE",
"272 677 CURVE SMOOTH",
"272 1010 OFFCURVE",
"397 1176 OFFCURVE",
"647 1176 CURVE SMOOTH"
);
},
{
closed = 1;
nodes = (
"1273 689 OFFCURVE",
"1265 757 OFFCURVE",
"1248 822 CURVE SMOOTH",
"1215 952 OFFCURVE",
"1147 1063 OFFCURVE",
"1055 1144 CURVE SMOOTH",
"963 1225 OFFCURVE",
"836 1273 OFFCURVE",
"695 1273 CURVE SMOOTH",
"564 1273 OFFCURVE",
"450 1245 OFFCURVE",
"352 1190 CURVE SMOOTH",
"156 1079 OFFCURVE",
"49 875 OFFCURVE",
"49 619 CURVE SMOOTH",
"49 499 OFFCURVE",
"73 390 OFFCURVE",
"121 293 CURVE SMOOTH",
"216 97 OFFCURVE",
"401 -26 OFFCURVE",
"626 -26 CURVE SMOOTH",
"827 -26 OFFCURVE",
"999 48 OFFCURVE",
"1107 168 CURVE SMOOTH",
"1214 287 OFFCURVE",
"1273 444 OFFCURVE",
"1273 619 CURVE SMOOTH"
);
}
);
width = 1322;
},
{
layerId = "52F1D99C-0FFA-4FAD-B979-579B617E1314";
paths = (
{
closed = 1;
nodes = (
"278 912 OFFCURVE",
"353 1197 OFFCURVE",
"681 1197 CURVE SMOOTH",
"773 1197 OFFCURVE",
"852 1168 OFFCURVE",
"919 1110 CURVE SMOOTH",
"1052 993 OFFCURVE",
"1113 799 OFFCURVE",
"1113 580 CURVE SMOOTH",
"1113 470 OFFCURVE",
"1093 370 OFFCURVE",
"1052 280 CURVE SMOOTH",
"970 99 OFFCURVE",
"826 58 OFFCURVE",
"698 58 CURVE SMOOTH",
"570 58 OFFCURVE",
"452 129 OFFCURVE",
"384 244 CURVE SMOOTH",
"315 359 OFFCURVE",
"278 516 OFFCURVE",
"278 655 CURVE SMOOTH"
);
},
{
closed = 1;
nodes = (
"457 2 OFFCURVE",
"546 -27 OFFCURVE",
"640 -27 CURVE SMOOTH",
"1129 -27 OFFCURVE",
"1279 349 OFFCURVE",
"1279 624 CURVE SMOOTH",
"1279 807 OFFCURVE",
"1232 961 OFFCURVE",
"1137 1084 CURVE SMOOTH",
"1046 1201 OFFCURVE",
"902 1274 OFFCURVE",
"730 1274 CURVE SMOOTH",
"605 1274 OFFCURVE",
"496 1246 OFFCURVE",
"402 1191 CURVE SMOOTH",
"213 1080 OFFCURVE",
"111 874 OFFCURVE",
"111 627 CURVE SMOOTH",
"111 380 OFFCURVE",
"204 177 OFFCURVE",
"373 61 CURVE SMOOTH"
);
}
);
width = 1331;
},
{
layerId = "B64F7E56-5CD3-4760-9166-7FC8A47137FC";
paths = (
{
closed = 1;
nodes = (
"272 902 OFFCURVE",
"377 1218 OFFCURVE",
"704 1218 CURVE SMOOTH",
"987 1218 OFFCURVE",
"1165 958 OFFCURVE",
"1165 573 CURVE SMOOTH",
"1165 364 OFFCURVE",
"1052 37 OFFCURVE",
"731 37 CURVE SMOOTH",
"636 37 OFFCURVE",
"553 65 OFFCURVE",
"483 121 CURVE SMOOTH",
"342 234 OFFCURVE",
"272 420 OFFCURVE",
"272 679 CURVE SMOOTH"
);
},
{
closed = 1;
nodes = (
"162 502 OFFCURVE",
"183 394 OFFCURVE",
"225 297 CURVE SMOOTH",
"309 101 OFFCURVE",
"478 -27 OFFCURVE",
"683 -27 CURVE SMOOTH",
"1130 -27 OFFCURVE",
"1273 363 OFFCURVE",
"1273 627 CURVE SMOOTH",
"1273 889 OFFCURVE",
"1195 1076 OFFCURVE",
"1038 1188 CURVE SMOOTH",
"958 1245 OFFCURVE",
"863 1274 OFFCURVE",
"752 1274 CURVE SMOOTH",
"393 1274 OFFCURVE",
"162 1009 OFFCURVE",
"162 620 CURVE SMOOTH"
);
}
);
width = 1320;
}
);
note = O;
unicode = 004F;
},
{
glyphname = P;
lastChange = "2016-08-10 08:02:47 +0000";
layers = (
{
layerId = "DEC179DC-8547-47B6-92D4-65C3F1BBEDD1";
paths = (
{
closed = 1;
nodes = (
"814 164 LINE",
"563 233 LINE",
"563 1047 LINE",
"590 1052 OFFCURVE",
"612 1054 OFFCURVE",
"630 1054 CURVE SMOOTH",
"757 1054 OFFCURVE",
"825 959 OFFCURVE",
"825 831 CURVE SMOOTH",
"825 703 OFFCURVE",
"750 622 OFFCURVE",
"606 622 CURVE SMOOTH",
"585 622 LINE",
"617 448 LINE",
"648 445 OFFCURVE",
"675 443 OFFCURVE",
"698 443 CURVE SMOOTH",
"991 443 OFFCURVE",
"1195 633 OFFCURVE",
"1195 878 CURVE SMOOTH",
"1195 1023 OFFCURVE",
"1148 1125 OFFCURVE",
"1053 1184 CURVE SMOOTH",
"960 1243 OFFCURVE",
"851 1267 OFFCURVE",
"649 1267 CURVE SMOOTH",
"447 1267 OFFCURVE",
"289 1251 OFFCURVE",
"32 1211 CURVE",
"19 1052 LINE",
"209 1008 LINE",
"209 217 LINE",
"22 138 LINE",
"0 0 LINE",
"790 0 LINE"
);
}
);
width = 1195;
},
{
layerId = "CE2484D1-EC55-40DA-BA6C-521C673DBDD6";
paths = (
{
closed = 1;
nodes = (
"730 120 LINE",
"492 178 LINE",
"492 1106 LINE",
"520 1111 OFFCURVE",
"548 1113 OFFCURVE",
"576 1113 CURVE SMOOTH",
"747 1113 OFFCURVE",
"832 1004 OFFCURVE",
"832 849 CURVE SMOOTH",
"832 694 OFFCURVE",
"741 606 OFFCURVE",
"562 603 CURVE SMOOTH",
"526 602 LINE",
"550 474 LINE",
"590 471 OFFCURVE",
"620 470 OFFCURVE",
"641 470 CURVE SMOOTH",
"912 470 OFFCURVE",
"1120 654 OFFCURVE",
"1120 886 CURVE SMOOTH",
"1120 1117 OFFCURVE",
"1001 1261 OFFCURVE",
"612 1261 CURVE SMOOTH",
"458 1261 OFFCURVE",
"271 1244 OFFCURVE",
"50 1211 CURVE",
"38 1093 LINE",
"218 1056 LINE",
"218 169 LINE",
"42 106 LINE",
"25 0 LINE",
"712 0 LINE"
);
}
);
width = 1136;
},
{
layerId = "A76B26BC-A350-47F3-8273-F323BC23B531";
paths = (
{
closed = 1;
nodes = (
"1017 1377 OFFCURVE",
"426 1270 OFFCURVE",
"39 1211 CURVE",
"30 1134 LINE",
"202 1105 LINE",
"202 121 LINE",
"33 74 LINE",
"23 0 LINE",
"616 0 LINE",
"629 84 LINE",
"393 123 LINE",
"393 1166 LINE",
"495 1173 LINE",
"604 1173 OFFCURVE",
"690 1138 OFFCURVE",
"739 1078 CURVE SMOOTH",
"788 1018 OFFCURVE",
"811 943 OFFCURVE",
"811 855 CURVE SMOOTH",
"811 676 OFFCURVE",
"707 589 OFFCURVE",
"492 582 CURVE SMOOTH",
"439 580 LINE",
"457 497 LINE",
"499 494 OFFCURVE",
"532 493 OFFCURVE",
"557 493 CURVE SMOOTH",
"677 493 OFFCURVE",
"794 535 OFFCURVE",
"879 603 CURVE SMOOTH",
"963 671 OFFCURVE",
"1017 777 OFFCURVE",
"1017 892 CURVE SMOOTH"
);
}
);
width = 1008;
},
{
layerId = "52F1D99C-0FFA-4FAD-B979-579B617E1314";
paths = (
{
closed = 1;
nodes = (
"642 65 LINE",
"407 94 LINE",
"407 1186 LINE",
"513 1192 LINE",
"750 1192 OFFCURVE",
"866 1046 OFFCURVE",
"866 863 CURVE SMOOTH",
"866 680 OFFCURVE",
"755 564 OFFCURVE",
"522 555 CURVE SMOOTH",
"469 553 LINE",
"484 491 LINE",
"507 489 OFFCURVE",
"531 488 OFFCURVE",
"558 488 CURVE SMOOTH",
"641 488 OFFCURVE",
"718 505 OFFCURVE",
"790 538 CURVE SMOOTH",
"934 605 OFFCURVE",
"1032 737 OFFCURVE",
"1032 893 CURVE SMOOTH",
"1032 998 OFFCURVE",
"1001 1078 OFFCURVE",
"939 1135 CURVE SMOOTH",
"815 1247 OFFCURVE",
"649 1256 OFFCURVE",
"536 1256 CURVE SMOOTH",
"479 1256 OFFCURVE",
"420 1253 OFFCURVE",
"358 1246 CURVE SMOOTH",
"304 1241 LINE SMOOTH",
"272 1238 OFFCURVE",
"237 1233 OFFCURVE",
"198 1227 CURVE",
"189 1226 OFFCURVE",
"172 1223 OFFCURVE",
"146 1219 CURVE",
"120 1214 OFFCURVE",
"104 1212 OFFCURVE",
"98 1211 CURVE",
"90 1155 LINE",
"256 1129 LINE",
"256 96 LINE",
"93 58 LINE",
"85 0 LINE",
"631 0 LINE"
);
}
);
width = 1120;
},
{
layerId = "B64F7E56-5CD3-4760-9166-7FC8A47137FC";
paths = (
{
closed = 1;
nodes = (
"627 46 LINE",
"393 66 LINE",
"393 1206 LINE",
"503 1212 LINE",
"759 1212 OFFCURVE",
"894 1055 OFFCURVE",
"894 872 CURVE SMOOTH",
"894 827 OFFCURVE",
"887 785 OFFCURVE",
"874 746 CURVE SMOOTH",
"826 609 OFFCURVE",
"710 536 OFFCURVE",
"526 529 CURVE SMOOTH",
"472 526 LINE",
"482 484 LINE",
"489 483 OFFCURVE",
"505 482 OFFCURVE",
"532 482 CURVE SMOOTH",
"661 482 OFFCURVE",
"773 520 OFFCURVE",
"868 595 CURVE SMOOTH",
"959 666 OFFCURVE",
"1018 774 OFFCURVE",
"1018 893 CURVE SMOOTH",
"1018 1141 OFFCURVE",
"814 1256 OFFCURVE",
"517 1256 CURVE SMOOTH",
"438 1256 OFFCURVE",
"339 1246 OFFCURVE",
"220 1226 CURVE SMOOTH",
"160 1216 OFFCURVE",
"130 1211 OFFCURVE",
"130 1211 CURVE",
"121 1175 LINE",
"283 1153 LINE",
"283 72 LINE",
"125 42 LINE",
"120 0 LINE",
"619 0 LINE"
);
}
);
width = 1160;
}
);
note = P;
unicode = 0050;
},
{
glyphname = Q;
lastChange = "2016-08-10 08:02:47 +0000";
layers = (
{
layerId = "DEC179DC-8547-47B6-92D4-65C3F1BBEDD1";
paths = (
{
closed = 1;
nodes = (
"435 953 OFFCURVE",
"522 1094 OFFCURVE",
"697 1094 CURVE SMOOTH",
"779 1094 OFFCURVE",
"843 1062 OFFCURVE",
"889 999 CURVE SMOOTH",
"964 896 OFFCURVE",
"1001 754 OFFCURVE",
"1001 573 CURVE SMOOTH",
"1001 354 OFFCURVE",
"958 223 OFFCURVE",
"811 148 CURVE",
"688 165 OFFCURVE",
"587 239 OFFCURVE",
"527 338 CURVE SMOOTH",
"466 440 OFFCURVE",
"435 551 OFFCURVE",
"435 671 CURVE SMOOTH"
);
},
{
closed = 1;
nodes = (
"0 225 OFFCURVE",
"246 -27 OFFCURVE",
"685 -27 CURVE SMOOTH",
"700 -27 OFFCURVE",
"713 -27 OFFCURVE",
"724 -26 CURVE",
"708 -149 OFFCURVE",
"749 -246 OFFCURVE",
"827 -301 CURVE SMOOTH",
"905 -356 OFFCURVE",
"996 -383 OFFCURVE",
"1150 -383 CURVE SMOOTH",
"1227 -383 OFFCURVE",
"1312 -367 OFFCURVE",
"1407 -335 CURVE",
"1428 -200 LINE",
"1193 -155 OFFCURVE",
"1048 -83 OFFCURVE",
"993 16 CURVE",
"1241 89 OFFCURVE",
"1451 318 OFFCURVE",
"1451 623 CURVE SMOOTH",
"1451 847 OFFCURVE",
"1387 1012 OFFCURVE",
"1258 1118 CURVE SMOOTH",
"1133 1219 OFFCURVE",
"968 1269 OFFCURVE",
"751 1269 CURVE SMOOTH",
"534 1269 OFFCURVE",
"339 1200 OFFCURVE",
"208 1084 CURVE SMOOTH",
"77 968 OFFCURVE",
"0 800 OFFCURVE",
"0 609 CURVE SMOOTH"
);
}
);
width = 1451;
},
{
layerId = "CE2484D1-EC55-40DA-BA6C-521C673DBDD6";
paths = (
{
closed = 1;
nodes = (
"779 1131 OFFCURVE",
"864 1078 OFFCURVE",
"917 1002 CURVE SMOOTH",
"996 887 OFFCURVE",
"1036 743 OFFCURVE",
"1036 568 CURVE SMOOTH",
"1036 344 OFFCURVE",
"987 180 OFFCURVE",
"780 108 CURVE",
"659 119 OFFCURVE",
"557 176 OFFCURVE",
"494 252 CURVE SMOOTH",
"404 363 OFFCURVE",
"359 504 OFFCURVE",
"359 675 CURVE SMOOTH",
"359 979 OFFCURVE",
"466 1131 OFFCURVE",
"680 1131 CURVE SMOOTH"
);
},
{
closed = 1;
nodes = (
"423 0 OFFCURVE",
"533 -27 OFFCURVE",
"662 -27 CURVE SMOOTH",
"683 -27 OFFCURVE",
"700 -26 OFFCURVE",
"714 -24 CURVE",
"711 -101 OFFCURVE",
"728 -168 OFFCURVE",
"764 -223 CURVE SMOOTH",
"835 -335 OFFCURVE",
"951 -384 OFFCURVE",
"1105 -384 CURVE SMOOTH",
"1182 -384 OFFCURVE",
"1255 -370 OFFCURVE",
"1324 -343 CURVE",
"1327 -334 OFFCURVE",
"1339 -250 OFFCURVE",
"1339 -238 CURVE",
"1100 -195 OFFCURVE",
"967 -123 OFFCURVE",
"906 5 CURVE",
"1178 77 OFFCURVE",
"1355 323 OFFCURVE",
"1355 626 CURVE SMOOTH",
"1355 1030 OFFCURVE",
"1125 1270 OFFCURVE",
"738 1270 CURVE SMOOTH",
"530 1270 OFFCURVE",
"352 1200 OFFCURVE",
"235 1084 CURVE SMOOTH",
"118 967 OFFCURVE",
"50 807 OFFCURVE",
"50 587 CURVE SMOOTH",
"50 366 OFFCURVE",
"144 164 OFFCURVE",
"330 55 CURVE SMOOTH"
);
}
);
width = 1404;
},
{
layerId = "A76B26BC-A350-47F3-8273-F323BC23B531";
paths = (
{
closed = 1;
nodes = (
"792 1168 OFFCURVE",
"907 1091 OFFCURVE",
"979 976 CURVE SMOOTH",
"1050 860 OFFCURVE",
"1093 711 OFFCURVE",
"1093 563 CURVE SMOOTH",
"1093 443 OFFCURVE",
"1073 348 OFFCURVE",
"1023 257 CURVE SMOOTH",
"973 166 OFFCURVE",
"881 100 OFFCURVE",
"750 67 CURVE",
"677 71 OFFCURVE",
"612 88 OFFCURVE",
"554 117 CURVE SMOOTH",
"438 175 OFFCURVE",
"373 259 OFFCURVE",
"326 368 CURVE SMOOTH",
"279 476 OFFCURVE",
"264 577 OFFCURVE",
"264 680 CURVE SMOOTH",
"264 989 OFFCURVE",
"413 1168 OFFCURVE",
"665 1168 CURVE SMOOTH"
);
},
{
closed = 1;
nodes = (
"709 -94 OFFCURVE",
"730 -159 OFFCURVE",
"765 -215 CURVE SMOOTH",
"835 -327 OFFCURVE",
"942 -385 OFFCURVE",
"1065 -385 CURVE SMOOTH",
"1134 -385 OFFCURVE",
"1193 -373 OFFCURVE",
"1242 -350 CURVE",
"1249 -333 OFFCURVE",
"1252 -308 OFFCURVE",
"1252 -276 CURVE",
"1112 -252 OFFCURVE",
"1014 -220 OFFCURVE",
"950 -173 CURVE SMOOTH",
"885 -126 OFFCURVE",
"851 -80 OFFCURVE",
"819 -7 CURVE",
"918 18 OFFCURVE",
"1004 62 OFFCURVE",
"1078 125 CURVE SMOOTH",
"1225 252 OFFCURVE",
"1300 432 OFFCURVE",
"1300 629 CURVE SMOOTH",
"1300 746 OFFCURVE",
"1277 854 OFFCURVE",
"1231 951 CURVE SMOOTH",
"1138 1145 OFFCURVE",
"953 1273 OFFCURVE",
"721 1273 CURVE SMOOTH",
"591 1273 OFFCURVE",
"476 1245 OFFCURVE",
"376 1188 CURVE SMOOTH",
"175 1074 OFFCURVE",
"61 864 OFFCURVE",
"61 608 CURVE SMOOTH",
"61 488 OFFCURVE",
"85 380 OFFCURVE",
"133 284 CURVE SMOOTH",
"229 92 OFFCURVE",
"414 -26 OFFCURVE",
"639 -26 CURVE SMOOTH",
"672 -26 OFFCURVE",
"693 -24 OFFCURVE",
"703 -21 CURVE"
);
}
);
width = 1334;
},
{
layerId = "52F1D99C-0FFA-4FAD-B979-579B617E1314";
paths = (
{
closed = 1;
nodes = (
"381 180 OFFCURVE",
"268 406 OFFCURVE",
"268 693 CURVE SMOOTH",
"268 980 OFFCURVE",
"423 1193 OFFCURVE",
"684 1193 CURVE SMOOTH",
"773 1193 OFFCURVE",
"851 1164 OFFCURVE",
"920 1107 CURVE SMOOTH",
"1057 992 OFFCURVE",
"1129 795 OFFCURVE",
"1129 568 CURVE SMOOTH",
"1129 395 OFFCURVE",
"1075 257 OFFCURVE",
"966 154 CURVE SMOOTH",
"909 101 OFFCURVE",
"841 65 OFFCURVE",
"760 47 CURVE",
"696 50 OFFCURVE",
"637 63 OFFCURVE",
"582 88 CURVE SMOOTH"
);
},
{
closed = 1;
nodes = (
"462 2 OFFCURVE",
"556 -27 OFFCURVE",
"661 -27 CURVE SMOOTH",
"686 -27 OFFCURVE",
"710 -25 OFFCURVE",
"733 -21 CURVE",
"760 -234 OFFCURVE",
"899 -385 OFFCURVE",
"1078 -385 CURVE SMOOTH",
"1145 -385 OFFCURVE",
"1200 -375 OFFCURVE",
"1242 -355 CURVE",
"1247 -344 OFFCURVE",
"1250 -323 OFFCURVE",
"1252 -294 CURVE",
"1008 -262 OFFCURVE",
"900 -196 OFFCURVE",
"816 -9 CURVE",
"913 14 OFFCURVE",
"998 58 OFFCURVE",
"1071 124 CURVE SMOOTH",
"1214 254 OFFCURVE",
"1286 422 OFFCURVE",
"1286 629 CURVE SMOOTH",
"1286 811 OFFCURVE",
"1239 963 OFFCURVE",
"1144 1085 CURVE SMOOTH",
"1052 1202 OFFCURVE",
"908 1274 OFFCURVE",
"737 1274 CURVE SMOOTH",
"613 1274 OFFCURVE",
"503 1246 OFFCURVE",
"408 1190 CURVE SMOOTH",
"217 1077 OFFCURVE",
"111 866 OFFCURVE",
"111 621 CURVE SMOOTH",
"111 376 OFFCURVE",
"209 173 OFFCURVE",
"378 59 CURVE SMOOTH"
);
}
);
width = 1344;
},
{
layerId = "B64F7E56-5CD3-4760-9166-7FC8A47137FC";
paths = (
{
closed = 1;
nodes = (
"989 1218 OFFCURVE",
"1176 968 OFFCURVE",
"1176 573 CURVE SMOOTH",
"1176 313 OFFCURVE",
"990 72 OFFCURVE",
"770 27 CURVE",
"487 34 OFFCURVE",
"275 302 OFFCURVE",
"275 650 CURVE SMOOTH",
"275 998 OFFCURVE",
"429 1218 OFFCURVE",
"709 1218 CURVE SMOOTH"
);
},
{
closed = 1;
nodes = (
"415 49 OFFCURVE",
"555 -25 OFFCURVE",
"659 -25 CURVE SMOOTH",
"711 -25 OFFCURVE",
"746 -24 OFFCURVE",
"763 -22 CURVE",
"799 -229 OFFCURVE",
"922 -385 OFFCURVE",
"1090 -385 CURVE SMOOTH",
"1153 -385 OFFCURVE",
"1204 -376 OFFCURVE",
"1243 -358 CURVE",
"1244 -356 OFFCURVE",
"1245 -348 OFFCURVE",
"1247 -335 CURVE SMOOTH",
"1249 -322 OFFCURVE",
"1251 -315 OFFCURVE",
"1252 -313 CURVE",
"1085 -300 OFFCURVE",
"936 -281 OFFCURVE",
"813 -12 CURVE",
"952 20 OFFCURVE",
"1075 114 OFFCURVE",
"1154 231 CURVE SMOOTH",
"1238 356 OFFCURVE",
"1280 489 OFFCURVE",
"1280 628 CURVE SMOOTH",
"1280 907 OFFCURVE",
"1141 1274 OFFCURVE",
"749 1274 CURVE SMOOTH",
"630 1274 OFFCURVE",
"527 1245 OFFCURVE",
"439 1188 CURVE SMOOTH",
"263 1073 OFFCURVE",
"171 858 OFFCURVE",
"171 645 CURVE SMOOTH",
"171 432 OFFCURVE",
"230 277 OFFCURVE",
"323 163 CURVE SMOOTH"
);
}
);
width = 1330;
}
);
note = Q;
unicode = 0051;
},
{
glyphname = R;
lastChange = "2016-08-10 08:02:47 +0000";
layers = (
{
layerId = "DEC179DC-8547-47B6-92D4-65C3F1BBEDD1";
paths = (
{
closed = 1;
nodes = (
"579 1074 LINE",
"586 1075 OFFCURVE",
"597 1075 OFFCURVE",
"612 1075 CURVE SMOOTH",
"753 1075 OFFCURVE",
"851 979 OFFCURVE",
"851 860 CURVE SMOOTH",
"851 775 OFFCURVE",
"811 711 OFFCURVE",
"732 668 CURVE",
"579 668 LINE"
);
},
{
closed = 1;
nodes = (
"722 155 LINE",
"579 229 LINE",
"579 459 LINE",
"653 459 LINE",
"743 283 LINE SMOOTH",
"846 80 OFFCURVE",
"977 -27 OFFCURVE",
"1208 -27 CURVE SMOOTH",
"1289 -27 OFFCURVE",
"1361 -17 OFFCURVE",
"1425 2 CURVE",
"1456 133 LINE",
"1417 142 LINE SMOOTH",
"1382 150 OFFCURVE",
"1349 162 OFFCURVE",
"1318 179 CURVE SMOOTH",
"1256 213 OFFCURVE",
"1182 287 OFFCURVE",
"1097 400 CURVE SMOOTH",
"976 561 LINE",
"976 562 LINE",
"1005 572 OFFCURVE",
"1035 587 OFFCURVE",
"1066 607 CURVE SMOOTH",
"1190 689 OFFCURVE",
"1252 789 OFFCURVE",
"1252 908 CURVE SMOOTH",
"1252 1159 OFFCURVE",
"1062 1255 OFFCURVE",
"666 1255 CURVE SMOOTH",
"521 1255 OFFCURVE",
"177 1227 OFFCURVE",
"29 1203 CURVE",
"17 1043 LINE",
"209 996 LINE",
"209 217 LINE",
"19 138 LINE",
"0 0 LINE",
"710 0 LINE"
);
}
);
width = 1456;
},
{
layerId = "CE2484D1-EC55-40DA-BA6C-521C673DBDD6";
paths = (
{
closed = 1;
nodes = (
"733 1122 OFFCURVE",
"834 1017 OFFCURVE",
"834 874 CURVE SMOOTH",
"834 769 OFFCURVE",
"781 694 OFFCURVE",
"675 648 CURVE",
"500 648 LINE",
"500 1119 LINE",
"576 1122 LINE"
);
},
{
closed = 1;
nodes = (
"665 119 LINE",
"500 178 LINE",
"500 498 LINE",
"624 498 LINE",
"748 268 LINE SMOOTH",
"848 81 OFFCURVE",
"969 -24 OFFCURVE",
"1158 -24 CURVE SMOOTH",
"1221 -24 OFFCURVE",
"1278 -16 OFFCURVE",
"1327 0 CURVE",
"1350 100 LINE",
"1314 110 LINE SMOOTH",
"1281 119 OFFCURVE",
"1252 130 OFFCURVE",
"1225 145 CURVE SMOOTH",
"1170 176 OFFCURVE",
"1097 252 OFFCURVE",
"1008 374 CURVE SMOOTH",
"857 580 LINE",
"1012 635 OFFCURVE",
"1138 775 OFFCURVE",
"1138 926 CURVE SMOOTH",
"1138 1162 OFFCURVE",
"947 1254 OFFCURVE",
"609 1254 CURVE SMOOTH",
"440 1254 OFFCURVE",
"253 1238 OFFCURVE",
"48 1205 CURVE",
"37 1086 LINE",
"218 1048 LINE",
"218 169 LINE",
"40 106 LINE",
"25 0 LINE",
"654 0 LINE"
);
}
);
width = 1332;
},
{
layerId = "A76B26BC-A350-47F3-8273-F323BC23B531";
paths = (
{
closed = 1;
nodes = (
"998 1058 OFFCURVE",
"949 1138 OFFCURVE",
"858 1186 CURVE SMOOTH",
"767 1233 OFFCURVE",
"650 1253 OFFCURVE",
"497 1253 CURVE SMOOTH",
"388 1253 OFFCURVE",
"235 1238 OFFCURVE",
"39 1207 CURVE",
"30 1131 LINE",
"202 1101 LINE",
"202 121 LINE",
"33 74 LINE",
"23 0 LINE",
"572 0 LINE",
"582 82 LINE",
"393 126 LINE",
"393 537 LINE",
"567 537 LINE",
"726 253 LINE SMOOTH",
"775 166 OFFCURVE",
"828 99 OFFCURVE",
"885 51 CURVE SMOOTH",
"1000 -45 OFFCURVE",
"1126 -29 OFFCURVE",
"1202 -2 CURVE",
"1217 67 LINE",
"1184 77 LINE SMOOTH",
"1163 83 OFFCURVE",
"1145 90 OFFCURVE",
"1129 98 CURVE",
"1096 113 OFFCURVE",
"1059 145 OFFCURVE",
"1037 165 CURVE SMOOTH",
"1015 185 OFFCURVE",
"968 245 OFFCURVE",
"947 274 CURVE SMOOTH",
"936 289 OFFCURVE",
"918 314 OFFCURVE",
"892 349 CURVE SMOOTH",
"711 598 LINE",
"711 600 LINE",
"892 664 OFFCURVE",
"998 807 OFFCURVE",
"998 943 CURVE SMOOTH"
);
},
{
closed = 1;
nodes = (
"393 1165 LINE",
"408 1166 LINE SMOOTH",
"427 1167 OFFCURVE",
"472 1170 OFFCURVE",
"513 1170 CURVE SMOOTH",
"686 1170 OFFCURVE",
"791 1055 OFFCURVE",
"791 887 CURVE SMOOTH",
"791 755 OFFCURVE",
"703 665 OFFCURVE",
"591 628 CURVE",
"393 628 LINE"
);
}
);
width = 1213;
},
{
layerId = "52F1D99C-0FFA-4FAD-B979-579B617E1314";
paths = (
{
closed = 1;
nodes = (
"544 1189 LINE",
"736 1189 OFFCURVE",
"853 1077 OFFCURVE",
"853 925 CURVE SMOOTH",
"853 773 OFFCURVE",
"759 672 OFFCURVE",
"636 628 CURVE",
"423 628 LINE",
"423 1184 LINE"
);
},
{
closed = 1;
nodes = (
"623 64 LINE",
"423 96 LINE",
"423 554 LINE",
"617 554 LINE",
"798 245 LINE SMOOTH",
"891 85 OFFCURVE",
"984 -19 OFFCURVE",
"1120 -19 CURVE SMOOTH",
"1156 -19 OFFCURVE",
"1190 -13 OFFCURVE",
"1223 -2 CURVE",
"1234 51 LINE",
"1193 64 LINE SMOOTH",
"1146 79 OFFCURVE",
"1105 104 OFFCURVE",
"1070 139 CURVE SMOOTH",
"1035 174 OFFCURVE",
"983 239 OFFCURVE",
"916 336 CURVE SMOOTH",
"730 604 LINE",
"730 605 LINE",
"921 686 OFFCURVE",
"1011 812 OFFCURVE",
"1011 952 CURVE SMOOTH",
"1011 1156 OFFCURVE",
"826 1254 OFFCURVE",
"582 1254 CURVE SMOOTH",
"459 1254 OFFCURVE",
"305 1239 OFFCURVE",
"120 1209 CURVE",
"110 1153 LINE",
"276 1127 LINE",
"276 96 LINE",
"114 58 LINE",
"105 0 LINE",
"613 0 LINE"
);
}
);
width = 1195;
},
{
layerId = "B64F7E56-5CD3-4760-9166-7FC8A47137FC";
paths = (
{
closed = 1;
nodes = (
"547 1207 LINE",
"759 1207 OFFCURVE",
"887 1110 OFFCURVE",
"887 933 CURVE SMOOTH",
"887 801 OFFCURVE",
"786 676 OFFCURVE",
"653 627 CURVE",
"426 627 LINE",
"426 1202 LINE"
);
},
{
closed = 1;
nodes = (
"637 46 LINE",
"426 65 LINE",
"426 571 LINE",
"640 571 LINE",
"843 238 LINE SMOOTH",
"939 79 OFFCURVE",
"1011 -18 OFFCURVE",
"1128 -18 CURVE SMOOTH",
"1159 -18 OFFCURVE",
"1188 -13 OFFCURVE",
"1217 -3 CURVE",
"1223 34 LINE",
"1175 50 LINE SMOOTH",
"1138 63 OFFCURVE",
"1102 87 OFFCURVE",
"1069 120 CURVE SMOOTH",
"1035 153 OFFCURVE",
"983 221 OFFCURVE",
"914 323 CURVE SMOOTH",
"721 609 LINE",
"721 610 LINE",
"922 709 OFFCURVE",
"997 820 OFFCURVE",
"997 954 CURVE SMOOTH",
"997 1021 OFFCURVE",
"979 1077 OFFCURVE",
"942 1122 CURVE SMOOTH",
"869 1212 OFFCURVE",
"754 1253 OFFCURVE",
"574 1253 CURVE SMOOTH",
"484 1253 OFFCURVE",
"350 1239 OFFCURVE",
"172 1210 CURVE",
"163 1174 LINE",
"323 1153 LINE",
"323 72 LINE",
"167 42 LINE",
"160 0 LINE",
"627 0 LINE"
);
}
);
width = 1181;
}
);
note = R;
unicode = 0052;
},
